solid konstruktion
facet normal 3.75995531006387e-015 -1.0 4.426089124839e-015
outer loop
vertex 87.0 315.0 -12.0000000000002
vertex 92.9999999999999 315.0 -6.00000000000018
vertex 86.9999999999999 315.0 -6.00000000000018
endloop
endfacet
facet normal 3.75995531006387e-015 -1.0 4.426089124839e-015
outer loop
vertex 92.9999999999999 315.0 -6.00000000000018
vertex 87.0 315.0 -12.0000000000002
vertex 92.9999999999999 315.0 -12.0000000000002
endloop
endfacet
facet normal -1.0 -5.85623587064029e-017 1.87997765503193e-015
outer loop
vertex -93.0000000000001 281.612903225806 -6.00000000000017
vertex -93.0000000000001 89.0 -12.0
vertex -93.0000000000001 89.0 -6.00000000000003
endloop
endfacet
facet normal -1.0 -5.85623587064029e-017 1.87997765503193e-015
outer loop
vertex -93.0000000000001 89.0 -12.0
vertex -93.0000000000001 281.612903225806 -6.00000000000017
vertex -93.0000000000001 281.612903225806 -12.0000000000002
endloop
endfacet
facet normal -1.0 0.0 0.0
outer loop
vertex -87.0000000000001 282.725806451613 -1.77031149596294e-013
vertex -87.0000000000001 95.0 -6.00000000000003
vertex -87.0000000000001 95.0 -4.07007760827582e-014
endloop
endfacet
facet normal -1.0 0.0 0.0
outer loop
vertex -87.0000000000001 95.0 -6.00000000000003
vertex -87.0000000000001 282.725806451613 -1.77031149596294e-013
vertex -87.0000000000001 282.725806451613 -6.00000000000017
endloop
endfacet
facet normal -0.0 -1.0 6.66133814775094e-016
outer loop
vertex 92.9999999999999 89.0 -12.0
vertex -93.0000000000001 89.0 -6.00000000000003
vertex -93.0000000000001 89.0 -12.0
endloop
endfacet
facet normal -0.0 -1.0 6.66133814775094e-016
outer loop
vertex -93.0000000000001 89.0 -6.00000000000003
vertex 92.9999999999999 89.0 -12.0
vertex 92.9999999999999 89.0 -6.00000000000003
endloop
endfacet
facet normal -0.0 -1.0 6.66133814775094e-016
outer loop
vertex 86.9999999999999 95.0 -6.00000000000003
vertex -87.0000000000001 95.0 -4.07007760827582e-014
vertex -87.0000000000001 95.0 -6.00000000000003
endloop
endfacet
facet normal -0.0 -1.0 6.66133814775094e-016
outer loop
vertex -87.0000000000001 95.0 -4.07007760827582e-014
vertex 86.9999999999999 95.0 -6.00000000000003
vertex 86.9999999999999 95.0 -4.07007760827582e-014
endloop
endfacet
facet normal 7.76464493147636e-017 -6.67951094108918e-016 -1.0
outer loop
vertex -93.0000000000001 281.612903225806 -12.0000000000002
vertex 92.9999999999999 89.0 -12.0
vertex -93.0000000000001 89.0 -12.0
endloop
endfacet
facet normal 7.76464493147636e-017 -6.67951094108918e-016 -1.0
outer loop
vertex 92.9999999999999 89.0 -12.0
vertex -93.0000000000001 281.612903225806 -12.0000000000002
vertex 92.9999999999999 315.0 -12.0000000000002
endloop
endfacet
facet normal 7.76464493147636e-017 -6.67951094108918e-016 -1.0
outer loop
vertex 92.9999999999999 315.0 -12.0000000000002
vertex -93.0000000000001 281.612903225806 -12.0000000000002
vertex 87.0 315.0 -12.0000000000002
endloop
endfacet
facet normal 0.182373191938966 -0.983229382627469 2.09002929367389e-015
outer loop
vertex 87.0 315.0 -12.0000000000002
vertex -93.0000000000001 281.612903225806 -6.00000000000017
vertex -93.0000000000001 281.612903225806 -12.0000000000002
endloop
endfacet
facet normal 0.182373191938966 -0.983229382627469 2.09002929367389e-015
outer loop
vertex -93.0000000000001 281.612903225806 -6.00000000000017
vertex 87.0 315.0 -12.0000000000002
vertex -87.0000000000001 282.725806451613 -6.00000000000017
endloop
endfacet
facet normal 0.182373191938966 -0.983229382627469 2.09002929367389e-015
outer loop
vertex -87.0000000000001 282.725806451613 -6.00000000000017
vertex 87.0 315.0 -12.0000000000002
vertex -87.0000000000001 282.725806451613 -1.77031149596294e-013
endloop
endfacet
facet normal 0.182373191938966 -0.983229382627469 2.09002929367389e-015
outer loop
vertex -87.0000000000001 282.725806451613 -1.77031149596294e-013
vertex 87.0 315.0 -12.0000000000002
vertex 86.9999999999999 315.0 -6.00000000000018
endloop
endfacet
facet normal 0.182373191938966 -0.983229382627469 2.09002929367389e-015
outer loop
vertex 86.9999999999999 315.0 -1.87250215333279e-013
vertex -87.0000000000001 282.725806451613 -1.77031149596294e-013
vertex 86.9999999999999 315.0 -6.00000000000018
endloop
endfacet
facet normal -3.64336029531132e-017 7.01443215341262e-016 1.0
outer loop
vertex 86.9999999999999 315.0 -1.87250215333279e-013
vertex -87.0000000000001 95.0 -4.07007760827582e-014
vertex 86.9999999999999 95.0 -4.07007760827582e-014
endloop
endfacet
facet normal -3.64336029531132e-017 7.01443215341262e-016 1.0
outer loop
vertex -87.0000000000001 95.0 -4.07007760827582e-014
vertex 86.9999999999999 315.0 -1.87250215333279e-013
vertex -87.0000000000001 282.725806451613 -1.77031149596294e-013
endloop
endfacet
facet normal 1.0 0.0 0.0
outer loop
vertex 92.9999999999999 315.0 -12.0000000000002
vertex 92.9999999999999 315.0 -6.00000000000018
vertex 92.9999999999999 89.0 -12.0
endloop
endfacet
facet normal 1.0 0.0 0.0
outer loop
vertex 92.9999999999999 89.0 -12.0
vertex 92.9999999999999 315.0 -6.00000000000018
vertex 92.9999999999999 89.0 -6.00000000000003
endloop
endfacet
facet normal 1.0 0.0 0.0
outer loop
vertex 86.9999999999999 315.0 -6.00000000000018
vertex 86.9999999999999 315.0 -1.87250215333279e-013
vertex 86.9999999999999 95.0 -4.07007760827582e-014
endloop
endfacet
facet normal 1.0 0.0 0.0
outer loop
vertex 86.9999999999999 315.0 -6.00000000000018
vertex 86.9999999999999 95.0 -4.07007760827582e-014
vertex 86.9999999999999 95.0 -6.00000000000003
endloop
endfacet
facet normal -3.51525925385539e-017 7.25438868853743e-016 1.0
outer loop
vertex -87.0000000000001 95.0 -6.00000000000003
vertex -93.0000000000001 281.612903225806 -6.00000000000017
vertex -93.0000000000001 89.0 -6.00000000000003
endloop
endfacet
facet normal -3.51525925385539e-017 7.25438868853743e-016 1.0
outer loop
vertex -93.0000000000001 281.612903225806 -6.00000000000017
vertex -87.0000000000001 95.0 -6.00000000000003
vertex -87.0000000000001 282.725806451613 -6.00000000000017
endloop
endfacet
facet normal 0.0 6.66133814775094e-016 1.0
outer loop
vertex 92.9999999999999 89.0 -6.00000000000003
vertex 86.9999999999999 95.0 -6.00000000000003
vertex -93.0000000000001 89.0 -6.00000000000003
endloop
endfacet
facet normal 0.0 6.66133814775094e-016 1.0
outer loop
vertex 86.9999999999999 95.0 -6.00000000000003
vertex 92.9999999999999 89.0 -6.00000000000003
vertex 92.9999999999999 315.0 -6.00000000000018
endloop
endfacet
facet normal 0.0 6.66133814775094e-016 1.0
outer loop
vertex 86.9999999999999 95.0 -6.00000000000003
vertex 92.9999999999999 315.0 -6.00000000000018
vertex 86.9999999999999 315.0 -6.00000000000018
endloop
endfacet
facet normal 0.0 6.66133814775094e-016 1.0
outer loop
vertex -87.0000000000001 95.0 -6.00000000000003
vertex -93.0000000000001 89.0 -6.00000000000003
vertex 86.9999999999999 95.0 -6.00000000000003
endloop
endfacet
endsolid konstruktion
