solid konstruktion
facet normal 0.0 1.0 0.0
outer loop
vertex -87.0000000000001 77.0 1.12798659301916e-014
vertex 86.9999999999999 77.0 -5.99999999999999
vertex -87.0000000000001 77.0 -5.99999999999999
endloop
endfacet
facet normal 0.0 1.0 0.0
outer loop
vertex 86.9999999999999 77.0 -5.99999999999999
vertex -87.0000000000001 77.0 1.12798659301916e-014
vertex 86.9999999999999 77.0 1.12798659301916e-014
endloop
endfacet
facet normal -7.93875837375373e-017 1.0 5.56282172784534e-016
outer loop
vertex -93.0 83.0 -6.00000000000001
vertex 93.0 83.0 -12.0
vertex -93.0000000000001 83.0 -12.0
endloop
endfacet
facet normal -7.93875837375373e-017 1.0 5.56282172784534e-016
outer loop
vertex 93.0 83.0 -12.0
vertex -93.0 83.0 -6.00000000000001
vertex 93.0 83.0 -5.99999999999999
endloop
endfacet
facet normal -1.0 -2.39095337184907e-016 3.13233004995348e-015
outer loop
vertex -87.0000000000001 77.0 1.12798659301916e-014
vertex -87.0 2.0 -2.99999999999999
vertex -87.0 2.0 0.0
endloop
endfacet
facet normal -1.0 -2.39095337184907e-016 3.13233004995348e-015
outer loop
vertex -87.0 -55.0 0.0
vertex -87.0000000000001 -67.0 -5.99999999999999
vertex -87.0 -67.0 0.0
endloop
endfacet
facet normal -1.0 -2.39095337184907e-016 3.13233004995348e-015
outer loop
vertex -87.0000000000001 -67.0 -5.99999999999999
vertex -87.0 -55.0 0.0
vertex -87.0 -55.0 -2.99999999999999
endloop
endfacet
facet normal -1.0 -2.39095337184907e-016 3.13233004995348e-015
outer loop
vertex -87.0000000000001 -67.0 -5.99999999999999
vertex -87.0 -55.0 -2.99999999999999
vertex -87.0000000000001 77.0 -5.99999999999999
endloop
endfacet
facet normal -1.0 -2.39095337184907e-016 3.13233004995348e-015
outer loop
vertex -87.0000000000001 77.0 -5.99999999999999
vertex -87.0 -55.0 -2.99999999999999
vertex -87.0 2.0 -2.99999999999999
endloop
endfacet
facet normal -1.0 -2.39095337184907e-016 3.13233004995348e-015
outer loop
vertex -87.0000000000001 77.0 -5.99999999999999
vertex -87.0 2.0 -2.99999999999999
vertex -87.0000000000001 77.0 1.12798659301916e-014
endloop
endfacet
facet normal 1.0 5.0862099001153e-016 -1.55846687965071e-014
outer loop
vertex 86.9999999999999 77.0 -5.99999999999999
vertex 87.0 -55.0 -2.99999999999999
vertex 86.9999999999999 -66.9999999999999 -5.99999999999999
endloop
endfacet
facet normal 1.0 5.0862099001153e-016 -1.55846687965071e-014
outer loop
vertex 87.0 -55.0 -2.99999999999999
vertex 86.9999999999999 77.0 -5.99999999999999
vertex 87.0 2.0 -2.99999999999999
endloop
endfacet
facet normal 1.0 5.0862099001153e-016 -1.55846687965071e-014
outer loop
vertex 87.0 2.0 -2.99999999999999
vertex 86.9999999999999 77.0 -5.99999999999999
vertex 87.0 2.0 0.0
endloop
endfacet
facet normal 1.0 5.0862099001153e-016 -1.55846687965071e-014
outer loop
vertex 87.0 2.0 0.0
vertex 86.9999999999999 77.0 -5.99999999999999
vertex 86.9999999999999 77.0 1.12798659301916e-014
endloop
endfacet
facet normal 1.0 5.0862099001153e-016 -1.55846687965071e-014
outer loop
vertex 86.9999999999999 -66.9999999999999 -5.99999999999999
vertex 87.0 -55.0 0.0
vertex 87.0 -67.0 0.0
endloop
endfacet
facet normal 1.0 5.0862099001153e-016 -1.55846687965071e-014
outer loop
vertex 87.0 -55.0 0.0
vertex 86.9999999999999 -66.9999999999999 -5.99999999999999
vertex 87.0 -55.0 -2.99999999999999
endloop
endfacet
facet normal 1.40570037166979e-032 -1.50398212402555e-016 1.0
outer loop
vertex 20.5 14.0 0.0
vertex 20.9231787491388 36.3651709834394 1.12798659301916e-014
vertex 19.7704384377796 35.8788970556499 1.12798659301916e-014
endloop
endfacet
facet normal 1.40570037166979e-032 -1.50398212402555e-016 1.0
outer loop
vertex 20.9231787491388 36.3651709834394 1.12798659301916e-014
vertex 20.5 14.0 0.0
vertex 20.5766668908496 14.5823428514807 0.0
endloop
endfacet
facet normal 1.40570037166979e-032 -1.50398212402555e-016 1.0
outer loop
vertex 20.9231787491388 36.3651709834394 1.12798659301916e-014
vertex 20.5766668908496 14.5823428514807 0.0
vertex 20.801442841485 15.125 0.0
endloop
endfacet
facet normal 1.40570037166979e-032 -1.50398212402555e-016 1.0
outer loop
vertex 20.9231787491388 36.3651709834394 1.12798659301916e-014
vertex 20.801442841485 15.125 0.0
vertex 21.1590097423303 15.5909902576697 0.0
endloop
endfacet
facet normal 1.40570037166979e-032 -1.50398212402555e-016 1.0
outer loop
vertex 20.9231787491388 36.3651709834394 1.12798659301916e-014
vertex 21.1590097423303 15.5909902576697 0.0
vertex 21.9107834332364 37.1332266755795 1.12798659301916e-014
endloop
endfacet
facet normal 1.40570037166979e-032 -1.50398212402555e-016 1.0
outer loop
vertex 21.9107834332364 37.1332266755795 1.12798659301916e-014
vertex 21.1590097423303 15.5909902576697 0.0
vertex 21.625 15.948557158515 0.0
endloop
endfacet
facet normal 1.40570037166979e-032 -1.50398212402555e-016 1.0
outer loop
vertex 21.9107834332364 37.1332266755795 1.12798659301916e-014
vertex 21.625 15.948557158515 0.0
vertex 22.1676571485193 16.1733331091504 0.0
endloop
endfacet
facet normal 1.40570037166979e-032 -1.50398212402555e-016 1.0
outer loop
vertex 21.9107834332364 37.1332266755795 1.12798659301916e-014
vertex 22.1676571485193 16.1733331091504 0.0
vertex 22.6659488629451 38.1307224059229 1.12798659301916e-014
endloop
endfacet
facet normal 1.40570037166979e-032 -1.50398212402555e-016 1.0
outer loop
vertex 22.6659488629451 38.1307224059229 1.12798659301916e-014
vertex 22.1676571485193 16.1733331091504 0.0
vertex 22.75 16.25 0.0
endloop
endfacet
facet normal 1.40570037166979e-032 -1.50398212402555e-016 1.0
outer loop
vertex 22.6659488629451 38.1307224059229 1.12798659301916e-014
vertex 22.75 16.25 0.0
vertex 23.1372117622001 39.2896804888863 1.12798659301916e-014
endloop
endfacet
facet normal 1.40570037166979e-032 -1.50398212402555e-016 1.0
outer loop
vertex 23.1372117622001 39.2896804888863 1.12798659301916e-014
vertex 22.75 16.25 0.0
vertex 23.3323428514807 16.1733331091504 0.0
endloop
endfacet
facet normal 1.40570037166979e-032 -1.50398212402555e-016 1.0
outer loop
vertex 23.1372117622001 39.2896804888863 1.12798659301916e-014
vertex 23.3323428514807 16.1733331091504 0.0
vertex 23.2924563432159 40.5311198463845 1.12798659301916e-014
endloop
endfacet
facet normal 1.40570037166979e-032 -1.50398212402555e-016 1.0
outer loop
vertex -84.0 2.0 0.0
vertex -24.9587212954565 13.5709892320734 0.0
vertex -24.9944970996495 14.1572665560913 0.0
endloop
endfacet
facet normal 1.40570037166979e-032 -1.50398212402555e-016 1.0
outer loop
vertex -24.9587212954565 13.5709892320734 0.0
vertex -84.0 2.0 0.0
vertex -24.7724247850626 13.013948282916 0.0
endloop
endfacet
facet normal 1.40570037166979e-032 -1.50398212402555e-016 1.0
outer loop
vertex -24.7724247850626 13.013948282916 0.0
vertex -84.0 2.0 0.0
vertex -24.4483033677817 12.5241051287503 0.0
endloop
endfacet
facet normal 1.40570037166979e-032 -1.50398212402555e-016 1.0
outer loop
vertex -24.4483033677817 12.5241051287503 0.0
vertex -84.0 2.0 0.0
vertex -24.0084453825655 12.1348417710287 0.0
endloop
endfacet
facet normal 1.40570037166979e-032 -1.50398212402555e-016 1.0
outer loop
vertex -24.0084453825655 12.1348417710287 0.0
vertex -84.0 2.0 0.0
vertex -23.4828264242068 11.8726858642917 0.0
endloop
endfacet
facet normal 1.40570037166979e-032 -1.50398212402555e-016 1.0
outer loop
vertex -23.4828264242068 11.8726858642917 0.0
vertex -84.0 2.0 0.0
vertex -22.9072665560913 11.7555029003505 0.0
endloop
endfacet
facet normal 1.40570037166979e-032 -1.50398212402555e-016 1.0
outer loop
vertex -22.9072665560913 11.7555029003505 0.0
vertex -84.0 2.0 0.0
vertex 84.0 2.00000000000004 0.0
endloop
endfacet
facet normal 1.40570037166979e-032 -1.50398212402555e-016 1.0
outer loop
vertex -22.9072665560913 11.7555029003505 0.0
vertex 84.0 2.00000000000004 0.0
vertex -22.3209892320734 11.7912787045435 0.0
endloop
endfacet
facet normal 1.40570037166979e-032 -1.50398212402555e-016 1.0
outer loop
vertex -22.3209892320734 11.7912787045435 0.0
vertex 84.0 2.00000000000004 0.0
vertex -21.763948282916 11.9775752149374 0.0
endloop
endfacet
facet normal 1.40570037166979e-032 -1.50398212402555e-016 1.0
outer loop
vertex -21.763948282916 11.9775752149374 0.0
vertex 84.0 2.00000000000004 0.0
vertex -21.2741051287503 12.3016966322183 0.0
endloop
endfacet
facet normal 1.40570037166979e-032 -1.50398212402555e-016 1.0
outer loop
vertex -21.2741051287503 12.3016966322183 0.0
vertex 84.0 2.00000000000004 0.0
vertex -20.8848417710286 12.7415546174345 0.0
endloop
endfacet
facet normal 1.40570037166979e-032 -1.50398212402555e-016 1.0
outer loop
vertex -20.8848417710286 12.7415546174345 0.0
vertex 84.0 2.00000000000004 0.0
vertex -20.6226858642917 13.2671735757932 0.0
endloop
endfacet
facet normal 1.40570037166979e-032 -1.50398212402555e-016 1.0
outer loop
vertex -20.6226858642917 13.2671735757932 0.0
vertex 84.0 2.00000000000004 0.0
vertex -20.5055029003505 13.8427334439087 0.0
endloop
endfacet
facet normal 1.40570037166979e-032 -1.50398212402555e-016 1.0
outer loop
vertex -20.5055029003505 13.8427334439087 0.0
vertex 84.0 2.00000000000004 0.0
vertex 22.1676571485193 11.8266668908496 0.0
endloop
endfacet
facet normal 1.40570037166979e-032 -1.50398212402555e-016 1.0
outer loop
vertex -20.5055029003505 13.8427334439087 0.0
vertex 22.1676571485193 11.8266668908496 0.0
vertex 21.625 12.051442841485 0.0
endloop
endfacet
facet normal 1.40570037166979e-032 -1.50398212402555e-016 1.0
outer loop
vertex -20.5055029003505 13.8427334439087 0.0
vertex 21.625 12.051442841485 0.0
vertex 21.1590097423303 12.4090097423303 0.0
endloop
endfacet
facet normal 1.40570037166979e-032 -1.50398212402555e-016 1.0
outer loop
vertex -20.5055029003505 13.8427334439087 0.0
vertex 21.1590097423303 12.4090097423303 0.0
vertex 20.801442841485 12.875 0.0
endloop
endfacet
facet normal 1.40570037166979e-032 -1.50398212402555e-016 1.0
outer loop
vertex -20.5055029003505 13.8427334439087 0.0
vertex 20.801442841485 12.875 0.0
vertex 20.5766668908496 13.4176571485193 0.0
endloop
endfacet
facet normal 1.40570037166979e-032 -1.50398212402555e-016 1.0
outer loop
vertex -20.5055029003505 13.8427334439087 0.0
vertex 20.5766668908496 13.4176571485193 0.0
vertex 13.8788970556499 39.2295615622204 1.12798659301916e-014
endloop
endfacet
facet normal 1.40570037166979e-032 -1.50398212402555e-016 1.0
outer loop
vertex -20.5055029003505 13.8427334439087 0.0
vertex 13.8788970556499 39.2295615622204 1.12798659301916e-014
vertex 13.7075436567841 40.4688801536155 1.12798659301916e-014
endloop
endfacet
facet normal 1.40570037166979e-032 -1.50398212402555e-016 1.0
outer loop
vertex 13.8788970556499 39.2295615622204 1.12798659301916e-014
vertex 20.5766668908496 13.4176571485193 0.0
vertex 14.3651709834394 38.0768212508612 1.12798659301916e-014
endloop
endfacet
facet normal 1.40570037166979e-032 -1.50398212402555e-016 1.0
outer loop
vertex 14.3651709834394 38.0768212508612 1.12798659301916e-014
vertex 20.5766668908496 13.4176571485193 0.0
vertex 15.1332266755795 37.0892165667636 1.12798659301916e-014
endloop
endfacet
facet normal 1.40570037166979e-032 -1.50398212402555e-016 1.0
outer loop
vertex 15.1332266755795 37.0892165667636 1.12798659301916e-014
vertex 20.5766668908496 13.4176571485193 0.0
vertex 16.1307224059229 36.3340511370549 1.12798659301916e-014
endloop
endfacet
facet normal 1.40570037166979e-032 -1.50398212402555e-016 1.0
outer loop
vertex 16.1307224059229 36.3340511370549 1.12798659301916e-014
vertex 20.5766668908496 13.4176571485193 0.0
vertex 17.2896804888863 35.8627882377999 1.12798659301916e-014
endloop
endfacet
facet normal 1.40570037166979e-032 -1.50398212402555e-016 1.0
outer loop
vertex 17.2896804888863 35.8627882377999 1.12798659301916e-014
vertex 20.5766668908496 13.4176571485193 0.0
vertex 20.5 14.0 0.0
endloop
endfacet
facet normal 1.40570037166979e-032 -1.50398212402555e-016 1.0
outer loop
vertex 17.2896804888863 35.8627882377999 1.12798659301916e-014
vertex 20.5 14.0 0.0
vertex 18.5311198463845 35.7075436567841 1.12798659301916e-014
endloop
endfacet
facet normal 1.40570037166979e-032 -1.50398212402555e-016 1.0
outer loop
vertex 18.5311198463845 35.7075436567841 1.12798659301916e-014
vertex 20.5 14.0 0.0
vertex 19.7704384377796 35.8788970556499 1.12798659301916e-014
endloop
endfacet
facet normal 1.40570037166979e-032 -1.50398212402555e-016 1.0
outer loop
vertex 22.1676571485193 11.8266668908496 0.0
vertex 84.0 2.00000000000004 0.0
vertex 22.75 11.75 0.0
endloop
endfacet
facet normal 1.40570037166979e-032 -1.50398212402555e-016 1.0
outer loop
vertex 22.75 11.75 0.0
vertex 84.0 2.00000000000004 0.0
vertex 23.3323428514807 11.8266668908496 0.0
endloop
endfacet
facet normal 1.40570037166979e-032 -1.50398212402555e-016 1.0
outer loop
vertex 23.3323428514807 11.8266668908496 0.0
vertex 84.0 2.00000000000004 0.0
vertex 23.875 12.051442841485 0.0
endloop
endfacet
facet normal 1.40570037166979e-032 -1.50398212402555e-016 1.0
outer loop
vertex 23.875 12.051442841485 0.0
vertex 84.0 2.00000000000004 0.0
vertex 24.3409902576697 12.4090097423303 0.0
endloop
endfacet
facet normal 1.40570037166979e-032 -1.50398212402555e-016 1.0
outer loop
vertex 24.3409902576697 12.4090097423303 0.0
vertex 84.0 2.00000000000004 0.0
vertex 24.698557158515 12.875 0.0
endloop
endfacet
facet normal 1.40570037166979e-032 -1.50398212402555e-016 1.0
outer loop
vertex 24.698557158515 12.875 0.0
vertex 84.0 2.00000000000004 0.0
vertex 24.9233331091504 13.4176571485193 0.0
endloop
endfacet
facet normal 1.40570037166979e-032 -1.50398212402555e-016 1.0
outer loop
vertex 24.9233331091504 13.4176571485193 0.0
vertex 84.0 2.00000000000004 0.0
vertex 25.0 14.0 0.0
endloop
endfacet
facet normal 1.40570037166979e-032 -1.50398212402555e-016 1.0
outer loop
vertex -87.0 2.0 0.0
vertex 86.9999999999999 77.0 1.12798659301916e-014
vertex -87.0000000000001 77.0 1.12798659301916e-014
endloop
endfacet
facet normal 1.40570037166979e-032 -1.50398212402555e-016 1.0
outer loop
vertex 86.9999999999999 77.0 1.12798659301916e-014
vertex -87.0 2.0 0.0
vertex -84.0 2.0 0.0
endloop
endfacet
facet normal 1.40570037166979e-032 -1.50398212402555e-016 1.0
outer loop
vertex 86.9999999999999 77.0 1.12798659301916e-014
vertex -84.0 2.0 0.0
vertex 16.0768212508612 44.6348290165606 1.12798659301916e-014
endloop
endfacet
facet normal 1.40570037166979e-032 -1.50398212402555e-016 1.0
outer loop
vertex 16.0768212508612 44.6348290165606 1.12798659301916e-014
vertex -84.0 2.0 0.0
vertex -24.2258948712497 15.6983033677817 0.0
endloop
endfacet
facet normal 1.40570037166979e-032 -1.50398212402555e-016 1.0
outer loop
vertex -24.2258948712497 15.6983033677817 0.0
vertex -84.0 2.0 0.0
vertex -24.6151582289713 15.2584453825655 0.0
endloop
endfacet
facet normal 1.40570037166979e-032 -1.50398212402555e-016 1.0
outer loop
vertex -24.6151582289713 15.2584453825655 0.0
vertex -84.0 2.0 0.0
vertex -24.8773141357083 14.7328264242068 0.0
endloop
endfacet
facet normal 1.40570037166979e-032 -1.50398212402555e-016 1.0
outer loop
vertex -24.8773141357083 14.7328264242068 0.0
vertex -84.0 2.0 0.0
vertex -24.9944970996495 14.1572665560913 0.0
endloop
endfacet
facet normal 1.40570037166979e-032 -1.50398212402555e-016 1.0
outer loop
vertex 16.0768212508612 44.6348290165606 1.12798659301916e-014
vertex -24.2258948712497 15.6983033677817 0.0
vertex -23.736051717084 16.0224247850626 0.0
endloop
endfacet
facet normal 1.40570037166979e-032 -1.50398212402555e-016 1.0
outer loop
vertex 16.0768212508612 44.6348290165606 1.12798659301916e-014
vertex -23.736051717084 16.0224247850626 0.0
vertex -23.1790107679265 16.2087212954565 0.0
endloop
endfacet
facet normal 1.40570037166979e-032 -1.50398212402555e-016 1.0
outer loop
vertex 16.0768212508612 44.6348290165606 1.12798659301916e-014
vertex -23.1790107679265 16.2087212954565 0.0
vertex -22.5927334439087 16.2444970996495 0.0
endloop
endfacet
facet normal 1.40570037166979e-032 -1.50398212402555e-016 1.0
outer loop
vertex 16.0768212508612 44.6348290165606 1.12798659301916e-014
vertex -22.5927334439087 16.2444970996495 0.0
vertex -22.0171735757932 16.1273141357083 0.0
endloop
endfacet
facet normal 1.40570037166979e-032 -1.50398212402555e-016 1.0
outer loop
vertex 16.0768212508612 44.6348290165606 1.12798659301916e-014
vertex -22.0171735757932 16.1273141357083 0.0
vertex -21.4915546174345 15.8651582289713 0.0
endloop
endfacet
facet normal 1.40570037166979e-032 -1.50398212402555e-016 1.0
outer loop
vertex 16.0768212508612 44.6348290165606 1.12798659301916e-014
vertex -21.4915546174345 15.8651582289713 0.0
vertex 15.0892165667636 43.8667733244205 1.12798659301916e-014
endloop
endfacet
facet normal 1.40570037166979e-032 -1.50398212402555e-016 1.0
outer loop
vertex 15.0892165667636 43.8667733244205 1.12798659301916e-014
vertex -21.4915546174345 15.8651582289713 0.0
vertex -21.0516966322183 15.4758948712497 0.0
endloop
endfacet
facet normal 1.40570037166979e-032 -1.50398212402555e-016 1.0
outer loop
vertex 15.0892165667636 43.8667733244205 1.12798659301916e-014
vertex -21.0516966322183 15.4758948712497 0.0
vertex -20.7275752149374 14.986051717084 0.0
endloop
endfacet
facet normal 1.40570037166979e-032 -1.50398212402555e-016 1.0
outer loop
vertex 15.0892165667636 43.8667733244205 1.12798659301916e-014
vertex -20.7275752149374 14.986051717084 0.0
vertex -20.5412787045435 14.4290107679265 0.0
endloop
endfacet
facet normal 1.40570037166979e-032 -1.50398212402555e-016 1.0
outer loop
vertex 15.0892165667636 43.8667733244205 1.12798659301916e-014
vertex -20.5412787045435 14.4290107679265 0.0
vertex -20.5055029003505 13.8427334439087 0.0
endloop
endfacet
facet normal 1.40570037166979e-032 -1.50398212402555e-016 1.0
outer loop
vertex 15.0892165667636 43.8667733244205 1.12798659301916e-014
vertex -20.5055029003505 13.8427334439087 0.0
vertex 14.3340511370549 42.8692775940771 1.12798659301916e-014
endloop
endfacet
facet normal 1.40570037166979e-032 -1.50398212402555e-016 1.0
outer loop
vertex 14.3340511370549 42.8692775940771 1.12798659301916e-014
vertex -20.5055029003505 13.8427334439087 0.0
vertex 13.8627882377999 41.7103195111137 1.12798659301916e-014
endloop
endfacet
facet normal 1.40570037166979e-032 -1.50398212402555e-016 1.0
outer loop
vertex 13.8627882377999 41.7103195111137 1.12798659301916e-014
vertex -20.5055029003505 13.8427334439087 0.0
vertex 13.7075436567841 40.4688801536155 1.12798659301916e-014
endloop
endfacet
facet normal 1.40570037166979e-032 -1.50398212402555e-016 1.0
outer loop
vertex 86.9999999999999 77.0 1.12798659301916e-014
vertex 16.0768212508612 44.6348290165606 1.12798659301916e-014
vertex 17.2295615622204 45.1211029443501 1.12798659301916e-014
endloop
endfacet
facet normal 1.40570037166979e-032 -1.50398212402555e-016 1.0
outer loop
vertex 86.9999999999999 77.0 1.12798659301916e-014
vertex 17.2295615622204 45.1211029443501 1.12798659301916e-014
vertex 18.4688801536155 45.2924563432159 1.12798659301916e-014
endloop
endfacet
facet normal 1.40570037166979e-032 -1.50398212402555e-016 1.0
outer loop
vertex 86.9999999999999 77.0 1.12798659301916e-014
vertex 18.4688801536155 45.2924563432159 1.12798659301916e-014
vertex 19.7103195111137 45.1372117622001 1.12798659301916e-014
endloop
endfacet
facet normal 1.40570037166979e-032 -1.50398212402555e-016 1.0
outer loop
vertex 86.9999999999999 77.0 1.12798659301916e-014
vertex 19.7103195111137 45.1372117622001 1.12798659301916e-014
vertex 20.8692775940771 44.6659488629451 1.12798659301916e-014
endloop
endfacet
facet normal 1.40570037166979e-032 -1.50398212402555e-016 1.0
outer loop
vertex 86.9999999999999 77.0 1.12798659301916e-014
vertex 20.8692775940771 44.6659488629451 1.12798659301916e-014
vertex 21.8667733244205 43.9107834332364 1.12798659301916e-014
endloop
endfacet
facet normal 1.40570037166979e-032 -1.50398212402555e-016 1.0
outer loop
vertex 86.9999999999999 77.0 1.12798659301916e-014
vertex 21.8667733244205 43.9107834332364 1.12798659301916e-014
vertex 22.6348290165606 42.9231787491388 1.12798659301916e-014
endloop
endfacet
facet normal 1.40570037166979e-032 -1.50398212402555e-016 1.0
outer loop
vertex 86.9999999999999 77.0 1.12798659301916e-014
vertex 22.6348290165606 42.9231787491388 1.12798659301916e-014
vertex 23.1211029443501 41.7704384377796 1.12798659301916e-014
endloop
endfacet
facet normal 1.40570037166979e-032 -1.50398212402555e-016 1.0
outer loop
vertex 86.9999999999999 77.0 1.12798659301916e-014
vertex 23.1211029443501 41.7704384377796 1.12798659301916e-014
vertex 23.2924563432159 40.5311198463845 1.12798659301916e-014
endloop
endfacet
facet normal 1.40570037166979e-032 -1.50398212402555e-016 1.0
outer loop
vertex 86.9999999999999 77.0 1.12798659301916e-014
vertex 23.2924563432159 40.5311198463845 1.12798659301916e-014
vertex 23.3323428514807 16.1733331091504 0.0
endloop
endfacet
facet normal 1.40570037166979e-032 -1.50398212402555e-016 1.0
outer loop
vertex 86.9999999999999 77.0 1.12798659301916e-014
vertex 23.3323428514807 16.1733331091504 0.0
vertex 23.875 15.948557158515 0.0
endloop
endfacet
facet normal 1.40570037166979e-032 -1.50398212402555e-016 1.0
outer loop
vertex 86.9999999999999 77.0 1.12798659301916e-014
vertex 23.875 15.948557158515 0.0
vertex 24.3409902576697 15.5909902576697 0.0
endloop
endfacet
facet normal 1.40570037166979e-032 -1.50398212402555e-016 1.0
outer loop
vertex 86.9999999999999 77.0 1.12798659301916e-014
vertex 24.3409902576697 15.5909902576697 0.0
vertex 24.698557158515 15.125 0.0
endloop
endfacet
facet normal 1.40570037166979e-032 -1.50398212402555e-016 1.0
outer loop
vertex 86.9999999999999 77.0 1.12798659301916e-014
vertex 24.698557158515 15.125 0.0
vertex 24.9233331091504 14.5823428514807 0.0
endloop
endfacet
facet normal 1.40570037166979e-032 -1.50398212402555e-016 1.0
outer loop
vertex 86.9999999999999 77.0 1.12798659301916e-014
vertex 24.9233331091504 14.5823428514807 0.0
vertex 25.0 14.0 0.0
endloop
endfacet
facet normal 1.40570037166979e-032 -1.50398212402555e-016 1.0
outer loop
vertex 86.9999999999999 77.0 1.12798659301916e-014
vertex 25.0 14.0 0.0
vertex 84.0 2.00000000000004 0.0
endloop
endfacet
facet normal 1.40570037166979e-032 -1.50398212402555e-016 1.0
outer loop
vertex 86.9999999999999 77.0 1.12798659301916e-014
vertex 84.0 2.00000000000004 0.0
vertex 87.0 2.0 0.0
endloop
endfacet
facet normal 2.68568236433133e-016 -1.0 0.0
outer loop
vertex 84.0 2.00000000000004 -2.99999999999999
vertex -84.0 2.0 -12.0
vertex 84.0 2.00000000000004 -12.0
endloop
endfacet
facet normal 2.68568236433133e-016 -1.0 0.0
outer loop
vertex -84.0 2.0 -12.0
vertex 84.0 2.00000000000004 -2.99999999999999
vertex -84.0 2.0 -2.99999999999999
endloop
endfacet
facet normal 2.68568236433133e-016 -1.0 0.0
outer loop
vertex -84.0 2.0 -2.99999999999999
vertex 84.0 2.00000000000004 -2.99999999999999
vertex 84.0 2.00000000000004 0.0
endloop
endfacet
facet normal 2.68568236433133e-016 -1.0 0.0
outer loop
vertex -84.0 2.0 -2.99999999999999
vertex 84.0 2.00000000000004 0.0
vertex -84.0 2.0 0.0
endloop
endfacet
facet normal -1.0 -0.0 -0.0
outer loop
vertex 84.0 2.00000000000004 -2.99999999999999
vertex 84.0 -55.0 -12.0
vertex 84.0 -55.0 -2.99999999999999
endloop
endfacet
facet normal -1.0 -0.0 -0.0
outer loop
vertex 84.0 -55.0 -12.0
vertex 84.0 2.00000000000004 -2.99999999999999
vertex 84.0 2.00000000000004 -12.0
endloop
endfacet
facet normal 1.0 0.0 0.0
outer loop
vertex -84.0 2.0 -12.0
vertex -84.0 -55.0 -2.99999999999999
vertex -84.0 -55.0 -12.0
endloop
endfacet
facet normal 1.0 0.0 0.0
outer loop
vertex -84.0 -55.0 -2.99999999999999
vertex -84.0 2.0 -12.0
vertex -84.0 2.0 -2.99999999999999
endloop
endfacet
facet normal -1.0 -3.38395977905748e-016 8.45989944764371e-015
outer loop
vertex -93.0 83.0 -6.00000000000001
vertex -93.0 -67.0 -12.0
vertex -93.0 -67.0 -6.0
endloop
endfacet
facet normal -1.0 -3.38395977905748e-016 8.45989944764371e-015
outer loop
vertex -93.0 -67.0 -12.0
vertex -93.0 83.0 -6.00000000000001
vertex -93.0000000000001 83.0 -12.0
endloop
endfacet
facet normal 0.0 0.0 1.0
outer loop
vertex 87.0 -67.0 0.0
vertex -87.0 -55.0 0.0
vertex -87.0 -67.0 0.0
endloop
endfacet
facet normal 0.0 0.0 1.0
outer loop
vertex -87.0 -55.0 0.0
vertex 87.0 -67.0 0.0
vertex 87.0 -55.0 0.0
endloop
endfacet
facet normal 0.0 0.0 -1.0
outer loop
vertex -93.0000000000001 83.0 -12.0
vertex -84.0 2.0 -12.0
vertex -93.0 -67.0 -12.0
endloop
endfacet
facet normal 0.0 0.0 -1.0
outer loop
vertex -84.0 2.0 -12.0
vertex -93.0000000000001 83.0 -12.0
vertex 93.0 83.0 -12.0
endloop
endfacet
facet normal 0.0 0.0 -1.0
outer loop
vertex -84.0 2.0 -12.0
vertex 93.0 83.0 -12.0
vertex 16.0768212508612 44.6348290165606 -12.0
endloop
endfacet
facet normal 0.0 0.0 -1.0
outer loop
vertex -84.0 2.0 -12.0
vertex 16.0768212508612 44.6348290165606 -12.0
vertex -24.2258948712497 15.6983033677817 -12.0
endloop
endfacet
facet normal 0.0 0.0 -1.0
outer loop
vertex -84.0 2.0 -12.0
vertex -24.2258948712497 15.6983033677817 -12.0
vertex -24.6151582289713 15.2584453825655 -12.0
endloop
endfacet
facet normal 0.0 0.0 -1.0
outer loop
vertex -84.0 2.0 -12.0
vertex -24.6151582289713 15.2584453825655 -12.0
vertex -24.8773141357083 14.7328264242068 -12.0
endloop
endfacet
facet normal 0.0 0.0 -1.0
outer loop
vertex -84.0 2.0 -12.0
vertex -24.8773141357083 14.7328264242068 -12.0
vertex -24.9944970996495 14.1572665560913 -12.0
endloop
endfacet
facet normal 0.0 0.0 -1.0
outer loop
vertex -24.2258948712497 15.6983033677817 -12.0
vertex 16.0768212508612 44.6348290165606 -12.0
vertex -23.736051717084 16.0224247850626 -12.0
endloop
endfacet
facet normal 0.0 0.0 -1.0
outer loop
vertex -23.736051717084 16.0224247850626 -12.0
vertex 16.0768212508612 44.6348290165606 -12.0
vertex -23.1790107679265 16.2087212954565 -12.0
endloop
endfacet
facet normal 0.0 0.0 -1.0
outer loop
vertex -23.1790107679265 16.2087212954565 -12.0
vertex 16.0768212508612 44.6348290165606 -12.0
vertex -22.5927334439087 16.2444970996495 -12.0
endloop
endfacet
facet normal 0.0 0.0 -1.0
outer loop
vertex -22.5927334439087 16.2444970996495 -12.0
vertex 16.0768212508612 44.6348290165606 -12.0
vertex -22.0171735757932 16.1273141357083 -12.0
endloop
endfacet
facet normal 0.0 0.0 -1.0
outer loop
vertex -22.0171735757932 16.1273141357083 -12.0
vertex 16.0768212508612 44.6348290165606 -12.0
vertex -21.4915546174345 15.8651582289713 -12.0
endloop
endfacet
facet normal 0.0 0.0 -1.0
outer loop
vertex -21.4915546174345 15.8651582289713 -12.0
vertex 16.0768212508612 44.6348290165606 -12.0
vertex 15.0892165667636 43.8667733244205 -12.0
endloop
endfacet
facet normal 0.0 0.0 -1.0
outer loop
vertex -21.4915546174345 15.8651582289713 -12.0
vertex 15.0892165667636 43.8667733244205 -12.0
vertex -21.0516966322183 15.4758948712497 -12.0
endloop
endfacet
facet normal 0.0 0.0 -1.0
outer loop
vertex -21.0516966322183 15.4758948712497 -12.0
vertex 15.0892165667636 43.8667733244205 -12.0
vertex -20.7275752149374 14.986051717084 -12.0
endloop
endfacet
facet normal 0.0 0.0 -1.0
outer loop
vertex -20.7275752149374 14.986051717084 -12.0
vertex 15.0892165667636 43.8667733244205 -12.0
vertex -20.5412787045435 14.4290107679265 -12.0
endloop
endfacet
facet normal 0.0 0.0 -1.0
outer loop
vertex -20.5412787045435 14.4290107679265 -12.0
vertex 15.0892165667636 43.8667733244205 -12.0
vertex -20.5055029003505 13.8427334439087 -12.0
endloop
endfacet
facet normal 0.0 0.0 -1.0
outer loop
vertex -20.5055029003505 13.8427334439087 -12.0
vertex 15.0892165667636 43.8667733244205 -12.0
vertex 14.3340511370549 42.8692775940771 -12.0
endloop
endfacet
facet normal 0.0 0.0 -1.0
outer loop
vertex -20.5055029003505 13.8427334439087 -12.0
vertex 14.3340511370549 42.8692775940771 -12.0
vertex 13.8627882377999 41.7103195111137 -12.0
endloop
endfacet
facet normal 0.0 0.0 -1.0
outer loop
vertex -20.5055029003505 13.8427334439087 -12.0
vertex 13.8627882377999 41.7103195111137 -12.0
vertex 13.7075436567841 40.4688801536155 -12.0
endloop
endfacet
facet normal 0.0 0.0 -1.0
outer loop
vertex 16.0768212508612 44.6348290165606 -12.0
vertex 93.0 83.0 -12.0
vertex 17.2295615622204 45.1211029443501 -12.0
endloop
endfacet
facet normal 0.0 0.0 -1.0
outer loop
vertex 17.2295615622204 45.1211029443501 -12.0
vertex 93.0 83.0 -12.0
vertex 18.4688801536155 45.2924563432159 -12.0
endloop
endfacet
facet normal 0.0 0.0 -1.0
outer loop
vertex 18.4688801536155 45.2924563432159 -12.0
vertex 93.0 83.0 -12.0
vertex 19.7103195111137 45.1372117622001 -12.0
endloop
endfacet
facet normal 0.0 0.0 -1.0
outer loop
vertex 19.7103195111137 45.1372117622001 -12.0
vertex 93.0 83.0 -12.0
vertex 20.8692775940771 44.6659488629451 -12.0
endloop
endfacet
facet normal 0.0 0.0 -1.0
outer loop
vertex 20.8692775940771 44.6659488629451 -12.0
vertex 93.0 83.0 -12.0
vertex 21.8667733244205 43.9107834332364 -12.0
endloop
endfacet
facet normal 0.0 0.0 -1.0
outer loop
vertex 21.8667733244205 43.9107834332364 -12.0
vertex 93.0 83.0 -12.0
vertex 22.6348290165606 42.9231787491388 -12.0
endloop
endfacet
facet normal 0.0 0.0 -1.0
outer loop
vertex 22.6348290165606 42.9231787491388 -12.0
vertex 93.0 83.0 -12.0
vertex 23.1211029443501 41.7704384377796 -12.0
endloop
endfacet
facet normal 0.0 0.0 -1.0
outer loop
vertex 23.1211029443501 41.7704384377796 -12.0
vertex 93.0 83.0 -12.0
vertex 23.2924563432159 40.5311198463845 -12.0
endloop
endfacet
facet normal 0.0 0.0 -1.0
outer loop
vertex 23.2924563432159 40.5311198463845 -12.0
vertex 93.0 83.0 -12.0
vertex 23.3323428514807 16.1733331091504 -12.0
endloop
endfacet
facet normal 0.0 0.0 -1.0
outer loop
vertex 23.3323428514807 16.1733331091504 -12.0
vertex 93.0 83.0 -12.0
vertex 23.875 15.948557158515 -12.0
endloop
endfacet
facet normal 0.0 0.0 -1.0
outer loop
vertex 23.875 15.948557158515 -12.0
vertex 93.0 83.0 -12.0
vertex 24.3409902576697 15.5909902576697 -12.0
endloop
endfacet
facet normal 0.0 0.0 -1.0
outer loop
vertex 24.3409902576697 15.5909902576697 -12.0
vertex 93.0 83.0 -12.0
vertex 24.698557158515 15.125 -12.0
endloop
endfacet
facet normal 0.0 0.0 -1.0
outer loop
vertex 24.698557158515 15.125 -12.0
vertex 93.0 83.0 -12.0
vertex 24.9233331091504 14.5823428514807 -12.0
endloop
endfacet
facet normal 0.0 0.0 -1.0
outer loop
vertex 24.9233331091504 14.5823428514807 -12.0
vertex 93.0 83.0 -12.0
vertex 25.0 14.0 -12.0
endloop
endfacet
facet normal 0.0 0.0 -1.0
outer loop
vertex 25.0 14.0 -12.0
vertex 93.0 83.0 -12.0
vertex 84.0 2.00000000000004 -12.0
endloop
endfacet
facet normal 0.0 0.0 -1.0
outer loop
vertex 84.0 2.00000000000004 -12.0
vertex 93.0 83.0 -12.0
vertex 84.0 -55.0 -12.0
endloop
endfacet
facet normal 0.0 0.0 -1.0
outer loop
vertex -93.0 -67.0 -12.0
vertex -84.0 -55.0 -12.0
vertex 93.0 -67.0 -12.0
endloop
endfacet
facet normal 0.0 0.0 -1.0
outer loop
vertex -84.0 -55.0 -12.0
vertex -93.0 -67.0 -12.0
vertex -84.0 2.0 -12.0
endloop
endfacet
facet normal 0.0 0.0 -1.0
outer loop
vertex 93.0 -67.0 -12.0
vertex -84.0 -55.0 -12.0
vertex 84.0 -55.0 -12.0
endloop
endfacet
facet normal 0.0 0.0 -1.0
outer loop
vertex 93.0 -67.0 -12.0
vertex 84.0 -55.0 -12.0
vertex 93.0 83.0 -12.0
endloop
endfacet
facet normal 0.0 0.0 -1.0
outer loop
vertex -84.0 2.0 -12.0
vertex -22.9072665560913 11.7555029003505 -12.0
vertex 84.0 2.00000000000004 -12.0
endloop
endfacet
facet normal 0.0 0.0 -1.0
outer loop
vertex -22.9072665560913 11.7555029003505 -12.0
vertex -84.0 2.0 -12.0
vertex -23.4828264242068 11.8726858642917 -12.0
endloop
endfacet
facet normal 0.0 0.0 -1.0
outer loop
vertex -23.4828264242068 11.8726858642917 -12.0
vertex -84.0 2.0 -12.0
vertex -24.0084453825655 12.1348417710287 -12.0
endloop
endfacet
facet normal 0.0 0.0 -1.0
outer loop
vertex -24.0084453825655 12.1348417710287 -12.0
vertex -84.0 2.0 -12.0
vertex -24.4483033677817 12.5241051287503 -12.0
endloop
endfacet
facet normal 0.0 0.0 -1.0
outer loop
vertex -24.4483033677817 12.5241051287503 -12.0
vertex -84.0 2.0 -12.0
vertex -24.7724247850626 13.013948282916 -12.0
endloop
endfacet
facet normal 0.0 0.0 -1.0
outer loop
vertex -24.7724247850626 13.013948282916 -12.0
vertex -84.0 2.0 -12.0
vertex -24.9587212954565 13.5709892320734 -12.0
endloop
endfacet
facet normal 0.0 0.0 -1.0
outer loop
vertex -24.9587212954565 13.5709892320734 -12.0
vertex -84.0 2.0 -12.0
vertex -24.9944970996495 14.1572665560913 -12.0
endloop
endfacet
facet normal 0.0 0.0 -1.0
outer loop
vertex 84.0 2.00000000000004 -12.0
vertex -22.9072665560913 11.7555029003505 -12.0
vertex -22.3209892320734 11.7912787045435 -12.0
endloop
endfacet
facet normal 0.0 0.0 -1.0
outer loop
vertex 84.0 2.00000000000004 -12.0
vertex -22.3209892320734 11.7912787045435 -12.0
vertex -21.763948282916 11.9775752149374 -12.0
endloop
endfacet
facet normal 0.0 0.0 -1.0
outer loop
vertex 84.0 2.00000000000004 -12.0
vertex -21.763948282916 11.9775752149374 -12.0
vertex -21.2741051287503 12.3016966322183 -12.0
endloop
endfacet
facet normal 0.0 0.0 -1.0
outer loop
vertex 84.0 2.00000000000004 -12.0
vertex -21.2741051287503 12.3016966322183 -12.0
vertex -20.8848417710286 12.7415546174345 -12.0
endloop
endfacet
facet normal 0.0 0.0 -1.0
outer loop
vertex 84.0 2.00000000000004 -12.0
vertex -20.8848417710286 12.7415546174345 -12.0
vertex -20.6226858642917 13.2671735757932 -12.0
endloop
endfacet
facet normal 0.0 0.0 -1.0
outer loop
vertex 84.0 2.00000000000004 -12.0
vertex -20.6226858642917 13.2671735757932 -12.0
vertex -20.5055029003505 13.8427334439087 -12.0
endloop
endfacet
facet normal 0.0 0.0 -1.0
outer loop
vertex 84.0 2.00000000000004 -12.0
vertex -20.5055029003505 13.8427334439087 -12.0
vertex 22.1676571485193 11.8266668908496 -12.0
endloop
endfacet
facet normal 0.0 0.0 -1.0
outer loop
vertex 22.1676571485193 11.8266668908496 -12.0
vertex -20.5055029003505 13.8427334439087 -12.0
vertex 21.625 12.051442841485 -12.0
endloop
endfacet
facet normal 0.0 0.0 -1.0
outer loop
vertex 21.625 12.051442841485 -12.0
vertex -20.5055029003505 13.8427334439087 -12.0
vertex 21.1590097423303 12.4090097423303 -12.0
endloop
endfacet
facet normal 0.0 0.0 -1.0
outer loop
vertex 21.1590097423303 12.4090097423303 -12.0
vertex -20.5055029003505 13.8427334439087 -12.0
vertex 20.801442841485 12.875 -12.0
endloop
endfacet
facet normal 0.0 0.0 -1.0
outer loop
vertex 20.801442841485 12.875 -12.0
vertex -20.5055029003505 13.8427334439087 -12.0
vertex 20.5766668908496 13.4176571485193 -12.0
endloop
endfacet
facet normal 0.0 0.0 -1.0
outer loop
vertex 20.5766668908496 13.4176571485193 -12.0
vertex -20.5055029003505 13.8427334439087 -12.0
vertex 13.8788970556499 39.2295615622204 -12.0
endloop
endfacet
facet normal 0.0 0.0 -1.0
outer loop
vertex 13.8788970556499 39.2295615622204 -12.0
vertex -20.5055029003505 13.8427334439087 -12.0
vertex 13.7075436567841 40.4688801536155 -12.0
endloop
endfacet
facet normal 0.0 0.0 -1.0
outer loop
vertex 20.5766668908496 13.4176571485193 -12.0
vertex 13.8788970556499 39.2295615622204 -12.0
vertex 14.3651709834394 38.0768212508612 -12.0
endloop
endfacet
facet normal 0.0 0.0 -1.0
outer loop
vertex 20.5766668908496 13.4176571485193 -12.0
vertex 14.3651709834394 38.0768212508612 -12.0
vertex 15.1332266755795 37.0892165667636 -12.0
endloop
endfacet
facet normal 0.0 0.0 -1.0
outer loop
vertex 20.5766668908496 13.4176571485193 -12.0
vertex 15.1332266755795 37.0892165667636 -12.0
vertex 16.1307224059229 36.3340511370549 -12.0
endloop
endfacet
facet normal 0.0 0.0 -1.0
outer loop
vertex 20.5766668908496 13.4176571485193 -12.0
vertex 16.1307224059229 36.3340511370549 -12.0
vertex 17.2896804888863 35.8627882377999 -12.0
endloop
endfacet
facet normal 0.0 0.0 -1.0
outer loop
vertex 20.5766668908496 13.4176571485193 -12.0
vertex 17.2896804888863 35.8627882377999 -12.0
vertex 20.5 14.0 -12.0
endloop
endfacet
facet normal 0.0 0.0 -1.0
outer loop
vertex 20.5 14.0 -12.0
vertex 17.2896804888863 35.8627882377999 -12.0
vertex 18.5311198463845 35.7075436567841 -12.0
endloop
endfacet
facet normal 0.0 0.0 -1.0
outer loop
vertex 20.5 14.0 -12.0
vertex 18.5311198463845 35.7075436567841 -12.0
vertex 19.7704384377796 35.8788970556499 -12.0
endloop
endfacet
facet normal 0.0 0.0 -1.0
outer loop
vertex 84.0 2.00000000000004 -12.0
vertex 22.1676571485193 11.8266668908496 -12.0
vertex 22.75 11.75 -12.0
endloop
endfacet
facet normal 0.0 0.0 -1.0
outer loop
vertex 84.0 2.00000000000004 -12.0
vertex 22.75 11.75 -12.0
vertex 23.3323428514807 11.8266668908496 -12.0
endloop
endfacet
facet normal 0.0 0.0 -1.0
outer loop
vertex 84.0 2.00000000000004 -12.0
vertex 23.3323428514807 11.8266668908496 -12.0
vertex 23.875 12.051442841485 -12.0
endloop
endfacet
facet normal 0.0 0.0 -1.0
outer loop
vertex 84.0 2.00000000000004 -12.0
vertex 23.875 12.051442841485 -12.0
vertex 24.3409902576697 12.4090097423303 -12.0
endloop
endfacet
facet normal 0.0 0.0 -1.0
outer loop
vertex 84.0 2.00000000000004 -12.0
vertex 24.3409902576697 12.4090097423303 -12.0
vertex 24.698557158515 12.875 -12.0
endloop
endfacet
facet normal 0.0 0.0 -1.0
outer loop
vertex 84.0 2.00000000000004 -12.0
vertex 24.698557158515 12.875 -12.0
vertex 24.9233331091504 13.4176571485193 -12.0
endloop
endfacet
facet normal 0.0 0.0 -1.0
outer loop
vertex 84.0 2.00000000000004 -12.0
vertex 24.9233331091504 13.4176571485193 -12.0
vertex 25.0 14.0 -12.0
endloop
endfacet
facet normal 0.0 0.0 -1.0
outer loop
vertex 20.9231787491388 36.3651709834394 -12.0
vertex 20.5 14.0 -12.0
vertex 19.7704384377796 35.8788970556499 -12.0
endloop
endfacet
facet normal 0.0 0.0 -1.0
outer loop
vertex 20.5 14.0 -12.0
vertex 20.9231787491388 36.3651709834394 -12.0
vertex 20.5766668908496 14.5823428514807 -12.0
endloop
endfacet
facet normal 0.0 0.0 -1.0
outer loop
vertex 20.5766668908496 14.5823428514807 -12.0
vertex 20.9231787491388 36.3651709834394 -12.0
vertex 20.801442841485 15.125 -12.0
endloop
endfacet
facet normal 0.0 0.0 -1.0
outer loop
vertex 20.801442841485 15.125 -12.0
vertex 20.9231787491388 36.3651709834394 -12.0
vertex 21.1590097423303 15.5909902576697 -12.0
endloop
endfacet
facet normal 0.0 0.0 -1.0
outer loop
vertex 21.1590097423303 15.5909902576697 -12.0
vertex 20.9231787491388 36.3651709834394 -12.0
vertex 21.9107834332364 37.1332266755795 -12.0
endloop
endfacet
facet normal 0.0 0.0 -1.0
outer loop
vertex 21.1590097423303 15.5909902576697 -12.0
vertex 21.9107834332364 37.1332266755795 -12.0
vertex 21.625 15.948557158515 -12.0
endloop
endfacet
facet normal 0.0 0.0 -1.0
outer loop
vertex 21.625 15.948557158515 -12.0
vertex 21.9107834332364 37.1332266755795 -12.0
vertex 22.1676571485193 16.1733331091504 -12.0
endloop
endfacet
facet normal 0.0 0.0 -1.0
outer loop
vertex 22.1676571485193 16.1733331091504 -12.0
vertex 21.9107834332364 37.1332266755795 -12.0
vertex 22.6659488629451 38.1307224059229 -12.0
endloop
endfacet
facet normal 0.0 0.0 -1.0
outer loop
vertex 22.1676571485193 16.1733331091504 -12.0
vertex 22.6659488629451 38.1307224059229 -12.0
vertex 22.75 16.25 -12.0
endloop
endfacet
facet normal 0.0 0.0 -1.0
outer loop
vertex 22.75 16.25 -12.0
vertex 22.6659488629451 38.1307224059229 -12.0
vertex 23.1372117622001 39.2896804888863 -12.0
endloop
endfacet
facet normal 0.0 0.0 -1.0
outer loop
vertex 22.75 16.25 -12.0
vertex 23.1372117622001 39.2896804888863 -12.0
vertex 23.3323428514807 16.1733331091504 -12.0
endloop
endfacet
facet normal 0.0 0.0 -1.0
outer loop
vertex 23.3323428514807 16.1733331091504 -12.0
vertex 23.1372117622001 39.2896804888863 -12.0
vertex 23.2924563432159 40.5311198463845 -12.0
endloop
endfacet
facet normal 1.0 -1.50398212402555e-016 3.75995531006386e-015
outer loop
vertex 93.0 83.0 -12.0
vertex 92.9999999999999 -67.0 -5.99999999999999
vertex 93.0 -67.0 -12.0
endloop
endfacet
facet normal 1.0 -1.50398212402555e-016 3.75995531006386e-015
outer loop
vertex 92.9999999999999 -67.0 -5.99999999999999
vertex 93.0 83.0 -12.0
vertex 93.0 83.0 -5.99999999999999
endloop
endfacet
facet normal -4.85121869916675e-017 2.07321713934025e-017 1.0
outer loop
vertex -87.0000000000001 -67.0 -5.99999999999999
vertex -93.0 83.0 -6.00000000000001
vertex -93.0 -67.0 -6.0
endloop
endfacet
facet normal -4.85121869916675e-017 2.07321713934025e-017 1.0
outer loop
vertex -93.0 83.0 -6.00000000000001
vertex -87.0000000000001 -67.0 -5.99999999999999
vertex -87.0000000000001 77.0 -5.99999999999999
endloop
endfacet
facet normal -4.85121869916675e-017 2.07321713934025e-017 1.0
outer loop
vertex 92.9999999999999 -67.0 -5.99999999999999
vertex 86.9999999999999 77.0 -5.99999999999999
vertex 86.9999999999999 -66.9999999999999 -5.99999999999999
endloop
endfacet
facet normal -4.85121869916675e-017 2.07321713934025e-017 1.0
outer loop
vertex -87.0000000000001 77.0 -5.99999999999999
vertex 93.0 83.0 -5.99999999999999
vertex -93.0 83.0 -6.00000000000001
endloop
endfacet
facet normal -4.85121869916675e-017 2.07321713934025e-017 1.0
outer loop
vertex 93.0 83.0 -5.99999999999999
vertex -87.0000000000001 77.0 -5.99999999999999
vertex 86.9999999999999 77.0 -5.99999999999999
endloop
endfacet
facet normal -4.85121869916675e-017 2.07321713934025e-017 1.0
outer loop
vertex 93.0 83.0 -5.99999999999999
vertex 86.9999999999999 77.0 -5.99999999999999
vertex 92.9999999999999 -67.0 -5.99999999999999
endloop
endfacet
facet normal 3.0254912317384e-017 -1.0 -1.87997765503193e-015
outer loop
vertex 92.9999999999999 -67.0 -5.99999999999999
vertex -93.0 -67.0 -12.0
vertex 93.0 -67.0 -12.0
endloop
endfacet
facet normal 3.0254912317384e-017 -1.0 -1.87997765503193e-015
outer loop
vertex -93.0 -67.0 -12.0
vertex 92.9999999999999 -67.0 -5.99999999999999
vertex -93.0 -67.0 -6.0
endloop
endfacet
facet normal 3.0254912317384e-017 -1.0 -1.87997765503193e-015
outer loop
vertex -93.0 -67.0 -6.0
vertex 92.9999999999999 -67.0 -5.99999999999999
vertex -87.0000000000001 -67.0 -5.99999999999999
endloop
endfacet
facet normal 3.0254912317384e-017 -1.0 -1.87997765503193e-015
outer loop
vertex -87.0000000000001 -67.0 -5.99999999999999
vertex 92.9999999999999 -67.0 -5.99999999999999
vertex 86.9999999999999 -66.9999999999999 -5.99999999999999
endloop
endfacet
facet normal 3.0254912317384e-017 -1.0 -1.87997765503193e-015
outer loop
vertex -87.0000000000001 -67.0 -5.99999999999999
vertex 86.9999999999999 -66.9999999999999 -5.99999999999999
vertex 87.0 -67.0 0.0
endloop
endfacet
facet normal 3.0254912317384e-017 -1.0 -1.87997765503193e-015
outer loop
vertex -87.0000000000001 -67.0 -5.99999999999999
vertex 87.0 -67.0 0.0
vertex -87.0 -67.0 0.0
endloop
endfacet
facet normal 0.0 0.0 1.0
outer loop
vertex -84.0 -55.0 -2.99999999999999
vertex -87.0 2.0 -2.99999999999999
vertex -87.0 -55.0 -2.99999999999999
endloop
endfacet
facet normal 0.0 0.0 1.0
outer loop
vertex -87.0 2.0 -2.99999999999999
vertex -84.0 -55.0 -2.99999999999999
vertex -84.0 2.0 -2.99999999999999
endloop
endfacet
facet normal 0.0 1.0 0.0
outer loop
vertex -87.0 2.0 0.0
vertex -84.0 2.0 -2.99999999999999
vertex -87.0 2.0 -2.99999999999999
endloop
endfacet
facet normal 0.0 1.0 0.0
outer loop
vertex -84.0 2.0 -2.99999999999999
vertex -87.0 2.0 0.0
vertex -84.0 2.0 0.0
endloop
endfacet
facet normal -1.32098553378605e-016 1.0 4.07972103086179e-018
outer loop
vertex -87.0 -55.0 0.0
vertex -84.0 -55.0 -2.99999999999999
vertex -87.0 -55.0 -2.99999999999999
endloop
endfacet
facet normal -1.32098553378605e-016 1.0 4.07972103086179e-018
outer loop
vertex -84.0 -55.0 -2.99999999999999
vertex -87.0 -55.0 0.0
vertex 84.0 -55.0 -2.99999999999999
endloop
endfacet
facet normal -1.32098553378605e-016 1.0 4.07972103086179e-018
outer loop
vertex 84.0 -55.0 -2.99999999999999
vertex -87.0 -55.0 0.0
vertex 87.0 -55.0 -2.99999999999999
endloop
endfacet
facet normal -1.32098553378605e-016 1.0 4.07972103086179e-018
outer loop
vertex 87.0 -55.0 -2.99999999999999
vertex -87.0 -55.0 0.0
vertex 87.0 -55.0 0.0
endloop
endfacet
facet normal -1.32098553378605e-016 1.0 4.07972103086179e-018
outer loop
vertex -84.0 -55.0 -2.99999999999999
vertex 84.0 -55.0 -12.0
vertex -84.0 -55.0 -12.0
endloop
endfacet
facet normal -1.32098553378605e-016 1.0 4.07972103086179e-018
outer loop
vertex 84.0 -55.0 -12.0
vertex -84.0 -55.0 -2.99999999999999
vertex 84.0 -55.0 -2.99999999999999
endloop
endfacet
facet normal 0.0 0.0 1.0
outer loop
vertex 87.0 -55.0 -2.99999999999999
vertex 84.0 2.00000000000004 -2.99999999999999
vertex 84.0 -55.0 -2.99999999999999
endloop
endfacet
facet normal 0.0 0.0 1.0
outer loop
vertex 84.0 2.00000000000004 -2.99999999999999
vertex 87.0 -55.0 -2.99999999999999
vertex 87.0 2.0 -2.99999999999999
endloop
endfacet
facet normal 1.50398212402555e-014 1.0 0.0
outer loop
vertex 84.0 2.00000000000004 0.0
vertex 87.0 2.0 -2.99999999999999
vertex 84.0 2.00000000000004 -2.99999999999999
endloop
endfacet
facet normal 1.50398212402555e-014 1.0 0.0
outer loop
vertex 87.0 2.0 -2.99999999999999
vertex 84.0 2.00000000000004 0.0
vertex 87.0 2.0 0.0
endloop
endfacet
facet normal 0.505612881953394 -0.862760461311704 -3.17217402325614e-032
outer loop
vertex 16.0768212508612 44.6348290165606 1.12798659301916e-014
vertex 15.0892165667636 43.8667733244205 -12.0
vertex 16.0768212508612 44.6348290165606 -12.0
endloop
endfacet
facet normal 0.711683379532136 -0.702500368183333 -1.03726301205441e-031
outer loop
vertex 15.0892165667636 43.8667733244205 -12.0
vertex 16.0768212508612 44.6348290165606 1.12798659301916e-014
vertex 15.0892165667636 43.8667733244205 1.12798659301916e-014
endloop
endfacet
facet normal 0.265085702034324 -0.964224854780756 4.24446049145119e-032
outer loop
vertex 17.2295615622204 45.1211029443501 1.12798659301916e-014
vertex 16.0768212508612 44.6348290165606 -12.0
vertex 17.2295615622204 45.1211029443501 -12.0
endloop
endfacet
facet normal 0.505612881953394 -0.862760461311704 -3.17217402325614e-032
outer loop
vertex 16.0768212508612 44.6348290165606 -12.0
vertex 17.2295615622204 45.1211029443501 1.12798659301916e-014
vertex 16.0768212508612 44.6348290165606 1.12798659301916e-014
endloop
endfacet
facet normal 0.00649336959645192 -0.999978917853414 1.13718420379687e-031
outer loop
vertex 18.4688801536155 45.2924563432159 1.12798659301916e-014
vertex 17.2295615622204 45.1211029443501 -12.0
vertex 18.4688801536155 45.2924563432159 -12.0
endloop
endfacet
facet normal 0.265085702034324 -0.964224854780756 4.24446049145119e-032
outer loop
vertex 17.2295615622204 45.1211029443501 -12.0
vertex 18.4688801536155 45.2924563432159 1.12798659301916e-014
vertex 17.2295615622204 45.1211029443501 1.12798659301916e-014
endloop
endfacet
facet normal -0.252541475248621 -0.967586070217658 1.77242513424563e-031
outer loop
vertex 19.7103195111137 45.1372117622001 1.12798659301916e-014
vertex 18.4688801536155 45.2924563432159 -12.0
vertex 19.7103195111137 45.1372117622001 -12.0
endloop
endfacet
facet normal 0.00649336959645192 -0.999978917853414 1.13718420379687e-031
outer loop
vertex 18.4688801536155 45.2924563432159 -12.0
vertex 19.7103195111137 45.1372117622001 1.12798659301916e-014
vertex 18.4688801536155 45.2924563432159 1.12798659301916e-014
endloop
endfacet
facet normal -0.49436603590002 -0.869253830908153 2.28687822086656e-031
outer loop
vertex 20.8692775940771 44.6659488629451 1.12798659301916e-014
vertex 19.7103195111137 45.1372117622001 -12.0
vertex 20.8692775940771 44.6659488629451 -12.0
endloop
endfacet
facet normal -0.252541475248621 -0.967586070217658 1.77242513424563e-031
outer loop
vertex 19.7103195111137 45.1372117622001 -12.0
vertex 20.8692775940771 44.6659488629451 1.12798659301916e-014
vertex 19.7103195111137 45.1372117622001 1.12798659301916e-014
endloop
endfacet
facet normal -0.702500368183333 -0.711683379532136 2.64548433598039e-031
outer loop
vertex 21.8667733244205 43.9107834332364 1.12798659301916e-014
vertex 20.8692775940771 44.6659488629451 -12.0
vertex 21.8667733244205 43.9107834332364 -12.0
endloop
endfacet
facet normal -0.49436603590002 -0.869253830908153 2.28687822086656e-031
outer loop
vertex 20.8692775940771 44.6659488629451 -12.0
vertex 21.8667733244205 43.9107834332364 1.12798659301916e-014
vertex 20.8692775940771 44.6659488629451 1.12798659301916e-014
endloop
endfacet
facet normal -0.702500368183333 -0.711683379532136 2.64548433598039e-031
outer loop
vertex 21.8667733244205 43.9107834332364 1.12798659301916e-014
vertex 22.6348290165606 42.9231787491388 -12.0
vertex 22.6348290165606 42.9231787491388 1.12798659301916e-014
endloop
endfacet
facet normal -0.862760461311703 -0.505612881953395 2.82380506546673e-031
outer loop
vertex 22.6348290165606 42.9231787491388 -12.0
vertex 21.8667733244205 43.9107834332364 1.12798659301916e-014
vertex 21.8667733244205 43.9107834332364 -12.0
endloop
endfacet
facet normal -0.862760461311703 -0.505612881953395 2.82380506546673e-031
outer loop
vertex 22.6348290165606 42.9231787491388 1.12798659301916e-014
vertex 23.1211029443501 41.7704384377796 -12.0
vertex 23.1211029443501 41.7704384377796 1.12798659301916e-014
endloop
endfacet
facet normal -0.964224854780756 -0.265085702034324 2.80968814630003e-031
outer loop
vertex 23.1211029443501 41.7704384377796 -12.0
vertex 22.6348290165606 42.9231787491388 1.12798659301916e-014
vertex 22.6348290165606 42.9231787491388 -12.0
endloop
endfacet
facet normal -0.964224854780756 -0.265085702034324 2.80968814630003e-031
outer loop
vertex 23.1211029443501 41.7704384377796 1.12798659301916e-014
vertex 23.2924563432159 40.5311198463845 -12.0
vertex 23.2924563432159 40.5311198463845 1.12798659301916e-014
endloop
endfacet
facet normal -0.999978917853414 -0.00649336959645037 2.60409562319218e-031
outer loop
vertex 23.2924563432159 40.5311198463845 -12.0
vertex 23.1211029443501 41.7704384377796 1.12798659301916e-014
vertex 23.1211029443501 41.7704384377796 -12.0
endloop
endfacet
facet normal -0.999978917853414 -0.00649336959645037 2.60409562319218e-031
outer loop
vertex 23.2924563432159 40.5311198463845 1.12798659301916e-014
vertex 23.1372117622001 39.2896804888863 -12.0
vertex 23.1372117622001 39.2896804888863 1.12798659301916e-014
endloop
endfacet
facet normal -0.967586070217658 0.252541475248621 2.22103828683527e-031
outer loop
vertex 23.1372117622001 39.2896804888863 -12.0
vertex 23.2924563432159 40.5311198463845 1.12798659301916e-014
vertex 23.2924563432159 40.5311198463845 -12.0
endloop
endfacet
facet normal -0.967586070217658 0.252541475248621 2.22103828683527e-031
outer loop
vertex 23.1372117622001 39.2896804888863 1.12798659301916e-014
vertex 22.6659488629451 38.1307224059229 -12.0
vertex 22.6659488629451 38.1307224059229 1.12798659301916e-014
endloop
endfacet
facet normal -0.869253830908154 0.494366035900019 1.68662086166986e-031
outer loop
vertex 22.6659488629451 38.1307224059229 -12.0
vertex 23.1372117622001 39.2896804888863 1.12798659301916e-014
vertex 23.1372117622001 39.2896804888863 -12.0
endloop
endfacet
facet normal -0.869253830908154 0.494366035900019 1.68662086166986e-031
outer loop
vertex 22.6659488629451 38.1307224059229 1.12798659301916e-014
vertex 21.9107834332364 37.1332266755795 -12.0
vertex 21.9107834332364 37.1332266755795 1.12798659301916e-014
endloop
endfacet
facet normal -0.711683379532136 0.702500368183333 1.03726301205441e-031
outer loop
vertex 21.9107834332364 37.1332266755795 -12.0
vertex 22.6659488629451 38.1307224059229 1.12798659301916e-014
vertex 22.6659488629451 38.1307224059229 -12.0
endloop
endfacet
facet normal -0.505612881953394 0.862760461311704 3.17217402325614e-032
outer loop
vertex 20.9231787491388 36.3651709834394 1.12798659301916e-014
vertex 21.9107834332364 37.1332266755795 -12.0
vertex 20.9231787491388 36.3651709834394 -12.0
endloop
endfacet
facet normal -0.711683379532136 0.702500368183333 1.03726301205441e-031
outer loop
vertex 21.9107834332364 37.1332266755795 -12.0
vertex 20.9231787491388 36.3651709834394 1.12798659301916e-014
vertex 21.9107834332364 37.1332266755795 1.12798659301916e-014
endloop
endfacet
facet normal -0.265085702034324 0.964224854780756 -4.24446049145119e-032
outer loop
vertex 19.7704384377796 35.8788970556499 1.12798659301916e-014
vertex 20.9231787491388 36.3651709834394 -12.0
vertex 19.7704384377796 35.8788970556499 -12.0
endloop
endfacet
facet normal -0.505612881953394 0.862760461311704 3.17217402325614e-032
outer loop
vertex 20.9231787491388 36.3651709834394 -12.0
vertex 19.7704384377796 35.8788970556499 1.12798659301916e-014
vertex 20.9231787491388 36.3651709834394 1.12798659301916e-014
endloop
endfacet
facet normal -0.00649336959645206 0.999978917853414 -1.13718420379687e-031
outer loop
vertex 18.5311198463845 35.7075436567841 1.12798659301916e-014
vertex 19.7704384377796 35.8788970556499 -12.0
vertex 18.5311198463845 35.7075436567841 -12.0
endloop
endfacet
facet normal -0.265085702034324 0.964224854780756 -4.24446049145119e-032
outer loop
vertex 19.7704384377796 35.8788970556499 -12.0
vertex 18.5311198463845 35.7075436567841 1.12798659301916e-014
vertex 19.7704384377796 35.8788970556499 1.12798659301916e-014
endloop
endfacet
facet normal 0.252541475248621 0.967586070217658 -1.77242513424562e-031
outer loop
vertex 17.2896804888863 35.8627882377999 1.12798659301916e-014
vertex 18.5311198463845 35.7075436567841 -12.0
vertex 17.2896804888863 35.8627882377999 -12.0
endloop
endfacet
facet normal -0.00649336959645206 0.999978917853414 -1.13718420379687e-031
outer loop
vertex 18.5311198463845 35.7075436567841 -12.0
vertex 17.2896804888863 35.8627882377999 1.12798659301916e-014
vertex 18.5311198463845 35.7075436567841 1.12798659301916e-014
endloop
endfacet
facet normal 0.49436603590002 0.869253830908153 -2.28687822086656e-031
outer loop
vertex 16.1307224059229 36.3340511370549 1.12798659301916e-014
vertex 17.2896804888863 35.8627882377999 -12.0
vertex 16.1307224059229 36.3340511370549 -12.0
endloop
endfacet
facet normal 0.252541475248621 0.967586070217658 -1.77242513424562e-031
outer loop
vertex 17.2896804888863 35.8627882377999 -12.0
vertex 16.1307224059229 36.3340511370549 1.12798659301916e-014
vertex 17.2896804888863 35.8627882377999 1.12798659301916e-014
endloop
endfacet
facet normal 0.702500368183334 0.711683379532134 -2.64548433598039e-031
outer loop
vertex 15.1332266755795 37.0892165667636 1.12798659301916e-014
vertex 16.1307224059229 36.3340511370549 -12.0
vertex 15.1332266755795 37.0892165667636 -12.0
endloop
endfacet
facet normal 0.49436603590002 0.869253830908153 -2.28687822086656e-031
outer loop
vertex 16.1307224059229 36.3340511370549 -12.0
vertex 15.1332266755795 37.0892165667636 1.12798659301916e-014
vertex 16.1307224059229 36.3340511370549 1.12798659301916e-014
endloop
endfacet
facet normal 0.862760461311703 0.505612881953394 -2.82380506546673e-031
outer loop
vertex 14.3651709834394 38.0768212508612 -12.0
vertex 15.1332266755795 37.0892165667636 1.12798659301916e-014
vertex 15.1332266755795 37.0892165667636 -12.0
endloop
endfacet
facet normal 0.702500368183334 0.711683379532134 -2.64548433598039e-031
outer loop
vertex 15.1332266755795 37.0892165667636 1.12798659301916e-014
vertex 14.3651709834394 38.0768212508612 -12.0
vertex 14.3651709834394 38.0768212508612 1.12798659301916e-014
endloop
endfacet
facet normal 0.964224854780756 0.265085702034325 -2.80968814630003e-031
outer loop
vertex 13.8788970556499 39.2295615622204 -12.0
vertex 14.3651709834394 38.0768212508612 1.12798659301916e-014
vertex 14.3651709834394 38.0768212508612 -12.0
endloop
endfacet
facet normal 0.862760461311703 0.505612881953394 -2.82380506546673e-031
outer loop
vertex 14.3651709834394 38.0768212508612 1.12798659301916e-014
vertex 13.8788970556499 39.2295615622204 -12.0
vertex 13.8788970556499 39.2295615622204 1.12798659301916e-014
endloop
endfacet
facet normal 0.999978917853414 0.00649336959644953 -2.60409562319218e-031
outer loop
vertex 13.7075436567841 40.4688801536155 -12.0
vertex 13.8788970556499 39.2295615622204 1.12798659301916e-014
vertex 13.8788970556499 39.2295615622204 -12.0
endloop
endfacet
facet normal 0.964224854780756 0.265085702034325 -2.80968814630003e-031
outer loop
vertex 13.8788970556499 39.2295615622204 1.12798659301916e-014
vertex 13.7075436567841 40.4688801536155 -12.0
vertex 13.7075436567841 40.4688801536155 1.12798659301916e-014
endloop
endfacet
facet normal 0.967586070217658 -0.252541475248621 -2.22103828683527e-031
outer loop
vertex 13.8627882377999 41.7103195111137 -12.0
vertex 13.7075436567841 40.4688801536155 1.12798659301916e-014
vertex 13.7075436567841 40.4688801536155 -12.0
endloop
endfacet
facet normal 0.999978917853414 0.00649336959644953 -2.60409562319218e-031
outer loop
vertex 13.7075436567841 40.4688801536155 1.12798659301916e-014
vertex 13.8627882377999 41.7103195111137 -12.0
vertex 13.8627882377999 41.7103195111137 1.12798659301916e-014
endloop
endfacet
facet normal 0.869253830908154 -0.494366035900019 -1.68662086166986e-031
outer loop
vertex 14.3340511370549 42.8692775940771 -12.0
vertex 13.8627882377999 41.7103195111137 1.12798659301916e-014
vertex 13.8627882377999 41.7103195111137 -12.0
endloop
endfacet
facet normal 0.967586070217658 -0.252541475248621 -2.22103828683527e-031
outer loop
vertex 13.8627882377999 41.7103195111137 1.12798659301916e-014
vertex 14.3340511370549 42.8692775940771 -12.0
vertex 14.3340511370549 42.8692775940771 1.12798659301916e-014
endloop
endfacet
facet normal 0.711683379532136 -0.702500368183333 -1.03726301205441e-031
outer loop
vertex 15.0892165667636 43.8667733244205 -12.0
vertex 14.3340511370549 42.8692775940771 1.12798659301916e-014
vertex 14.3340511370549 42.8692775940771 -12.0
endloop
endfacet
facet normal 0.869253830908154 -0.494366035900019 -1.68662086166986e-031
outer loop
vertex 14.3340511370549 42.8692775940771 1.12798659301916e-014
vertex 15.0892165667636 43.8667733244205 -12.0
vertex 15.0892165667636 43.8667733244205 1.12798659301916e-014
endloop
endfacet
facet normal -0.325700632980794 -0.945472949203683 -1.42197441435205e-016
outer loop
vertex -22.0171735757932 16.1273141357083 0.0
vertex -22.5927334439087 16.2444970996495 -12.0
vertex -22.0171735757932 16.1273141357083 -12.0
endloop
endfacet
facet normal -0.0698962471516846 -0.997554266510906 -1.50030378457782e-016
outer loop
vertex -22.5927334439087 16.2444970996495 -12.0
vertex -22.0171735757932 16.1273141357083 0.0
vertex -22.5927334439087 16.2444970996495 0.0
endloop
endfacet
facet normal -0.0698962471516846 -0.997554266510906 -1.50030378457782e-016
outer loop
vertex -22.5927334439087 16.2444970996495 0.0
vertex -23.1790107679265 16.2087212954565 -12.0
vertex -22.5927334439087 16.2444970996495 -12.0
endloop
endfacet
facet normal 0.190671452411802 -0.981653909091781 -1.47638993125384e-016
outer loop
vertex -23.1790107679265 16.2087212954565 -12.0
vertex -22.5927334439087 16.2444970996495 0.0
vertex -23.1790107679265 16.2087212954565 0.0
endloop
endfacet
facet normal 0.190671452411802 -0.981653909091781 -1.47638993125384e-016
outer loop
vertex -23.1790107679265 16.2087212954565 0.0
vertex -23.736051717084 16.0224247850626 -12.0
vertex -23.1790107679265 16.2087212954565 -12.0
endloop
endfacet
facet normal 0.438245207592899 -0.898855460027838 -1.35186254396463e-016
outer loop
vertex -23.736051717084 16.0224247850626 -12.0
vertex -23.1790107679265 16.2087212954565 0.0
vertex -23.736051717084 16.0224247850626 0.0
endloop
endfacet
facet normal 0.438245207592899 -0.898855460027838 -1.35186254396463e-016
outer loop
vertex -23.736051717084 16.0224247850626 0.0
vertex -24.2258948712497 15.6983033677817 -12.0
vertex -23.736051717084 16.0224247850626 -12.0
endloop
endfacet
facet normal 0.655953276110987 -0.75480149679188 -1.13520795836271e-016
outer loop
vertex -24.2258948712497 15.6983033677817 -12.0
vertex -23.736051717084 16.0224247850626 0.0
vertex -24.2258948712497 15.6983033677817 0.0
endloop
endfacet
facet normal 0.655953276110987 -0.75480149679188 -1.13520795836271e-016
outer loop
vertex -24.2258948712497 15.6983033677817 -12.0
vertex -24.6151582289713 15.2584453825655 0.0
vertex -24.6151582289713 15.2584453825655 -12.0
endloop
endfacet
facet normal 0.828959212876155 -0.559309058918007 -8.41190826418233e-017
outer loop
vertex -24.6151582289713 15.2584453825655 0.0
vertex -24.2258948712497 15.6983033677817 -12.0
vertex -24.2258948712497 15.6983033677817 0.0
endloop
endfacet
facet normal 0.828959212876155 -0.559309058918007 -8.41190826418233e-017
outer loop
vertex -24.6151582289713 15.2584453825655 -12.0
vertex -24.8773141357083 14.7328264242068 0.0
vertex -24.8773141357083 14.7328264242068 -12.0
endloop
endfacet
facet normal 0.945472949203684 -0.325700632980793 -4.89847929786918e-017
outer loop
vertex -24.8773141357083 14.7328264242068 0.0
vertex -24.6151582289713 15.2584453825655 -12.0
vertex -24.6151582289713 15.2584453825655 0.0
endloop
endfacet
facet normal 0.945472949203684 -0.325700632980793 -4.89847929786918e-017
outer loop
vertex -24.8773141357083 14.7328264242068 -12.0
vertex -24.9944970996495 14.1572665560913 0.0
vertex -24.9944970996495 14.1572665560913 -12.0
endloop
endfacet
facet normal 0.997554266510906 -0.069896247151682 -1.05122706252601e-017
outer loop
vertex -24.9944970996495 14.1572665560913 0.0
vertex -24.8773141357083 14.7328264242068 -12.0
vertex -24.8773141357083 14.7328264242068 0.0
endloop
endfacet
facet normal 0.997554266510906 -0.069896247151682 -1.05122706252601e-017
outer loop
vertex -24.9944970996495 14.1572665560913 -12.0
vertex -24.9587212954565 13.5709892320734 0.0
vertex -24.9587212954565 13.5709892320734 -12.0
endloop
endfacet
facet normal 0.981653909091781 0.190671452411802 2.86766455989337e-017
outer loop
vertex -24.9587212954565 13.5709892320734 0.0
vertex -24.9944970996495 14.1572665560913 -12.0
vertex -24.9944970996495 14.1572665560913 0.0
endloop
endfacet
facet normal 0.981653909091781 0.190671452411802 2.86766455989337e-017
outer loop
vertex -24.9587212954565 13.5709892320734 -12.0
vertex -24.7724247850626 13.013948282916 0.0
vertex -24.7724247850626 13.013948282916 -12.0
endloop
endfacet
facet normal 0.898855460027839 0.438245207592898 6.59112958159583e-017
outer loop
vertex -24.7724247850626 13.013948282916 0.0
vertex -24.9587212954565 13.5709892320734 -12.0
vertex -24.9587212954565 13.5709892320734 0.0
endloop
endfacet
facet normal 0.898855460027839 0.438245207592898 6.59112958159583e-017
outer loop
vertex -24.7724247850626 13.013948282916 -12.0
vertex -24.4483033677817 12.5241051287503 0.0
vertex -24.4483033677817 12.5241051287503 -12.0
endloop
endfacet
facet normal 0.754801496791879 0.655953276110989 9.8654200146692e-017
outer loop
vertex -24.4483033677817 12.5241051287503 0.0
vertex -24.7724247850626 13.013948282916 -12.0
vertex -24.7724247850626 13.013948282916 0.0
endloop
endfacet
facet normal 0.754801496791879 0.655953276110989 9.8654200146692e-017
outer loop
vertex -24.4483033677817 12.5241051287503 0.0
vertex -24.0084453825655 12.1348417710287 -12.0
vertex -24.4483033677817 12.5241051287503 -12.0
endloop
endfacet
facet normal 0.559309058918007 0.828959212876154 1.24673983771202e-016
outer loop
vertex -24.0084453825655 12.1348417710287 -12.0
vertex -24.4483033677817 12.5241051287503 0.0
vertex -24.0084453825655 12.1348417710287 0.0
endloop
endfacet
facet normal 0.559309058918007 0.828959212876154 1.24673983771202e-016
outer loop
vertex -24.0084453825655 12.1348417710287 0.0
vertex -23.4828264242068 11.8726858642917 -12.0
vertex -24.0084453825655 12.1348417710287 -12.0
endloop
endfacet
facet normal 0.325700632980793 0.945472949203683 1.42197441435205e-016
outer loop
vertex -23.4828264242068 11.8726858642917 -12.0
vertex -24.0084453825655 12.1348417710287 0.0
vertex -23.4828264242068 11.8726858642917 0.0
endloop
endfacet
facet normal 0.325700632980793 0.945472949203683 1.42197441435205e-016
outer loop
vertex -23.4828264242068 11.8726858642917 0.0
vertex -22.9072665560913 11.7555029003505 -12.0
vertex -23.4828264242068 11.8726858642917 -12.0
endloop
endfacet
facet normal 0.0698962471516839 0.997554266510906 1.50030378457782e-016
outer loop
vertex -22.9072665560913 11.7555029003505 -12.0
vertex -23.4828264242068 11.8726858642917 0.0
vertex -22.9072665560913 11.7555029003505 0.0
endloop
endfacet
facet normal 0.0698962471516839 0.997554266510906 1.50030378457782e-016
outer loop
vertex -22.9072665560913 11.7555029003505 0.0
vertex -22.3209892320734 11.7912787045435 -12.0
vertex -22.9072665560913 11.7555029003505 -12.0
endloop
endfacet
facet normal -0.190671452411802 0.981653909091781 1.47638993125384e-016
outer loop
vertex -22.3209892320734 11.7912787045435 -12.0
vertex -22.9072665560913 11.7555029003505 0.0
vertex -22.3209892320734 11.7912787045435 0.0
endloop
endfacet
facet normal -0.190671452411802 0.981653909091781 1.47638993125384e-016
outer loop
vertex -22.3209892320734 11.7912787045435 0.0
vertex -21.763948282916 11.9775752149374 -12.0
vertex -22.3209892320734 11.7912787045435 -12.0
endloop
endfacet
facet normal -0.438245207592899 0.898855460027839 1.35186254396463e-016
outer loop
vertex -21.763948282916 11.9775752149374 -12.0
vertex -22.3209892320734 11.7912787045435 0.0
vertex -21.763948282916 11.9775752149374 0.0
endloop
endfacet
facet normal -0.438245207592899 0.898855460027839 1.35186254396463e-016
outer loop
vertex -21.763948282916 11.9775752149374 0.0
vertex -21.2741051287503 12.3016966322183 -12.0
vertex -21.763948282916 11.9775752149374 -12.0
endloop
endfacet
facet normal -0.655953276110987 0.75480149679188 1.13520795836271e-016
outer loop
vertex -21.2741051287503 12.3016966322183 -12.0
vertex -21.763948282916 11.9775752149374 0.0
vertex -21.2741051287503 12.3016966322183 0.0
endloop
endfacet
facet normal -0.828959212876154 0.559309058918007 8.41190826418234e-017
outer loop
vertex -20.8848417710286 12.7415546174345 0.0
vertex -21.2741051287503 12.3016966322183 -12.0
vertex -21.2741051287503 12.3016966322183 0.0
endloop
endfacet
facet normal -0.655953276110987 0.75480149679188 1.13520795836271e-016
outer loop
vertex -21.2741051287503 12.3016966322183 -12.0
vertex -20.8848417710286 12.7415546174345 0.0
vertex -20.8848417710286 12.7415546174345 -12.0
endloop
endfacet
facet normal -0.945472949203684 0.325700632980793 4.89847929786918e-017
outer loop
vertex -20.6226858642917 13.2671735757932 0.0
vertex -20.8848417710286 12.7415546174345 -12.0
vertex -20.8848417710286 12.7415546174345 0.0
endloop
endfacet
facet normal -0.828959212876154 0.559309058918007 8.41190826418234e-017
outer loop
vertex -20.8848417710286 12.7415546174345 -12.0
vertex -20.6226858642917 13.2671735757932 0.0
vertex -20.6226858642917 13.2671735757932 -12.0
endloop
endfacet
facet normal -0.997554266510906 0.069896247151682 1.05122706252601e-017
outer loop
vertex -20.5055029003505 13.8427334439087 0.0
vertex -20.6226858642917 13.2671735757932 -12.0
vertex -20.6226858642917 13.2671735757932 0.0
endloop
endfacet
facet normal -0.945472949203684 0.325700632980793 4.89847929786918e-017
outer loop
vertex -20.6226858642917 13.2671735757932 -12.0
vertex -20.5055029003505 13.8427334439087 0.0
vertex -20.5055029003505 13.8427334439087 -12.0
endloop
endfacet
facet normal -0.981653909091781 -0.190671452411803 -2.86766455989338e-017
outer loop
vertex -20.5412787045435 14.4290107679265 0.0
vertex -20.5055029003505 13.8427334439087 -12.0
vertex -20.5055029003505 13.8427334439087 0.0
endloop
endfacet
facet normal -0.997554266510906 0.069896247151682 1.05122706252601e-017
outer loop
vertex -20.5055029003505 13.8427334439087 -12.0
vertex -20.5412787045435 14.4290107679265 0.0
vertex -20.5412787045435 14.4290107679265 -12.0
endloop
endfacet
facet normal -0.898855460027839 -0.438245207592897 -6.59112958159581e-017
outer loop
vertex -20.7275752149374 14.986051717084 0.0
vertex -20.5412787045435 14.4290107679265 -12.0
vertex -20.5412787045435 14.4290107679265 0.0
endloop
endfacet
facet normal -0.981653909091781 -0.190671452411803 -2.86766455989338e-017
outer loop
vertex -20.5412787045435 14.4290107679265 -12.0
vertex -20.7275752149374 14.986051717084 0.0
vertex -20.7275752149374 14.986051717084 -12.0
endloop
endfacet
facet normal -0.75480149679188 -0.655953276110987 -9.86542001466917e-017
outer loop
vertex -21.0516966322183 15.4758948712497 0.0
vertex -20.7275752149374 14.986051717084 -12.0
vertex -20.7275752149374 14.986051717084 0.0
endloop
endfacet
facet normal -0.898855460027839 -0.438245207592897 -6.59112958159581e-017
outer loop
vertex -20.7275752149374 14.986051717084 -12.0
vertex -21.0516966322183 15.4758948712497 0.0
vertex -21.0516966322183 15.4758948712497 -12.0
endloop
endfacet
facet normal -0.75480149679188 -0.655953276110987 -9.86542001466917e-017
outer loop
vertex -21.0516966322183 15.4758948712497 0.0
vertex -21.4915546174345 15.8651582289713 -12.0
vertex -21.0516966322183 15.4758948712497 -12.0
endloop
endfacet
facet normal -0.559309058918008 -0.828959212876154 -1.24673983771202e-016
outer loop
vertex -21.4915546174345 15.8651582289713 -12.0
vertex -21.0516966322183 15.4758948712497 0.0
vertex -21.4915546174345 15.8651582289713 0.0
endloop
endfacet
facet normal -0.559309058918008 -0.828959212876154 -1.24673983771202e-016
outer loop
vertex -21.4915546174345 15.8651582289713 0.0
vertex -22.0171735757932 16.1273141357083 -12.0
vertex -21.4915546174345 15.8651582289713 -12.0
endloop
endfacet
facet normal -0.325700632980794 -0.945472949203683 -1.42197441435205e-016
outer loop
vertex -22.0171735757932 16.1273141357083 -12.0
vertex -21.4915546174345 15.8651582289713 0.0
vertex -22.0171735757932 16.1273141357083 0.0
endloop
endfacet
facet normal 0.965925826289069 -0.25881904510252 -3.89259217191552e-017
outer loop
vertex 20.5766668908496 14.5823428514807 -12.0
vertex 20.5 14.0 0.0
vertex 20.5 14.0 -12.0
endloop
endfacet
facet normal 1.0 0.0 7.91465550488982e-033
outer loop
vertex 20.5 14.0 0.0
vertex 20.5766668908496 14.5823428514807 -12.0
vertex 20.5766668908496 14.5823428514807 0.0
endloop
endfacet
facet normal 1.0 0.0 7.91465550488982e-033
outer loop
vertex 20.5 14.0 -12.0
vertex 20.5766668908496 13.4176571485193 0.0
vertex 20.5766668908496 13.4176571485193 -12.0
endloop
endfacet
facet normal 0.965925826289068 0.258819045102522 3.89259217191555e-017
outer loop
vertex 20.5766668908496 13.4176571485193 0.0
vertex 20.5 14.0 -12.0
vertex 20.5 14.0 0.0
endloop
endfacet
facet normal 0.965925826289068 0.258819045102522 3.89259217191555e-017
outer loop
vertex 20.5766668908496 13.4176571485193 -12.0
vertex 20.801442841485 12.875 0.0
vertex 20.801442841485 12.875 -12.0
endloop
endfacet
facet normal 0.866025403784439 0.5 7.51991062012772e-017
outer loop
vertex 20.801442841485 12.875 0.0
vertex 20.5766668908496 13.4176571485193 -12.0
vertex 20.5766668908496 13.4176571485193 0.0
endloop
endfacet
facet normal 0.866025403784439 0.5 7.51991062012772e-017
outer loop
vertex 20.801442841485 12.875 -12.0
vertex 21.1590097423303 12.4090097423303 0.0
vertex 21.1590097423303 12.4090097423303 -12.0
endloop
endfacet
facet normal 0.707106781186548 0.707106781186547 1.06347595868181e-016
outer loop
vertex 21.1590097423303 12.4090097423303 0.0
vertex 20.801442841485 12.875 -12.0
vertex 20.801442841485 12.875 0.0
endloop
endfacet
facet normal 0.707106781186548 0.707106781186547 1.06347595868181e-016
outer loop
vertex 21.1590097423303 12.4090097423303 0.0
vertex 21.625 12.051442841485 -12.0
vertex 21.1590097423303 12.4090097423303 -12.0
endloop
endfacet
facet normal 0.499999999999999 0.866025403784439 1.3024867262438e-016
outer loop
vertex 21.625 12.051442841485 -12.0
vertex 21.1590097423303 12.4090097423303 0.0
vertex 21.625 12.051442841485 0.0
endloop
endfacet
facet normal 0.499999999999999 0.866025403784439 1.3024867262438e-016
outer loop
vertex 21.625 12.051442841485 0.0
vertex 22.1676571485193 11.8266668908496 -12.0
vertex 21.625 12.051442841485 -12.0
endloop
endfacet
facet normal 0.25881904510252 0.965925826289068 1.45273517587336e-016
outer loop
vertex 22.1676571485193 11.8266668908496 -12.0
vertex 21.625 12.051442841485 0.0
vertex 22.1676571485193 11.8266668908496 0.0
endloop
endfacet
facet normal 0.25881904510252 0.965925826289068 1.45273517587336e-016
outer loop
vertex 22.1676571485193 11.8266668908496 0.0
vertex 22.75 11.75 -12.0
vertex 22.1676571485193 11.8266668908496 -12.0
endloop
endfacet
facet normal 3.38622176034582e-016 1.0 1.50398212402555e-016
outer loop
vertex 22.75 11.75 -12.0
vertex 22.1676571485193 11.8266668908496 0.0
vertex 22.75 11.75 0.0
endloop
endfacet
facet normal 3.38622176034582e-016 1.0 1.50398212402555e-016
outer loop
vertex 22.75 11.75 0.0
vertex 23.3323428514807 11.8266668908496 -12.0
vertex 22.75 11.75 -12.0
endloop
endfacet
facet normal -0.258819045102521 0.965925826289068 1.45273517587336e-016
outer loop
vertex 23.3323428514807 11.8266668908496 -12.0
vertex 22.75 11.75 0.0
vertex 23.3323428514807 11.8266668908496 0.0
endloop
endfacet
facet normal -0.258819045102521 0.965925826289068 1.45273517587336e-016
outer loop
vertex 23.3323428514807 11.8266668908496 0.0
vertex 23.875 12.051442841485 -12.0
vertex 23.3323428514807 11.8266668908496 -12.0
endloop
endfacet
facet normal -0.500000000000001 0.866025403784438 1.3024867262438e-016
outer loop
vertex 23.875 12.051442841485 -12.0
vertex 23.3323428514807 11.8266668908496 0.0
vertex 23.875 12.051442841485 0.0
endloop
endfacet
facet normal -0.500000000000001 0.866025403784438 1.3024867262438e-016
outer loop
vertex 23.875 12.051442841485 0.0
vertex 24.3409902576697 12.4090097423303 -12.0
vertex 23.875 12.051442841485 -12.0
endloop
endfacet
facet normal -0.707106781186547 0.707106781186548 1.06347595868181e-016
outer loop
vertex 24.3409902576697 12.4090097423303 -12.0
vertex 23.875 12.051442841485 0.0
vertex 24.3409902576697 12.4090097423303 0.0
endloop
endfacet
facet normal -0.866025403784438 0.500000000000001 7.51991062012774e-017
outer loop
vertex 24.698557158515 12.875 0.0
vertex 24.3409902576697 12.4090097423303 -12.0
vertex 24.3409902576697 12.4090097423303 0.0
endloop
endfacet
facet normal -0.707106781186547 0.707106781186548 1.06347595868181e-016
outer loop
vertex 24.3409902576697 12.4090097423303 -12.0
vertex 24.698557158515 12.875 0.0
vertex 24.698557158515 12.875 -12.0
endloop
endfacet
facet normal -0.965925826289069 0.258819045102519 3.89259217191551e-017
outer loop
vertex 24.9233331091504 13.4176571485193 0.0
vertex 24.698557158515 12.875 -12.0
vertex 24.698557158515 12.875 0.0
endloop
endfacet
facet normal -0.866025403784438 0.500000000000001 7.51991062012774e-017
outer loop
vertex 24.698557158515 12.875 -12.0
vertex 24.9233331091504 13.4176571485193 0.0
vertex 24.9233331091504 13.4176571485193 -12.0
endloop
endfacet
facet normal -1.0 -2.06737749579008e-015 -3.2252221182426e-031
outer loop
vertex 25.0 14.0 0.0
vertex 24.9233331091504 13.4176571485193 -12.0
vertex 24.9233331091504 13.4176571485193 0.0
endloop
endfacet
facet normal -0.965925826289069 0.258819045102519 3.89259217191551e-017
outer loop
vertex 24.9233331091504 13.4176571485193 -12.0
vertex 25.0 14.0 0.0
vertex 25.0 14.0 -12.0
endloop
endfacet
facet normal -0.965925826289068 -0.258819045102522 -3.89259217191555e-017
outer loop
vertex 24.9233331091504 14.5823428514807 0.0
vertex 25.0 14.0 -12.0
vertex 25.0 14.0 0.0
endloop
endfacet
facet normal -1.0 -2.06737749579008e-015 -3.2252221182426e-031
outer loop
vertex 25.0 14.0 -12.0
vertex 24.9233331091504 14.5823428514807 0.0
vertex 24.9233331091504 14.5823428514807 -12.0
endloop
endfacet
facet normal -0.866025403784439 -0.5 -7.51991062012772e-017
outer loop
vertex 24.698557158515 15.125 0.0
vertex 24.9233331091504 14.5823428514807 -12.0
vertex 24.9233331091504 14.5823428514807 0.0
endloop
endfacet
facet normal -0.965925826289068 -0.258819045102522 -3.89259217191555e-017
outer loop
vertex 24.9233331091504 14.5823428514807 -12.0
vertex 24.698557158515 15.125 0.0
vertex 24.698557158515 15.125 -12.0
endloop
endfacet
facet normal -0.707106781186549 -0.707106781186546 -1.06347595868181e-016
outer loop
vertex 24.3409902576697 15.5909902576697 0.0
vertex 24.698557158515 15.125 -12.0
vertex 24.698557158515 15.125 0.0
endloop
endfacet
facet normal -0.866025403784439 -0.5 -7.51991062012772e-017
outer loop
vertex 24.698557158515 15.125 -12.0
vertex 24.3409902576697 15.5909902576697 0.0
vertex 24.3409902576697 15.5909902576697 -12.0
endloop
endfacet
facet normal -0.707106781186549 -0.707106781186546 -1.06347595868181e-016
outer loop
vertex 24.3409902576697 15.5909902576697 0.0
vertex 23.875 15.948557158515 -12.0
vertex 24.3409902576697 15.5909902576697 -12.0
endloop
endfacet
facet normal -0.499999999999998 -0.86602540378444 -1.3024867262438e-016
outer loop
vertex 23.875 15.948557158515 -12.0
vertex 24.3409902576697 15.5909902576697 0.0
vertex 23.875 15.948557158515 0.0
endloop
endfacet
facet normal -0.499999999999998 -0.86602540378444 -1.3024867262438e-016
outer loop
vertex 23.875 15.948557158515 0.0
vertex 23.3323428514807 16.1733331091504 -12.0
vertex 23.875 15.948557158515 -12.0
endloop
endfacet
facet normal -0.25881904510252 -0.965925826289069 -1.45273517587336e-016
outer loop
vertex 23.3323428514807 16.1733331091504 -12.0
vertex 23.875 15.948557158515 0.0
vertex 23.3323428514807 16.1733331091504 0.0
endloop
endfacet
facet normal -0.25881904510252 -0.965925826289069 -1.45273517587336e-016
outer loop
vertex 23.3323428514807 16.1733331091504 0.0
vertex 22.75 16.25 -12.0
vertex 23.3323428514807 16.1733331091504 -12.0
endloop
endfacet
facet normal -3.20799956243289e-016 -1.0 -1.50398212402555e-016
outer loop
vertex 22.75 16.25 -12.0
vertex 23.3323428514807 16.1733331091504 0.0
vertex 22.75 16.25 0.0
endloop
endfacet
facet normal -3.20799956243289e-016 -1.0 -1.50398212402555e-016
outer loop
vertex 22.75 16.25 0.0
vertex 22.1676571485193 16.1733331091504 -12.0
vertex 22.75 16.25 -12.0
endloop
endfacet
facet normal 0.258819045102522 -0.965925826289068 -1.45273517587336e-016
outer loop
vertex 22.1676571485193 16.1733331091504 -12.0
vertex 22.75 16.25 0.0
vertex 22.1676571485193 16.1733331091504 0.0
endloop
endfacet
facet normal 0.258819045102522 -0.965925826289068 -1.45273517587336e-016
outer loop
vertex 22.1676571485193 16.1733331091504 0.0
vertex 21.625 15.948557158515 -12.0
vertex 22.1676571485193 16.1733331091504 -12.0
endloop
endfacet
facet normal 0.5 -0.866025403784439 -1.3024867262438e-016
outer loop
vertex 21.625 15.948557158515 -12.0
vertex 22.1676571485193 16.1733331091504 0.0
vertex 21.625 15.948557158515 0.0
endloop
endfacet
facet normal 0.5 -0.866025403784439 -1.3024867262438e-016
outer loop
vertex 21.625 15.948557158515 0.0
vertex 21.1590097423303 15.5909902576697 -12.0
vertex 21.625 15.948557158515 -12.0
endloop
endfacet
facet normal 0.707106781186546 -0.707106781186549 -1.06347595868181e-016
outer loop
vertex 21.1590097423303 15.5909902576697 -12.0
vertex 21.625 15.948557158515 0.0
vertex 21.1590097423303 15.5909902576697 0.0
endloop
endfacet
facet normal 0.707106781186546 -0.707106781186549 -1.06347595868181e-016
outer loop
vertex 21.1590097423303 15.5909902576697 -12.0
vertex 20.801442841485 15.125 0.0
vertex 20.801442841485 15.125 -12.0
endloop
endfacet
facet normal 0.866025403784439 -0.499999999999999 -7.51991062012772e-017
outer loop
vertex 20.801442841485 15.125 0.0
vertex 21.1590097423303 15.5909902576697 -12.0
vertex 21.1590097423303 15.5909902576697 0.0
endloop
endfacet
facet normal 0.866025403784439 -0.499999999999999 -7.51991062012772e-017
outer loop
vertex 20.801442841485 15.125 -12.0
vertex 20.5766668908496 14.5823428514807 0.0
vertex 20.5766668908496 14.5823428514807 -12.0
endloop
endfacet
facet normal 0.965925826289069 -0.25881904510252 -3.89259217191552e-017
outer loop
vertex 20.5766668908496 14.5823428514807 0.0
vertex 20.801442841485 15.125 -12.0
vertex 20.801442841485 15.125 0.0
endloop
endfacet
endsolid konstruktion
