solid konstruktion
facet normal 4.16333634234434e-016 0.0 -1.0
outer loop
vertex -259.5 89.0 -10.5000000000001
vertex -73.5 0.0 -10.5000000000001
vertex -259.5 0.0 -10.5000000000001
endloop
endfacet
facet normal 4.16333634234434e-016 0.0 -1.0
outer loop
vertex -73.5 0.0 -10.5000000000001
vertex -259.5 89.0 -10.5000000000001
vertex -73.5 89.0 -10.5000000000001
endloop
endfacet
facet normal -1.0 0.0 -4.16333634234434e-016
outer loop
vertex -259.5 0.0 1.49999999999987
vertex -259.5 89.0 -10.5000000000001
vertex -259.5 0.0 -10.5000000000001
endloop
endfacet
facet normal -1.0 0.0 -4.16333634234434e-016
outer loop
vertex -259.5 89.0 -10.5000000000001
vertex -259.5 0.0 1.49999999999987
vertex -259.5 83.0 -4.5000000000001
endloop
endfacet
facet normal -1.0 0.0 -4.16333634234434e-016
outer loop
vertex -259.5 89.0 -10.5000000000001
vertex -259.5 83.0 -4.5000000000001
vertex -259.5 89.0 -4.50000000000012
endloop
endfacet
facet normal -1.0 0.0 -4.16333634234434e-016
outer loop
vertex -259.5 83.0 -4.5000000000001
vertex -259.5 0.0 1.49999999999987
vertex -259.5 83.0 1.49999999999989
endloop
endfacet
facet normal -1.0 0.0 -4.16333634234434e-016
outer loop
vertex -259.5 83.0 1.49999999999989
vertex -259.5 0.0 1.49999999999987
vertex -259.5 77.0 1.49999999999989
endloop
endfacet
facet normal -4.16333634234434e-016 -2.92983530654327e-016 1.0
outer loop
vertex -79.5 77.0 1.49999999999996
vertex -81.0000000000001 0.0 1.49999999999994
vertex -79.5 0.0 1.49999999999994
endloop
endfacet
facet normal -4.16333634234434e-016 -2.92983530654327e-016 1.0
outer loop
vertex -81.0000000000001 0.0 1.49999999999994
vertex -79.5 77.0 1.49999999999996
vertex -87.0000000000001 0.0 1.49999999999994
endloop
endfacet
facet normal -4.16333634234434e-016 -2.92983530654327e-016 1.0
outer loop
vertex -87.0000000000001 0.0 1.49999999999994
vertex -79.5 77.0 1.49999999999996
vertex -259.5 0.0 1.49999999999987
endloop
endfacet
facet normal -4.16333634234434e-016 -2.92983530654327e-016 1.0
outer loop
vertex -259.5 0.0 1.49999999999987
vertex -79.5 77.0 1.49999999999996
vertex -259.5 77.0 1.49999999999989
endloop
endfacet
facet normal -4.16333634234434e-016 0.0 1.0
outer loop
vertex -79.5 83.0 1.49999999999996
vertex -259.5 77.0 1.49999999999989
vertex -79.5 77.0 1.49999999999996
endloop
endfacet
facet normal -4.16333634234434e-016 0.0 1.0
outer loop
vertex -259.5 77.0 1.49999999999989
vertex -79.5 83.0 1.49999999999996
vertex -259.5 83.0 1.49999999999989
endloop
endfacet
facet normal 7.82697929398971e-031 1.0 -1.87997765503193e-015
outer loop
vertex -259.5 89.0 -10.5000000000001
vertex -73.5 89.0 -4.50000000000004
vertex -73.5 89.0 -10.5000000000001
endloop
endfacet
facet normal 7.82697929398971e-031 1.0 -1.87997765503193e-015
outer loop
vertex -73.5 89.0 -4.50000000000004
vertex -259.5 89.0 -10.5000000000001
vertex -259.5 89.0 -4.50000000000012
endloop
endfacet
facet normal -4.16333634234434e-016 1.87997765503193e-015 1.0
outer loop
vertex -73.5 89.0 -4.50000000000004
vertex -79.5 83.0 -4.50000000000002
vertex -73.5 83.0 -4.50000000000002
endloop
endfacet
facet normal -4.16333634234434e-016 1.87997765503193e-015 1.0
outer loop
vertex -79.5 83.0 -4.50000000000002
vertex -73.5 89.0 -4.50000000000004
vertex -259.5 83.0 -4.5000000000001
endloop
endfacet
facet normal -4.16333634234434e-016 1.87997765503193e-015 1.0
outer loop
vertex -259.5 83.0 -4.5000000000001
vertex -73.5 89.0 -4.50000000000004
vertex -259.5 89.0 -4.50000000000012
endloop
endfacet
facet normal 0.0 1.0 0.0
outer loop
vertex -259.5 83.0 -4.5000000000001
vertex -79.5 83.0 1.49999999999996
vertex -79.5 83.0 -4.50000000000002
endloop
endfacet
facet normal 0.0 1.0 0.0
outer loop
vertex -79.5 83.0 1.49999999999996
vertex -259.5 83.0 -4.5000000000001
vertex -259.5 83.0 1.49999999999989
endloop
endfacet
facet normal -0.0 -1.0 0.0
outer loop
vertex -87.0 0.0 -1.50000000000007
vertex -79.5 0.0 -4.50000000000002
vertex -79.5 0.0 -1.50000000000006
endloop
endfacet
facet normal -0.0 -1.0 0.0
outer loop
vertex -259.5 0.0 1.49999999999987
vertex -87.0 0.0 -1.50000000000007
vertex -87.0000000000001 0.0 1.49999999999994
endloop
endfacet
facet normal -0.0 -1.0 0.0
outer loop
vertex -79.5 0.0 -4.50000000000002
vertex -73.5 0.0 -10.5000000000001
vertex -73.5 0.0 -4.50000000000002
endloop
endfacet
facet normal -0.0 -1.0 0.0
outer loop
vertex -73.5 0.0 -10.5000000000001
vertex -79.5 0.0 -4.50000000000002
vertex -259.5 0.0 -10.5000000000001
endloop
endfacet
facet normal -0.0 -1.0 0.0
outer loop
vertex -259.5 0.0 -10.5000000000001
vertex -79.5 0.0 -4.50000000000002
vertex -87.0 0.0 -1.50000000000007
endloop
endfacet
facet normal -0.0 -1.0 0.0
outer loop
vertex -259.5 0.0 -10.5000000000001
vertex -87.0 0.0 -1.50000000000007
vertex -259.5 0.0 1.49999999999987
endloop
endfacet
facet normal 1.0 0.0 4.16333634234434e-016
outer loop
vertex -79.5 83.0 1.49999999999996
vertex -79.5 0.0 -4.50000000000002
vertex -79.5 83.0 -4.50000000000002
endloop
endfacet
facet normal 1.0 0.0 4.16333634234434e-016
outer loop
vertex -79.5 0.0 -4.50000000000002
vertex -79.5 83.0 1.49999999999996
vertex -79.5 0.0 -1.50000000000006
endloop
endfacet
facet normal 1.0 0.0 4.16333634234434e-016
outer loop
vertex -79.5 0.0 -1.50000000000006
vertex -79.5 83.0 1.49999999999996
vertex -79.5 0.0 1.49999999999994
endloop
endfacet
facet normal 1.0 0.0 4.16333634234434e-016
outer loop
vertex -79.5 0.0 1.49999999999994
vertex -79.5 83.0 1.49999999999996
vertex -79.5 77.0 1.49999999999996
endloop
endfacet
facet normal -4.16333634234434e-016 0.0 1.0
outer loop
vertex -73.5 83.0 -4.50000000000002
vertex -79.5 0.0 -4.50000000000002
vertex -73.5 0.0 -4.50000000000002
endloop
endfacet
facet normal -4.16333634234434e-016 0.0 1.0
outer loop
vertex -79.5 0.0 -4.50000000000002
vertex -73.5 83.0 -4.50000000000002
vertex -79.5 83.0 -4.50000000000002
endloop
endfacet
facet normal 1.0 0.0 4.16333634234434e-016
outer loop
vertex -73.5 89.0 -4.50000000000004
vertex -73.5 0.0 -10.5000000000001
vertex -73.5 89.0 -10.5000000000001
endloop
endfacet
facet normal 1.0 0.0 4.16333634234434e-016
outer loop
vertex -73.5 0.0 -10.5000000000001
vertex -73.5 89.0 -4.50000000000004
vertex -73.5 0.0 -4.50000000000002
endloop
endfacet
facet normal 1.0 0.0 4.16333634234434e-016
outer loop
vertex -73.5 0.0 -4.50000000000002
vertex -73.5 89.0 -4.50000000000004
vertex -73.5 83.0 -4.50000000000002
endloop
endfacet
endsolid konstruktion
