solid konstruktion
facet normal -1.0 0.0 -1.11022302462516e-016
outer loop
vertex 105.0 83.0 -6.00000000000001
vertex 105.0 2.25597318603832e-014 -2.41362485553509e-014
vertex 105.0 83.0 -2.41362485553509e-014
endloop
endfacet
facet normal -1.0 0.0 -1.11022302462516e-016
outer loop
vertex 105.0 2.25597318603832e-014 -2.41362485553509e-014
vertex 105.0 83.0 -6.00000000000001
vertex 105.0 2.25597318603832e-014 -3.00000000000003
endloop
endfacet
facet normal -1.0 0.0 -1.11022302462516e-016
outer loop
vertex 105.0 2.25597318603832e-014 -3.00000000000003
vertex 105.0 83.0 -6.00000000000001
vertex 105.0 2.25597318603832e-014 -6.00000000000001
endloop
endfacet
facet normal 1.0 0.0 1.11022302462516e-016
outer loop
vertex 325.0 2.25597318603832e-014 -12.0
vertex 325.0 83.0 2.8865798640252e-016
vertex 325.0 2.25597318603832e-014 2.8865798640252e-016
endloop
endfacet
facet normal 1.0 0.0 1.11022302462516e-016
outer loop
vertex 325.0 83.0 2.8865798640252e-016
vertex 325.0 2.25597318603832e-014 -12.0
vertex 325.0 83.0 -5.99999999999999
endloop
endfacet
facet normal 1.0 0.0 1.11022302462516e-016
outer loop
vertex 325.0 83.0 -5.99999999999999
vertex 325.0 2.25597318603832e-014 -12.0
vertex 325.0 89.0 -5.99999999999999
endloop
endfacet
facet normal 1.0 0.0 1.11022302462516e-016
outer loop
vertex 325.0 89.0 -5.99999999999999
vertex 325.0 2.25597318603832e-014 -12.0
vertex 325.0 89.0 -12.0
endloop
endfacet
facet normal 0.0 1.0 0.0
outer loop
vertex 325.0 89.0 -5.99999999999999
vertex 99.0 89.0 -12.0
vertex 99.0 89.0 -6.00000000000001
endloop
endfacet
facet normal 0.0 1.0 0.0
outer loop
vertex 99.0 89.0 -12.0
vertex 325.0 89.0 -5.99999999999999
vertex 325.0 89.0 -12.0
endloop
endfacet
facet normal 0.0 -1.0 0.0
outer loop
vertex 325.0 2.25597318603832e-014 -12.0
vertex 99.0 2.25597318603832e-014 -6.00000000000001
vertex 99.0 2.25597318603832e-014 -12.0
endloop
endfacet
facet normal 0.0 -1.0 0.0
outer loop
vertex 99.0 2.25597318603832e-014 -6.00000000000001
vertex 325.0 2.25597318603832e-014 -12.0
vertex 105.0 2.25597318603832e-014 -6.00000000000001
endloop
endfacet
facet normal 0.0 -1.0 0.0
outer loop
vertex 105.0 2.25597318603832e-014 -6.00000000000001
vertex 325.0 2.25597318603832e-014 -12.0
vertex 105.0 2.25597318603832e-014 -3.00000000000003
endloop
endfacet
facet normal 0.0 -1.0 0.0
outer loop
vertex 105.0 2.25597318603832e-014 -3.00000000000003
vertex 325.0 2.25597318603832e-014 -12.0
vertex 112.5 2.25597318603832e-014 -3.00000000000003
endloop
endfacet
facet normal 0.0 -1.0 0.0
outer loop
vertex 112.5 2.25597318603832e-014 -3.00000000000003
vertex 325.0 2.25597318603832e-014 -12.0
vertex 112.5 2.25597318603832e-014 -2.3303581286882e-014
endloop
endfacet
facet normal 0.0 -1.0 0.0
outer loop
vertex 112.5 2.25597318603832e-014 -2.3303581286882e-014
vertex 325.0 2.25597318603832e-014 -12.0
vertex 325.0 2.25597318603832e-014 2.8865798640252e-016
endloop
endfacet
facet normal 1.11022302462516e-016 0.0 -1.0
outer loop
vertex 99.0 89.0 -12.0
vertex 325.0 2.25597318603832e-014 -12.0
vertex 99.0 2.25597318603832e-014 -12.0
endloop
endfacet
facet normal 1.11022302462516e-016 0.0 -1.0
outer loop
vertex 325.0 2.25597318603832e-014 -12.0
vertex 99.0 89.0 -12.0
vertex 325.0 89.0 -12.0
endloop
endfacet
facet normal -1.12232466980173e-016 7.44341814490631e-032 1.0
outer loop
vertex 325.0 89.0 -5.99999999999999
vertex 105.0 83.0 -6.00000000000001
vertex 325.0 83.0 -5.99999999999999
endloop
endfacet
facet normal -1.12232466980173e-016 7.44341814490631e-032 1.0
outer loop
vertex 105.0 83.0 -6.00000000000001
vertex 325.0 89.0 -5.99999999999999
vertex 99.0 83.0 -6.00000000000001
endloop
endfacet
facet normal -1.12232466980173e-016 7.44341814490631e-032 1.0
outer loop
vertex 99.0 83.0 -6.00000000000001
vertex 325.0 89.0 -5.99999999999999
vertex 99.0 89.0 -6.00000000000001
endloop
endfacet
facet normal -1.0 0.0 -1.11022302462516e-016
outer loop
vertex 99.0 89.0 -12.0
vertex 99.0 83.0 -6.00000000000001
vertex 99.0 89.0 -6.00000000000001
endloop
endfacet
facet normal -1.0 0.0 -1.11022302462516e-016
outer loop
vertex 99.0 83.0 -6.00000000000001
vertex 99.0 89.0 -12.0
vertex 99.0 2.25597318603832e-014 -6.00000000000001
endloop
endfacet
facet normal -1.0 0.0 -1.11022302462516e-016
outer loop
vertex 99.0 2.25597318603832e-014 -6.00000000000001
vertex 99.0 89.0 -12.0
vertex 99.0 2.25597318603832e-014 -12.0
endloop
endfacet
facet normal -1.11022302462516e-016 0.0 1.0
outer loop
vertex 105.0 83.0 -6.00000000000001
vertex 99.0 2.25597318603832e-014 -6.00000000000001
vertex 105.0 2.25597318603832e-014 -6.00000000000001
endloop
endfacet
facet normal -1.11022302462516e-016 0.0 1.0
outer loop
vertex 99.0 2.25597318603832e-014 -6.00000000000001
vertex 105.0 83.0 -6.00000000000001
vertex 99.0 83.0 -6.00000000000001
endloop
endfacet
facet normal -1.11022302462516e-016 9.604867063871e-033 1.0
outer loop
vertex 325.0 83.0 2.8865798640252e-016
vertex 112.5 2.25597318603832e-014 -2.3303581286882e-014
vertex 325.0 2.25597318603832e-014 2.8865798640252e-016
endloop
endfacet
facet normal -1.11022302462516e-016 9.604867063871e-033 1.0
outer loop
vertex 112.5 2.25597318603832e-014 -2.3303581286882e-014
vertex 325.0 83.0 2.8865798640252e-016
vertex 105.0 2.25597318603832e-014 -2.41362485553509e-014
endloop
endfacet
facet normal -1.11022302462516e-016 9.604867063871e-033 1.0
outer loop
vertex 105.0 2.25597318603832e-014 -2.41362485553509e-014
vertex 325.0 83.0 2.8865798640252e-016
vertex 105.0 83.0 -2.41362485553509e-014
endloop
endfacet
facet normal 0.0 1.0 0.0
outer loop
vertex 325.0 83.0 2.8865798640252e-016
vertex 105.0 83.0 -6.00000000000001
vertex 105.0 83.0 -2.41362485553509e-014
endloop
endfacet
facet normal 0.0 1.0 0.0
outer loop
vertex 105.0 83.0 -6.00000000000001
vertex 325.0 83.0 2.8865798640252e-016
vertex 325.0 83.0 -5.99999999999999
endloop
endfacet
endsolid konstruktion
