solid konstruktion
facet normal -1.94289029309402e-016 1.13353921363598e-015 1.0
outer loop
vertex 142.295929090853 -100.0 236.461182995277
vertex -157.704070909147 114.0 236.461182995277
vertex -157.704070909147 -100.0 236.461182995277
endloop
endfacet
facet normal -1.94289029309402e-016 1.13353921363598e-015 1.0
outer loop
vertex -157.704070909147 114.0 236.461182995277
vertex 142.295929090853 -100.0 236.461182995277
vertex 142.295929090853 114.0 236.461182995277
endloop
endfacet
facet normal 3.45126646034193e-031 1.0 -1.13353921363598e-015
outer loop
vertex -157.704070909147 114.0 236.461182995277
vertex 142.295929090853 114.0 224.461182995277
vertex -157.704070909147 114.0 224.461182995277
endloop
endfacet
facet normal 3.45126646034193e-031 1.0 -1.13353921363598e-015
outer loop
vertex 142.295929090853 114.0 224.461182995277
vertex -157.704070909147 114.0 236.461182995277
vertex 142.295929090853 114.0 236.461182995277
endloop
endfacet
facet normal -1.0 -0.0 -1.94289029309402e-016
outer loop
vertex -157.704070909147 -100.0 236.461182995277
vertex -157.704070909147 114.0 224.461182995277
vertex -157.704070909147 -100.0 224.461182995277
endloop
endfacet
facet normal -1.0 -0.0 -1.94289029309402e-016
outer loop
vertex -157.704070909147 114.0 224.461182995277
vertex -157.704070909147 -100.0 236.461182995277
vertex -157.704070909147 114.0 236.461182995277
endloop
endfacet
facet normal -2.95822839457879e-031 -1.0 9.39988827515968e-016
outer loop
vertex 142.295929090853 -100.0 224.461182995277
vertex -157.704070909147 -100.0 236.461182995277
vertex -157.704070909147 -100.0 224.461182995277
endloop
endfacet
facet normal -2.95822839457879e-031 -1.0 9.39988827515968e-016
outer loop
vertex -157.704070909147 -100.0 236.461182995277
vertex 142.295929090853 -100.0 224.461182995277
vertex 142.295929090853 -100.0 236.461182995277
endloop
endfacet
facet normal 1.0 0.0 1.94289029309402e-016
outer loop
vertex 142.295929090853 114.0 224.461182995277
vertex 142.295929090853 -100.0 236.461182995277
vertex 142.295929090853 -100.0 224.461182995277
endloop
endfacet
facet normal 1.0 0.0 1.94289029309402e-016
outer loop
vertex 142.295929090853 -100.0 236.461182995277
vertex 142.295929090853 114.0 224.461182995277
vertex 142.295929090853 114.0 236.461182995277
endloop
endfacet
facet normal 1.94289029309402e-016 -1.13353921363598e-015 -1.0
outer loop
vertex -157.704070909147 114.0 224.461182995277
vertex 142.295929090853 -100.0 224.461182995277
vertex -157.704070909147 -100.0 224.461182995277
endloop
endfacet
facet normal 1.94289029309402e-016 -1.13353921363598e-015 -1.0
outer loop
vertex 142.295929090853 -100.0 224.461182995277
vertex -157.704070909147 114.0 224.461182995277
vertex 142.295929090853 114.0 224.461182995277
endloop
endfacet
endsolid konstruktion
