solid konstruktion
facet normal -3.03388213722982e-016 -4.98006009628493e-016 -1.0
outer loop
vertex 84.0 222.39237838241 -12.0000000000001
vertex 41.0 166.0 -12.0000000000001
vertex -84.0 191.231088059829 -12.0
endloop
endfacet
facet normal -3.03388213722982e-016 -4.98006009628493e-016 -1.0
outer loop
vertex 41.0 166.0 -12.0000000000001
vertex 84.0 222.39237838241 -12.0000000000001
vertex 84.0 47.0 -12.0
endloop
endfacet
facet normal -3.03388213722982e-016 -4.98006009628493e-016 -1.0
outer loop
vertex 41.0 166.0 -12.0000000000001
vertex 84.0 47.0 -12.0
vertex 41.0 47.0 -12.0
endloop
endfacet
facet normal -3.03388213722982e-016 -4.98006009628493e-016 -1.0
outer loop
vertex -84.0 191.231088059829 -12.0
vertex -41.0 166.0 -12.0000000000001
vertex -84.0 47.0 -12.0
endloop
endfacet
facet normal -3.03388213722982e-016 -4.98006009628493e-016 -1.0
outer loop
vertex -41.0 166.0 -12.0000000000001
vertex -84.0 191.231088059829 -12.0
vertex 41.0 166.0 -12.0000000000001
endloop
endfacet
facet normal -3.03388213722982e-016 -4.98006009628493e-016 -1.0
outer loop
vertex -84.0 47.0 -12.0
vertex -41.0 166.0 -12.0000000000001
vertex -41.0 47.0 -12.0
endloop
endfacet
facet normal 2.6821901619446e-016 5.81946775228849e-016 1.0
outer loop
vertex -84.0 47.0 -8.99999999999999
vertex -41.0 166.0 -9.00000000000009
vertex -84.0 191.231088059829 -9.00000000000008
endloop
endfacet
facet normal 2.6821901619446e-016 5.81946775228849e-016 1.0
outer loop
vertex -41.0 166.0 -9.00000000000009
vertex -84.0 47.0 -8.99999999999999
vertex -41.0 47.0 -8.99999999999999
endloop
endfacet
facet normal 2.6821901619446e-016 5.81946775228849e-016 1.0
outer loop
vertex 84.0 222.39237838241 -9.00000000000013
vertex 41.0 166.0 -9.00000000000011
vertex 84.0 47.0 -9.00000000000004
endloop
endfacet
facet normal 2.6821901619446e-016 5.81946775228849e-016 1.0
outer loop
vertex 41.0 166.0 -9.00000000000011
vertex 84.0 222.39237838241 -9.00000000000013
vertex -84.0 191.231088059829 -9.00000000000008
endloop
endfacet
facet normal 2.6821901619446e-016 5.81946775228849e-016 1.0
outer loop
vertex 41.0 166.0 -9.00000000000011
vertex -84.0 191.231088059829 -9.00000000000008
vertex -41.0 166.0 -9.00000000000009
endloop
endfacet
facet normal 2.6821901619446e-016 5.81946775228849e-016 1.0
outer loop
vertex 84.0 47.0 -9.00000000000004
vertex 41.0 166.0 -9.00000000000011
vertex 41.0 47.0 -9.00000000000004
endloop
endfacet
facet normal 0.0 -1.0 5.82867087928207e-016
outer loop
vertex 84.0 47.0 -12.0
vertex 41.0 47.0 -9.00000000000004
vertex 41.0 47.0 -12.0
endloop
endfacet
facet normal 0.0 -1.0 5.82867087928207e-016
outer loop
vertex 41.0 47.0 -9.00000000000004
vertex 84.0 47.0 -12.0
vertex 84.0 47.0 -9.00000000000004
endloop
endfacet
facet normal 2.7212945717939e-032 -1.0 6.7904254041695e-016
outer loop
vertex 41.0 166.0 -12.0000000000001
vertex -41.0 166.0 -9.00000000000009
vertex -41.0 166.0 -12.0000000000001
endloop
endfacet
facet normal 2.7212945717939e-032 -1.0 6.7904254041695e-016
outer loop
vertex -41.0 166.0 -9.00000000000009
vertex 41.0 166.0 -12.0000000000001
vertex 41.0 166.0 -9.00000000000011
endloop
endfacet
facet normal 1.0 -4.73943946646708e-017 -3.15156740828622e-016
outer loop
vertex -41.0 166.0 -9.00000000000009
vertex -41.0 47.0 -12.0
vertex -41.0 166.0 -12.0000000000001
endloop
endfacet
facet normal 1.0 -4.73943946646708e-017 -3.15156740828622e-016
outer loop
vertex -41.0 47.0 -12.0
vertex -41.0 166.0 -9.00000000000009
vertex -41.0 47.0 -8.99999999999999
endloop
endfacet
facet normal -1.0 0.0 0.0
outer loop
vertex -84.0 47.0 -8.99999999999999
vertex -84.0 191.231088059829 -12.0
vertex -84.0 47.0 -12.0
endloop
endfacet
facet normal -1.0 0.0 0.0
outer loop
vertex -84.0 191.231088059829 -12.0
vertex -84.0 47.0 -8.99999999999999
vertex -84.0 191.231088059829 -9.00000000000008
endloop
endfacet
facet normal 0.0 -1.0 5.82867087928207e-016
outer loop
vertex -41.0 47.0 -12.0
vertex -84.0 47.0 -8.99999999999999
vertex -84.0 47.0 -12.0
endloop
endfacet
facet normal 0.0 -1.0 5.82867087928207e-016
outer loop
vertex -84.0 47.0 -8.99999999999999
vertex -41.0 47.0 -12.0
vertex -41.0 47.0 -8.99999999999999
endloop
endfacet
facet normal -1.0 1.84879058379292e-031 3.15156740828622e-016
outer loop
vertex 41.0 47.0 -12.0
vertex 41.0 166.0 -9.00000000000011
vertex 41.0 166.0 -12.0000000000001
endloop
endfacet
facet normal -1.0 1.84879058379292e-031 3.15156740828622e-016
outer loop
vertex 41.0 166.0 -9.00000000000011
vertex 41.0 47.0 -12.0
vertex 41.0 47.0 -9.00000000000004
endloop
endfacet
facet normal 1.0 0.0 0.0
outer loop
vertex 84.0 222.39237838241 -12.0000000000001
vertex 84.0 47.0 -9.00000000000004
vertex 84.0 47.0 -12.0
endloop
endfacet
facet normal 1.0 0.0 0.0
outer loop
vertex 84.0 47.0 -9.00000000000004
vertex 84.0 222.39237838241 -12.0000000000001
vertex 84.0 222.39237838241 -9.00000000000013
endloop
endfacet
facet normal -0.182373191938966 0.983229382627469 -3.52222235157391e-016
outer loop
vertex 84.0 222.39237838241 -9.00000000000013
vertex -84.0 191.231088059829 -12.0
vertex -84.0 191.231088059829 -9.00000000000008
endloop
endfacet
facet normal -0.182373191938966 0.983229382627469 -3.52222235157391e-016
outer loop
vertex -84.0 191.231088059829 -12.0
vertex 84.0 222.39237838241 -9.00000000000013
vertex 84.0 222.39237838241 -12.0000000000001
endloop
endfacet
endsolid konstruktion
