solid konstruktion
facet normal 1.0 2.14551468471632e-015 -9.27701734685458e-016
outer loop
vertex 0.0 -2.6789681584205e-014 197.862903225806
vertex -2.25597318603832e-014 -3.00000000000002 195.828789889348
vertex -1.12798659301916e-014 -2.18547402397462e-014 195.828789889348
endloop
endfacet
facet normal 1.0 2.14551468471632e-015 -9.27701734685458e-016
outer loop
vertex -2.25597318603832e-014 -3.00000000000002 195.828789889348
vertex 0.0 -2.6789681584205e-014 197.862903225806
vertex 0.0 -6.00000000000004 197.862903225806
endloop
endfacet
facet normal 1.0 2.14551468471632e-015 -9.27701734685458e-016
outer loop
vertex -2.25597318603832e-014 -3.00000000000002 195.828789889348
vertex 0.0 -6.00000000000004 197.862903225806
vertex -2.25597318603832e-014 -3.00000000000002 191.760563216432
endloop
endfacet
facet normal 1.0 2.14551468471632e-015 -9.27701734685458e-016
outer loop
vertex -2.25597318603832e-014 -3.00000000000002 191.760563216432
vertex 0.0 -6.00000000000004 197.862903225806
vertex 0.0 -6.00000000000003 191.760563216432
endloop
endfacet
facet normal 0.0 0.0 1.0
outer loop
vertex 0.0 -3.00000000000004 153.0
vertex -40.0 2.99999999999995 153.0
vertex -40.0 -3.00000000000005 153.0
endloop
endfacet
facet normal 0.0 0.0 1.0
outer loop
vertex -40.0 2.99999999999995 153.0
vertex 0.0 -3.00000000000004 153.0
vertex 0.0 2.99999999999995 153.0
endloop
endfacet
facet normal 0.182373191938966 -2.8397547239155e-016 -0.983229382627469
outer loop
vertex -1.12798659301916e-014 -2.18547402397462e-014 195.828789889348
vertex -85.0 -3.00000000000004 180.06266085709
vertex -85.0 -3.38395977905748e-014 180.06266085709
endloop
endfacet
facet normal 0.182373191938966 -2.8397547239155e-016 -0.983229382627469
outer loop
vertex -85.0 -3.00000000000004 180.06266085709
vertex -1.12798659301916e-014 -2.18547402397462e-014 195.828789889348
vertex -2.25597318603832e-014 -3.00000000000002 195.828789889348
endloop
endfacet
facet normal 1.0 -1.48411927224203e-016 -1.10925749045881e-015
outer loop
vertex 0.0 -6.00000000000004 157.0
vertex 0.0 -3.00000000000004 153.0
vertex 1.12798659301916e-014 -3.00000000000003 157.0
endloop
endfacet
facet normal 1.0 -1.48411927224203e-016 -1.10925749045881e-015
outer loop
vertex 0.0 -3.00000000000004 153.0
vertex 0.0 2.99999999999995 151.0
vertex 0.0 2.99999999999995 153.0
endloop
endfacet
facet normal 1.0 -1.48411927224203e-016 -1.10925749045881e-015
outer loop
vertex 0.0 2.99999999999995 151.0
vertex 0.0 -3.00000000000004 153.0
vertex 0.0 -6.00000000000005 151.0
endloop
endfacet
facet normal 1.0 -1.48411927224203e-016 -1.10925749045881e-015
outer loop
vertex 0.0 -6.00000000000005 151.0
vertex 0.0 -3.00000000000004 153.0
vertex 0.0 -6.00000000000004 157.0
endloop
endfacet
facet normal 1.0 1.8993284186005e-016 5.28527722596175e-033
outer loop
vertex -85.0 -3.00000000000004 180.06266085709
vertex -85.0 -3.38395977905748e-014 34.0
vertex -85.0 -3.38395977905748e-014 180.06266085709
endloop
endfacet
facet normal 1.0 1.8993284186005e-016 5.28527722596175e-033
outer loop
vertex -85.0 -3.38395977905748e-014 34.0
vertex -85.0 -3.00000000000004 180.06266085709
vertex -85.0 -3.00000000000004 34.0
endloop
endfacet
facet normal -6.76227222108537e-035 -2.69169000168506e-017 1.0
outer loop
vertex -40.0 -3.00000000000004 34.0
vertex -85.0 -3.38395977905748e-014 34.0
vertex -85.0 -3.00000000000004 34.0
endloop
endfacet
facet normal -6.76227222108537e-035 -2.69169000168506e-017 1.0
outer loop
vertex -85.0 -3.38395977905748e-014 34.0
vertex -40.0 -3.00000000000004 34.0
vertex -40.0 -3.38395977905748e-014 34.0
endloop
endfacet
facet normal -0.500000000000009 2.07917186907204e-016 -0.866025403784433
outer loop
vertex -92.0 -3.38395977905748e-014 143.732050807569
vertex -92.482361909795 -6.00000000000003 143.931851652578
vertex -92.482361909795 -3.38395977905748e-014 143.931851652578
endloop
endfacet
facet normal -0.258819045102527 2.94039305574633e-016 -0.965925826289067
outer loop
vertex -92.482361909795 -6.00000000000003 143.931851652578
vertex -92.0 -3.38395977905748e-014 143.732050807569
vertex -92.0 -6.00000000000003 143.732050807569
endloop
endfacet
facet normal -0.258819045102527 2.94039305574633e-016 -0.965925826289067
outer loop
vertex -92.482361909795 -3.38395977905748e-014 143.931851652578
vertex -93.0 -6.00000000000003 144.0
vertex -93.0 -3.38395977905748e-014 144.0
endloop
endfacet
facet normal 2.14044859693439e-014 3.60123131490083e-016 -1.0
outer loop
vertex -93.0 -6.00000000000003 144.0
vertex -92.482361909795 -3.38395977905748e-014 143.931851652578
vertex -92.482361909795 -6.00000000000003 143.931851652578
endloop
endfacet
facet normal 2.14044859693439e-014 3.60123131490083e-016 -1.0
outer loop
vertex -93.0 -3.38395977905748e-014 144.0
vertex -93.517638090205 -6.00000000000003 143.931851652578
vertex -93.517638090205 -3.38395977905748e-014 143.931851652578
endloop
endfacet
facet normal 0.258819045102529 4.01665161126088e-016 -0.965925826289066
outer loop
vertex -93.517638090205 -6.00000000000003 143.931851652578
vertex -93.0 -3.38395977905748e-014 144.0
vertex -93.0 -6.00000000000003 144.0
endloop
endfacet
facet normal -0.866025403784438 4.23434069511605e-031 -0.500000000000001
outer loop
vertex -91.2679491924311 -6.00000000000003 143.0
vertex -91.5857864376269 -3.38395977905748e-014 143.414213562373
vertex -91.2679491924311 -3.38395977905748e-014 143.0
endloop
endfacet
facet normal -0.70710678118654 1.07625855551456e-016 -0.707106781186555
outer loop
vertex -91.5857864376269 -3.38395977905748e-014 143.414213562373
vertex -91.2679491924311 -6.00000000000003 143.0
vertex -91.5857864376269 -6.00000000000003 143.414213562373
endloop
endfacet
facet normal -0.70710678118654 -4.01665161126088e-016 0.707106781186555
outer loop
vertex -91.5857864376269 -6.00000000000003 140.585786437627
vertex -92.0 -3.38395977905748e-014 140.267949192431
vertex -92.0 -6.00000000000003 140.267949192431
endloop
endfacet
facet normal -0.500000000000009 -4.15834373814416e-016 0.866025403784433
outer loop
vertex -92.0 -3.38395977905748e-014 140.267949192431
vertex -91.5857864376269 -6.00000000000003 140.585786437627
vertex -91.5857864376269 -3.38395977905748e-014 140.585786437627
endloop
endfacet
facet normal -0.70710678118654 1.07625855551456e-016 -0.707106781186555
outer loop
vertex -91.5857864376269 -3.38395977905748e-014 143.414213562373
vertex -92.0 -6.00000000000003 143.732050807569
vertex -92.0 -3.38395977905748e-014 143.732050807569
endloop
endfacet
facet normal -0.500000000000009 2.07917186907204e-016 -0.866025403784433
outer loop
vertex -92.0 -6.00000000000003 143.732050807569
vertex -91.5857864376269 -3.38395977905748e-014 143.414213562373
vertex -91.5857864376269 -6.00000000000003 143.414213562373
endloop
endfacet
facet normal 0.70710678118654 4.01665161126088e-016 -0.707106781186555
outer loop
vertex -94.4142135623731 -6.00000000000003 143.414213562373
vertex -94.7320508075689 -3.38395977905748e-014 143.0
vertex -94.4142135623731 -3.38395977905748e-014 143.414213562373
endloop
endfacet
facet normal 0.866025403784438 3.60123131490079e-016 -0.500000000000001
outer loop
vertex -94.7320508075689 -3.38395977905748e-014 143.0
vertex -94.4142135623731 -6.00000000000003 143.414213562373
vertex -94.7320508075689 -6.00000000000003 143.0
endloop
endfacet
facet normal 0.866025403784438 3.60123131490079e-016 -0.500000000000001
outer loop
vertex -94.7320508075689 -6.00000000000003 143.0
vertex -94.9318516525781 -3.38395977905748e-014 142.517638090205
vertex -94.7320508075689 -3.38395977905748e-014 143.0
endloop
endfacet
facet normal 0.965925826289069 2.94039305574635e-016 -0.258819045102518
outer loop
vertex -94.9318516525781 -3.38395977905748e-014 142.517638090205
vertex -94.7320508075689 -6.00000000000003 143.0
vertex -94.9318516525781 -6.00000000000003 142.517638090205
endloop
endfacet
facet normal 0.500000000000006 -2.07917186907205e-016 0.866025403784435
outer loop
vertex -94.0 -6.00000000000003 140.267949192431
vertex -94.4142135623731 -3.38395977905748e-014 140.585786437627
vertex -94.4142135623731 -6.00000000000003 140.585786437627
endloop
endfacet
facet normal 0.70710678118654 -1.07625855551456e-016 0.707106781186555
outer loop
vertex -94.4142135623731 -3.38395977905748e-014 140.585786437627
vertex -94.0 -6.00000000000003 140.267949192431
vertex -94.0 -3.38395977905748e-014 140.267949192431
endloop
endfacet
facet normal 0.258819045102525 -2.94039305574634e-016 0.965925826289067
outer loop
vertex -93.517638090205 -6.00000000000003 140.068148347422
vertex -94.0 -3.38395977905748e-014 140.267949192431
vertex -94.0 -6.00000000000003 140.267949192431
endloop
endfacet
facet normal 0.500000000000006 -2.07917186907205e-016 0.866025403784435
outer loop
vertex -94.0 -3.38395977905748e-014 140.267949192431
vertex -93.517638090205 -6.00000000000003 140.068148347422
vertex -93.517638090205 -3.38395977905748e-014 140.068148347422
endloop
endfacet
facet normal -0.965925826289069 -1.66375157271199e-016 0.258819045102518
outer loop
vertex -91.0681483474219 -6.00000000000003 141.482361909795
vertex -91.0 -3.38395977905748e-014 142.0
vertex -91.0681483474219 -3.38395977905748e-014 141.482361909795
endloop
endfacet
facet normal -1.0 2.17024596214007e-019 -0.0
outer loop
vertex -91.0 -3.38395977905748e-014 142.0
vertex -91.0681483474219 -6.00000000000003 141.482361909795
vertex -91.0 -6.00000000000003 142.0
endloop
endfacet
facet normal -1.0 2.17024596214007e-019 -0.0
outer loop
vertex -91.0 -6.00000000000003 142.0
vertex -91.0681483474219 -3.38395977905748e-014 142.517638090205
vertex -91.0 -3.38395977905748e-014 142.0
endloop
endfacet
facet normal -0.965925826289069 -2.71557923514663e-017 -0.258819045102518
outer loop
vertex -91.0681483474219 -3.38395977905748e-014 142.517638090205
vertex -91.0 -6.00000000000003 142.0
vertex -91.0681483474219 -6.00000000000003 142.517638090205
endloop
endfacet
facet normal 0.499999999999992 4.15834373814416e-016 -0.866025403784443
outer loop
vertex -94.0 -3.38395977905748e-014 143.732050807569
vertex -94.4142135623731 -6.00000000000003 143.414213562373
vertex -94.4142135623731 -3.38395977905748e-014 143.414213562373
endloop
endfacet
facet normal 0.70710678118654 4.01665161126088e-016 -0.707106781186555
outer loop
vertex -94.4142135623731 -6.00000000000003 143.414213562373
vertex -94.0 -3.38395977905748e-014 143.732050807569
vertex -94.0 -6.00000000000003 143.732050807569
endloop
endfacet
facet normal 0.866025403784438 -4.23434069511605e-031 0.500000000000001
outer loop
vertex -94.7320508075689 -6.00000000000003 141.0
vertex -94.4142135623731 -3.38395977905748e-014 140.585786437627
vertex -94.7320508075689 -3.38395977905748e-014 141.0
endloop
endfacet
facet normal 0.70710678118654 -1.07625855551456e-016 0.707106781186555
outer loop
vertex -94.4142135623731 -3.38395977905748e-014 140.585786437627
vertex -94.7320508075689 -6.00000000000003 141.0
vertex -94.4142135623731 -6.00000000000003 140.585786437627
endloop
endfacet
facet normal 1.41686647340785e-015 -3.60123131490078e-016 1.0
outer loop
vertex -93.0 -6.00000000000003 140.0
vertex -93.517638090205 -3.38395977905748e-014 140.068148347422
vertex -93.517638090205 -6.00000000000003 140.068148347422
endloop
endfacet
facet normal 0.258819045102525 -2.94039305574634e-016 0.965925826289067
outer loop
vertex -93.517638090205 -3.38395977905748e-014 140.068148347422
vertex -93.0 -6.00000000000003 140.0
vertex -93.0 -3.38395977905748e-014 140.0
endloop
endfacet
facet normal -0.258819045102527 -4.01665161126088e-016 0.965925826289067
outer loop
vertex -92.482361909795 -6.00000000000003 140.068148347422
vertex -93.0 -3.38395977905748e-014 140.0
vertex -93.0 -6.00000000000003 140.0
endloop
endfacet
facet normal 1.41686647340785e-015 -3.60123131490078e-016 1.0
outer loop
vertex -93.0 -3.38395977905748e-014 140.0
vertex -92.482361909795 -6.00000000000003 140.068148347422
vertex -92.482361909795 -3.38395977905748e-014 140.068148347422
endloop
endfacet
facet normal 0.965925826289069 1.07625855551453e-016 0.258819045102518
outer loop
vertex -94.9318516525781 -6.00000000000003 141.482361909795
vertex -94.7320508075689 -3.38395977905748e-014 141.0
vertex -94.9318516525781 -3.38395977905748e-014 141.482361909795
endloop
endfacet
facet normal 0.866025403784438 -4.23434069511605e-031 0.500000000000001
outer loop
vertex -94.7320508075689 -3.38395977905748e-014 141.0
vertex -94.9318516525781 -6.00000000000003 141.482361909795
vertex -94.7320508075689 -6.00000000000003 141.0
endloop
endfacet
facet normal -0.965925826289069 -2.71557923514663e-017 -0.258819045102518
outer loop
vertex -91.0681483474219 -6.00000000000003 142.517638090205
vertex -91.2679491924311 -3.38395977905748e-014 143.0
vertex -91.0681483474219 -3.38395977905748e-014 142.517638090205
endloop
endfacet
facet normal -0.866025403784438 4.23434069511605e-031 -0.500000000000001
outer loop
vertex -91.2679491924311 -3.38395977905748e-014 143.0
vertex -91.0681483474219 -6.00000000000003 142.517638090205
vertex -91.2679491924311 -6.00000000000003 143.0
endloop
endfacet
facet normal -0.866025403784438 -3.60123131490079e-016 0.500000000000001
outer loop
vertex -91.2679491924311 -6.00000000000003 141.0
vertex -91.0681483474219 -3.38395977905748e-014 141.482361909795
vertex -91.2679491924311 -3.38395977905748e-014 141.0
endloop
endfacet
facet normal -0.965925826289069 -1.66375157271199e-016 0.258819045102518
outer loop
vertex -91.0681483474219 -3.38395977905748e-014 141.482361909795
vertex -91.2679491924311 -6.00000000000003 141.0
vertex -91.0681483474219 -6.00000000000003 141.482361909795
endloop
endfacet
facet normal 0.965925826289069 2.94039305574635e-016 -0.258819045102518
outer loop
vertex -94.9318516525781 -6.00000000000003 142.517638090205
vertex -95.0 -3.38395977905748e-014 142.0
vertex -94.9318516525781 -3.38395977905748e-014 142.517638090205
endloop
endfacet
facet normal 1.0 2.07917186907208e-016 0.0
outer loop
vertex -95.0 -3.38395977905748e-014 142.0
vertex -94.9318516525781 -6.00000000000003 142.517638090205
vertex -95.0 -6.00000000000003 142.0
endloop
endfacet
facet normal 1.0 2.07917186907208e-016 0.0
outer loop
vertex -95.0 -6.00000000000003 142.0
vertex -94.9318516525781 -3.38395977905748e-014 141.482361909795
vertex -95.0 -3.38395977905748e-014 142.0
endloop
endfacet
facet normal 0.965925826289069 1.07625855551453e-016 0.258819045102518
outer loop
vertex -94.9318516525781 -3.38395977905748e-014 141.482361909795
vertex -95.0 -6.00000000000003 142.0
vertex -94.9318516525781 -6.00000000000003 141.482361909795
endloop
endfacet
facet normal 0.258819045102529 4.01665161126088e-016 -0.965925826289066
outer loop
vertex -93.517638090205 -3.38395977905748e-014 143.931851652578
vertex -94.0 -6.00000000000003 143.732050807569
vertex -94.0 -3.38395977905748e-014 143.732050807569
endloop
endfacet
facet normal 0.499999999999992 4.15834373814416e-016 -0.866025403784443
outer loop
vertex -94.0 -6.00000000000003 143.732050807569
vertex -93.517638090205 -3.38395977905748e-014 143.931851652578
vertex -93.517638090205 -6.00000000000003 143.931851652578
endloop
endfacet
facet normal -0.500000000000009 -4.15834373814416e-016 0.866025403784433
outer loop
vertex -92.0 -6.00000000000003 140.267949192431
vertex -92.482361909795 -3.38395977905748e-014 140.068148347422
vertex -92.482361909795 -6.00000000000003 140.068148347422
endloop
endfacet
facet normal -0.258819045102527 -4.01665161126088e-016 0.965925826289067
outer loop
vertex -92.482361909795 -3.38395977905748e-014 140.068148347422
vertex -92.0 -6.00000000000003 140.267949192431
vertex -92.0 -3.38395977905748e-014 140.267949192431
endloop
endfacet
facet normal -0.70710678118654 -4.01665161126088e-016 0.707106781186555
outer loop
vertex -91.5857864376269 -6.00000000000003 140.585786437627
vertex -91.2679491924311 -3.38395977905748e-014 141.0
vertex -91.5857864376269 -3.38395977905748e-014 140.585786437627
endloop
endfacet
facet normal -0.866025403784438 -3.60123131490079e-016 0.500000000000001
outer loop
vertex -91.2679491924311 -3.38395977905748e-014 141.0
vertex -91.5857864376269 -6.00000000000003 140.585786437627
vertex -91.2679491924311 -6.00000000000003 141.0
endloop
endfacet
facet normal -0.707106781186548 -1.93747974218879e-016 -0.707106781186548
outer loop
vertex -91.5857864376269 -3.38395977905748e-014 63.4142135623731
vertex -92.0 -6.00000000000003 63.7320508075689
vertex -92.0 -3.38395977905748e-014 63.7320508075689
endloop
endfacet
facet normal -0.500000000000007 -1.37000506411328e-016 -0.866025403784435
outer loop
vertex -92.0 -6.00000000000003 63.7320508075689
vertex -91.5857864376269 -3.38395977905748e-014 63.4142135623731
vertex -91.5857864376269 -6.00000000000003 63.4142135623731
endloop
endfacet
facet normal 1.0 2.74001012822652e-016 -1.39904425361656e-015
outer loop
vertex -95.0 -6.00000000000003 62.0
vertex -94.9318516525781 -3.38395977905748e-014 61.482361909795
vertex -95.0 -3.38395977905748e-014 62.0
endloop
endfacet
facet normal 0.965925826289069 2.64664654714762e-016 0.258819045102518
outer loop
vertex -94.9318516525781 -3.38395977905748e-014 61.482361909795
vertex -95.0 -6.00000000000003 62.0
vertex -94.9318516525781 -6.00000000000003 61.482361909795
endloop
endfacet
facet normal -0.965925826289069 -1.27664148303436e-016 -0.258819045102518
outer loop
vertex -91.0681483474219 -6.00000000000003 62.517638090205
vertex -91.2679491924311 -3.38395977905748e-014 63.0
vertex -91.0681483474219 -3.38395977905748e-014 62.517638090205
endloop
endfacet
facet normal -0.866025403784435 -2.37291837767081e-016 -0.500000000000007
outer loop
vertex -91.2679491924311 -3.38395977905748e-014 63.0
vertex -91.0681483474219 -6.00000000000003 62.517638090205
vertex -91.2679491924311 -6.00000000000003 63.0
endloop
endfacet
facet normal -0.965925826289069 -1.27664148303436e-016 0.258819045102518
outer loop
vertex -91.0681483474219 -6.00000000000003 61.482361909795
vertex -91.0 -3.38395977905748e-014 62.0
vertex -91.0681483474219 -3.38395977905748e-014 61.482361909795
endloop
endfacet
facet normal -1.0 0.0 0.0
outer loop
vertex -91.0 -3.38395977905748e-014 62.0
vertex -91.0681483474219 -6.00000000000003 61.482361909795
vertex -91.0 -6.00000000000003 62.0
endloop
endfacet
facet normal -1.0 0.0 0.0
outer loop
vertex -91.0 -6.00000000000003 62.0
vertex -91.0681483474219 -3.38395977905748e-014 62.517638090205
vertex -91.0 -3.38395977905748e-014 62.0
endloop
endfacet
facet normal -0.965925826289069 -1.27664148303436e-016 -0.258819045102518
outer loop
vertex -91.0681483474219 -3.38395977905748e-014 62.517638090205
vertex -91.0 -6.00000000000003 62.0
vertex -91.0681483474219 -6.00000000000003 62.517638090205
endloop
endfacet
facet normal -0.866025403784435 -2.37291837767081e-016 -0.500000000000007
outer loop
vertex -91.2679491924311 -6.00000000000003 63.0
vertex -91.5857864376269 -3.38395977905748e-014 63.4142135623731
vertex -91.2679491924311 -3.38395977905748e-014 63.0
endloop
endfacet
facet normal -0.707106781186548 -1.93747974218879e-016 -0.707106781186548
outer loop
vertex -91.5857864376269 -3.38395977905748e-014 63.4142135623731
vertex -91.2679491924311 -6.00000000000003 63.0
vertex -91.5857864376269 -6.00000000000003 63.4142135623731
endloop
endfacet
facet normal -0.500000000000007 -1.37000506411328e-016 -0.866025403784435
outer loop
vertex -92.0 -3.38395977905748e-014 63.7320508075689
vertex -92.482361909795 -6.00000000000003 63.9318516525781
vertex -92.482361909795 -3.38395977905748e-014 63.9318516525781
endloop
endfacet
facet normal -0.258819045102518 -7.09166804958817e-017 -0.965925826289069
outer loop
vertex -92.482361909795 -6.00000000000003 63.9318516525781
vertex -92.0 -3.38395977905748e-014 63.7320508075689
vertex -92.0 -6.00000000000003 63.7320508075689
endloop
endfacet
facet normal -0.258819045102518 -7.09166804958817e-017 -0.965925826289069
outer loop
vertex -92.482361909795 -3.38395977905748e-014 63.9318516525781
vertex -93.0 -6.00000000000003 64.0
vertex -93.0 -3.38395977905748e-014 64.0
endloop
endfacet
facet normal 0.0 -7.51892272964532e-032 -1.0
outer loop
vertex -93.0 -6.00000000000003 64.0
vertex -92.482361909795 -3.38395977905748e-014 63.9318516525781
vertex -92.482361909795 -6.00000000000003 63.9318516525781
endloop
endfacet
facet normal 0.0 -7.51892272964532e-032 -1.0
outer loop
vertex -93.0 -3.38395977905748e-014 64.0
vertex -93.517638090205 -6.00000000000003 63.9318516525781
vertex -93.517638090205 -3.38395977905748e-014 63.9318516525781
endloop
endfacet
facet normal 0.258819045102518 7.09166804958816e-017 -0.965925826289069
outer loop
vertex -93.517638090205 -6.00000000000003 63.9318516525781
vertex -93.0 -3.38395977905748e-014 64.0
vertex -93.0 -6.00000000000003 64.0
endloop
endfacet
facet normal 0.258819045102518 7.09166804958816e-017 -0.965925826289069
outer loop
vertex -93.517638090205 -3.38395977905748e-014 63.9318516525781
vertex -94.0 -6.00000000000003 63.7320508075689
vertex -94.0 -3.38395977905748e-014 63.7320508075689
endloop
endfacet
facet normal 0.500000000000007 1.37000506411328e-016 -0.866025403784435
outer loop
vertex -94.0 -6.00000000000003 63.7320508075689
vertex -93.517638090205 -3.38395977905748e-014 63.9318516525781
vertex -93.517638090205 -6.00000000000003 63.9318516525781
endloop
endfacet
facet normal 0.866025403784437 2.37291837767082e-016 -0.500000000000003
outer loop
vertex -94.7320508075689 -6.00000000000003 63.0
vertex -94.9318516525781 -3.38395977905748e-014 62.517638090205
vertex -94.7320508075689 -3.38395977905748e-014 63.0
endloop
endfacet
facet normal 0.96592582628907 2.64664654714762e-016 -0.258819045102516
outer loop
vertex -94.9318516525781 -3.38395977905748e-014 62.517638090205
vertex -94.7320508075689 -6.00000000000003 63.0
vertex -94.9318516525781 -6.00000000000003 62.517638090205
endloop
endfacet
facet normal 0.500000000000007 1.37000506411328e-016 -0.866025403784435
outer loop
vertex -94.0 -3.38395977905748e-014 63.7320508075689
vertex -94.4142135623731 -6.00000000000003 63.4142135623731
vertex -94.4142135623731 -3.38395977905748e-014 63.4142135623731
endloop
endfacet
facet normal 0.707106781186548 1.93747974218879e-016 -0.707106781186548
outer loop
vertex -94.4142135623731 -6.00000000000003 63.4142135623731
vertex -94.0 -3.38395977905748e-014 63.7320508075689
vertex -94.0 -6.00000000000003 63.7320508075689
endloop
endfacet
facet normal 0.707106781186548 1.93747974218879e-016 -0.707106781186548
outer loop
vertex -94.4142135623731 -6.00000000000003 63.4142135623731
vertex -94.7320508075689 -3.38395977905748e-014 63.0
vertex -94.4142135623731 -3.38395977905748e-014 63.4142135623731
endloop
endfacet
facet normal 0.866025403784437 2.37291837767082e-016 -0.500000000000003
outer loop
vertex -94.7320508075689 -3.38395977905748e-014 63.0
vertex -94.4142135623731 -6.00000000000003 63.4142135623731
vertex -94.7320508075689 -6.00000000000003 63.0
endloop
endfacet
facet normal 0.96592582628907 2.64664654714762e-016 -0.258819045102516
outer loop
vertex -94.9318516525781 -6.00000000000003 62.517638090205
vertex -95.0 -3.38395977905748e-014 62.0
vertex -94.9318516525781 -3.38395977905748e-014 62.517638090205
endloop
endfacet
facet normal 1.0 2.74001012822652e-016 -1.39904425361656e-015
outer loop
vertex -95.0 -3.38395977905748e-014 62.0
vertex -94.9318516525781 -6.00000000000003 62.517638090205
vertex -95.0 -6.00000000000003 62.0
endloop
endfacet
facet normal 0.866025403784438 2.37291837767082e-016 0.500000000000001
outer loop
vertex -94.7320508075689 -6.00000000000003 61.0
vertex -94.4142135623731 -3.38395977905748e-014 60.5857864376269
vertex -94.7320508075689 -3.38395977905748e-014 61.0
endloop
endfacet
facet normal 0.707106781186546 1.93747974218879e-016 0.707106781186549
outer loop
vertex -94.4142135623731 -3.38395977905748e-014 60.5857864376269
vertex -94.7320508075689 -6.00000000000003 61.0
vertex -94.4142135623731 -6.00000000000003 60.5857864376269
endloop
endfacet
facet normal 0.965925826289069 2.64664654714762e-016 0.258819045102518
outer loop
vertex -94.9318516525781 -6.00000000000003 61.482361909795
vertex -94.7320508075689 -3.38395977905748e-014 61.0
vertex -94.9318516525781 -3.38395977905748e-014 61.482361909795
endloop
endfacet
facet normal 0.866025403784438 2.37291837767082e-016 0.500000000000001
outer loop
vertex -94.7320508075689 -3.38395977905748e-014 61.0
vertex -94.9318516525781 -6.00000000000003 61.482361909795
vertex -94.7320508075689 -6.00000000000003 61.0
endloop
endfacet
facet normal 0.0 0.0 -1.0
outer loop
vertex -38.0 2.99999999999995 151.0
vertex 0.0 -6.00000000000005 151.0
vertex -38.0 -6.00000000000005 151.0
endloop
endfacet
facet normal 0.0 0.0 -1.0
outer loop
vertex 0.0 -6.00000000000005 151.0
vertex -38.0 2.99999999999995 151.0
vertex 0.0 2.99999999999995 151.0
endloop
endfacet
facet normal 0.499999999999996 1.37000506411325e-016 0.866025403784441
outer loop
vertex -94.0 -6.00000000000003 60.2679491924311
vertex -94.4142135623731 -3.38395977905748e-014 60.5857864376269
vertex -94.4142135623731 -6.00000000000003 60.5857864376269
endloop
endfacet
facet normal 0.707106781186546 1.93747974218879e-016 0.707106781186549
outer loop
vertex -94.4142135623731 -3.38395977905748e-014 60.5857864376269
vertex -94.0 -6.00000000000003 60.2679491924311
vertex -94.0 -3.38395977905748e-014 60.2679491924311
endloop
endfacet
facet normal -0.707106781186548 -1.93747974218879e-016 0.707106781186548
outer loop
vertex -91.5857864376269 -6.00000000000003 60.5857864376269
vertex -91.2679491924311 -3.38395977905748e-014 61.0
vertex -91.5857864376269 -3.38395977905748e-014 60.5857864376269
endloop
endfacet
facet normal -0.866025403784435 -2.37291837767081e-016 0.500000000000007
outer loop
vertex -91.2679491924311 -3.38395977905748e-014 61.0
vertex -91.5857864376269 -6.00000000000003 60.5857864376269
vertex -91.2679491924311 -6.00000000000003 61.0
endloop
endfacet
facet normal 1.39904425361656e-015 4.59050019283609e-031 1.0
outer loop
vertex -93.0 -6.00000000000003 60.0
vertex -93.517638090205 -3.38395977905748e-014 60.0681483474219
vertex -93.517638090205 -6.00000000000003 60.0681483474219
endloop
endfacet
facet normal 0.258819045102516 7.0916680495881e-017 0.96592582628907
outer loop
vertex -93.517638090205 -3.38395977905748e-014 60.0681483474219
vertex -93.0 -6.00000000000003 60.0
vertex -93.0 -3.38395977905748e-014 60.0
endloop
endfacet
facet normal -0.707106781186548 -1.93747974218879e-016 0.707106781186548
outer loop
vertex -91.5857864376269 -6.00000000000003 60.5857864376269
vertex -92.0 -3.38395977905748e-014 60.2679491924311
vertex -92.0 -6.00000000000003 60.2679491924311
endloop
endfacet
facet normal -0.500000000000007 -1.37000506411328e-016 0.866025403784435
outer loop
vertex -92.0 -3.38395977905748e-014 60.2679491924311
vertex -91.5857864376269 -6.00000000000003 60.5857864376269
vertex -91.5857864376269 -3.38395977905748e-014 60.5857864376269
endloop
endfacet
facet normal -0.500000000000007 -1.37000506411328e-016 0.866025403784435
outer loop
vertex -92.0 -6.00000000000003 60.2679491924311
vertex -92.482361909795 -3.38395977905748e-014 60.0681483474219
vertex -92.482361909795 -6.00000000000003 60.0681483474219
endloop
endfacet
facet normal -0.258819045102518 -7.09166804958816e-017 0.965925826289069
outer loop
vertex -92.482361909795 -3.38395977905748e-014 60.0681483474219
vertex -92.0 -6.00000000000003 60.2679491924311
vertex -92.0 -3.38395977905748e-014 60.2679491924311
endloop
endfacet
facet normal -0.258819045102518 -7.09166804958816e-017 0.965925826289069
outer loop
vertex -92.482361909795 -6.00000000000003 60.0681483474219
vertex -93.0 -3.38395977905748e-014 60.0
vertex -93.0 -6.00000000000003 60.0
endloop
endfacet
facet normal 1.39904425361656e-015 4.59050019283609e-031 1.0
outer loop
vertex -93.0 -3.38395977905748e-014 60.0
vertex -92.482361909795 -6.00000000000003 60.0681483474219
vertex -92.482361909795 -3.38395977905748e-014 60.0681483474219
endloop
endfacet
facet normal -0.866025403784435 -2.37291837767081e-016 0.500000000000007
outer loop
vertex -91.2679491924311 -6.00000000000003 61.0
vertex -91.0681483474219 -3.38395977905748e-014 61.482361909795
vertex -91.2679491924311 -3.38395977905748e-014 61.0
endloop
endfacet
facet normal -0.965925826289069 -1.27664148303436e-016 0.258819045102518
outer loop
vertex -91.0681483474219 -3.38395977905748e-014 61.482361909795
vertex -91.2679491924311 -6.00000000000003 61.0
vertex -91.0681483474219 -6.00000000000003 61.482361909795
endloop
endfacet
facet normal 0.258819045102516 7.0916680495881e-017 0.96592582628907
outer loop
vertex -93.517638090205 -6.00000000000003 60.0681483474219
vertex -94.0 -3.38395977905748e-014 60.2679491924311
vertex -94.0 -6.00000000000003 60.2679491924311
endloop
endfacet
facet normal 0.499999999999996 1.37000506411325e-016 0.866025403784441
outer loop
vertex -94.0 -3.38395977905748e-014 60.2679491924311
vertex -93.517638090205 -6.00000000000003 60.0681483474219
vertex -93.517638090205 -3.38395977905748e-014 60.0681483474219
endloop
endfacet
facet normal -1.0 0.0 0.0
outer loop
vertex -40.0 -3.38395977905748e-014 32.0
vertex -40.0 2.99999999999995 153.0
vertex -40.0 2.99999999999997 32.0
endloop
endfacet
facet normal -1.0 0.0 0.0
outer loop
vertex -40.0 2.99999999999995 153.0
vertex -40.0 -3.38395977905748e-014 32.0
vertex -40.0 -3.38395977905748e-014 34.0
endloop
endfacet
facet normal -1.0 0.0 0.0
outer loop
vertex -40.0 2.99999999999995 153.0
vertex -40.0 -3.38395977905748e-014 34.0
vertex -40.0 -3.00000000000005 153.0
endloop
endfacet
facet normal -1.0 0.0 0.0
outer loop
vertex -40.0 -3.00000000000005 153.0
vertex -40.0 -3.38395977905748e-014 34.0
vertex -40.0 -3.00000000000004 34.0
endloop
endfacet
facet normal 3.26454919113634e-019 1.0 1.87905603583811e-016
outer loop
vertex 0.0 2.99999999999995 151.0
vertex -40.0 2.99999999999995 153.0
vertex 0.0 2.99999999999995 153.0
endloop
endfacet
facet normal 3.26454919113634e-019 1.0 1.87905603583811e-016
outer loop
vertex -40.0 2.99999999999995 153.0
vertex 0.0 2.99999999999995 151.0
vertex -38.0 2.99999999999995 151.0
endloop
endfacet
facet normal 3.26454919113634e-019 1.0 1.87905603583811e-016
outer loop
vertex -40.0 2.99999999999995 153.0
vertex -38.0 2.99999999999995 151.0
vertex -40.0 2.99999999999997 32.0
endloop
endfacet
facet normal 3.26454919113634e-019 1.0 1.87905603583811e-016
outer loop
vertex -40.0 2.99999999999997 32.0
vertex -38.0 2.99999999999995 151.0
vertex -38.0 2.99999999999997 32.0
endloop
endfacet
facet normal -1.28581325218513e-016 1.0 3.39132785857242e-018
outer loop
vertex -1.12798659301916e-014 -2.18547402397462e-014 195.828789889348
vertex -99.0 -4.51194637207664e-014 179.5
vertex 0.0 -2.6789681584205e-014 197.862903225806
endloop
endfacet
facet normal -1.28581325218513e-016 1.0 3.39132785857242e-018
outer loop
vertex -99.0 -4.51194637207664e-014 179.5
vertex -1.12798659301916e-014 -2.18547402397462e-014 195.828789889348
vertex -85.0 -3.38395977905748e-014 180.06266085709
endloop
endfacet
facet normal -1.28581325218513e-016 1.0 3.39132785857242e-018
outer loop
vertex -99.0 -4.51194637207664e-014 179.5
vertex -85.0 -3.38395977905748e-014 180.06266085709
vertex -91.0681483474219 -3.38395977905748e-014 142.517638090205
endloop
endfacet
facet normal -1.28581325218513e-016 1.0 3.39132785857242e-018
outer loop
vertex -91.0681483474219 -3.38395977905748e-014 142.517638090205
vertex -85.0 -3.38395977905748e-014 180.06266085709
vertex -91.0 -3.38395977905748e-014 142.0
endloop
endfacet
facet normal -1.28581325218513e-016 1.0 3.39132785857242e-018
outer loop
vertex -91.0 -3.38395977905748e-014 142.0
vertex -85.0 -3.38395977905748e-014 180.06266085709
vertex -85.0 -3.38395977905748e-014 34.0
endloop
endfacet
facet normal -1.28581325218513e-016 1.0 3.39132785857242e-018
outer loop
vertex -99.0 -4.51194637207664e-014 179.5
vertex -91.0681483474219 -3.38395977905748e-014 142.517638090205
vertex -91.2679491924311 -3.38395977905748e-014 143.0
endloop
endfacet
facet normal -1.28581325218513e-016 1.0 3.39132785857242e-018
outer loop
vertex -99.0 -4.51194637207664e-014 179.5
vertex -91.2679491924311 -3.38395977905748e-014 143.0
vertex -91.5857864376269 -3.38395977905748e-014 143.414213562373
endloop
endfacet
facet normal -1.28581325218513e-016 1.0 3.39132785857242e-018
outer loop
vertex -99.0 -4.51194637207664e-014 179.5
vertex -91.5857864376269 -3.38395977905748e-014 143.414213562373
vertex -92.0 -3.38395977905748e-014 143.732050807569
endloop
endfacet
facet normal -1.28581325218513e-016 1.0 3.39132785857242e-018
outer loop
vertex -99.0 -4.51194637207664e-014 179.5
vertex -92.0 -3.38395977905748e-014 143.732050807569
vertex -92.482361909795 -3.38395977905748e-014 143.931851652578
endloop
endfacet
facet normal -1.28581325218513e-016 1.0 3.39132785857242e-018
outer loop
vertex -99.0 -4.51194637207664e-014 179.5
vertex -92.482361909795 -3.38395977905748e-014 143.931851652578
vertex -93.0 -3.38395977905748e-014 144.0
endloop
endfacet
facet normal -1.28581325218513e-016 1.0 3.39132785857242e-018
outer loop
vertex -91.0 -3.38395977905748e-014 142.0
vertex -85.0 -3.38395977905748e-014 34.0
vertex -91.0681483474219 -3.38395977905748e-014 141.482361909795
endloop
endfacet
facet normal -1.28581325218513e-016 1.0 3.39132785857242e-018
outer loop
vertex -91.0681483474219 -3.38395977905748e-014 141.482361909795
vertex -85.0 -3.38395977905748e-014 34.0
vertex -91.2679491924311 -3.38395977905748e-014 141.0
endloop
endfacet
facet normal -1.28581325218513e-016 1.0 3.39132785857242e-018
outer loop
vertex -91.2679491924311 -3.38395977905748e-014 141.0
vertex -85.0 -3.38395977905748e-014 34.0
vertex -91.5857864376269 -3.38395977905748e-014 140.585786437627
endloop
endfacet
facet normal -1.28581325218513e-016 1.0 3.39132785857242e-018
outer loop
vertex -91.5857864376269 -3.38395977905748e-014 140.585786437627
vertex -85.0 -3.38395977905748e-014 34.0
vertex -92.0 -3.38395977905748e-014 140.267949192431
endloop
endfacet
facet normal -1.28581325218513e-016 1.0 3.39132785857242e-018
outer loop
vertex -92.0 -3.38395977905748e-014 140.267949192431
vertex -85.0 -3.38395977905748e-014 34.0
vertex -92.482361909795 -3.38395977905748e-014 140.068148347422
endloop
endfacet
facet normal -1.28581325218513e-016 1.0 3.39132785857242e-018
outer loop
vertex -92.482361909795 -3.38395977905748e-014 140.068148347422
vertex -85.0 -3.38395977905748e-014 34.0
vertex -93.0 -3.38395977905748e-014 140.0
endloop
endfacet
facet normal -1.28581325218513e-016 1.0 3.39132785857242e-018
outer loop
vertex -93.0 -3.38395977905748e-014 140.0
vertex -85.0 -3.38395977905748e-014 34.0
vertex -91.0681483474219 -3.38395977905748e-014 62.517638090205
endloop
endfacet
facet normal -1.28581325218513e-016 1.0 3.39132785857242e-018
outer loop
vertex -93.0 -3.38395977905748e-014 140.0
vertex -91.0681483474219 -3.38395977905748e-014 62.517638090205
vertex -91.2679491924311 -3.38395977905748e-014 63.0
endloop
endfacet
facet normal -1.28581325218513e-016 1.0 3.39132785857242e-018
outer loop
vertex -93.0 -3.38395977905748e-014 140.0
vertex -91.2679491924311 -3.38395977905748e-014 63.0
vertex -91.5857864376269 -3.38395977905748e-014 63.4142135623731
endloop
endfacet
facet normal -1.28581325218513e-016 1.0 3.39132785857242e-018
outer loop
vertex -93.0 -3.38395977905748e-014 140.0
vertex -91.5857864376269 -3.38395977905748e-014 63.4142135623731
vertex -92.0 -3.38395977905748e-014 63.7320508075689
endloop
endfacet
facet normal -1.28581325218513e-016 1.0 3.39132785857242e-018
outer loop
vertex -93.0 -3.38395977905748e-014 140.0
vertex -92.0 -3.38395977905748e-014 63.7320508075689
vertex -92.482361909795 -3.38395977905748e-014 63.9318516525781
endloop
endfacet
facet normal -1.28581325218513e-016 1.0 3.39132785857242e-018
outer loop
vertex -93.0 -3.38395977905748e-014 140.0
vertex -92.482361909795 -3.38395977905748e-014 63.9318516525781
vertex -93.0 -3.38395977905748e-014 64.0
endloop
endfacet
facet normal -1.28581325218513e-016 1.0 3.39132785857242e-018
outer loop
vertex -91.0681483474219 -3.38395977905748e-014 62.517638090205
vertex -85.0 -3.38395977905748e-014 34.0
vertex -91.0 -3.38395977905748e-014 62.0
endloop
endfacet
facet normal -1.28581325218513e-016 1.0 3.39132785857242e-018
outer loop
vertex -91.0 -3.38395977905748e-014 62.0
vertex -85.0 -3.38395977905748e-014 34.0
vertex -91.0681483474219 -3.38395977905748e-014 61.482361909795
endloop
endfacet
facet normal -1.28581325218513e-016 1.0 3.39132785857242e-018
outer loop
vertex -91.0681483474219 -3.38395977905748e-014 61.482361909795
vertex -85.0 -3.38395977905748e-014 34.0
vertex -91.2679491924311 -3.38395977905748e-014 61.0
endloop
endfacet
facet normal -1.28581325218513e-016 1.0 3.39132785857242e-018
outer loop
vertex -91.2679491924311 -3.38395977905748e-014 61.0
vertex -85.0 -3.38395977905748e-014 34.0
vertex -91.5857864376269 -3.38395977905748e-014 60.5857864376269
endloop
endfacet
facet normal -1.28581325218513e-016 1.0 3.39132785857242e-018
outer loop
vertex -91.5857864376269 -3.38395977905748e-014 60.5857864376269
vertex -85.0 -3.38395977905748e-014 34.0
vertex -92.0 -3.38395977905748e-014 60.2679491924311
endloop
endfacet
facet normal -1.28581325218513e-016 1.0 3.39132785857242e-018
outer loop
vertex -92.0 -3.38395977905748e-014 60.2679491924311
vertex -85.0 -3.38395977905748e-014 34.0
vertex -92.482361909795 -3.38395977905748e-014 60.0681483474219
endloop
endfacet
facet normal -1.28581325218513e-016 1.0 3.39132785857242e-018
outer loop
vertex -92.482361909795 -3.38395977905748e-014 60.0681483474219
vertex -85.0 -3.38395977905748e-014 34.0
vertex -93.0 -3.38395977905748e-014 60.0
endloop
endfacet
facet normal -1.28581325218513e-016 1.0 3.39132785857242e-018
outer loop
vertex -40.0 -3.38395977905748e-014 32.0
vertex -85.0 -3.38395977905748e-014 34.0
vertex -40.0 -3.38395977905748e-014 34.0
endloop
endfacet
facet normal -1.28581325218513e-016 1.0 3.39132785857242e-018
outer loop
vertex -99.0 -4.51194637207664e-014 179.5
vertex -95.0 -3.38395977905748e-014 142.0
vertex -99.0 -3.38395977905748e-014 32.0
endloop
endfacet
facet normal -1.28581325218513e-016 1.0 3.39132785857242e-018
outer loop
vertex -95.0 -3.38395977905748e-014 142.0
vertex -99.0 -4.51194637207664e-014 179.5
vertex -94.9318516525781 -3.38395977905748e-014 142.517638090205
endloop
endfacet
facet normal -1.28581325218513e-016 1.0 3.39132785857242e-018
outer loop
vertex -94.9318516525781 -3.38395977905748e-014 142.517638090205
vertex -99.0 -4.51194637207664e-014 179.5
vertex -94.7320508075689 -3.38395977905748e-014 143.0
endloop
endfacet
facet normal -1.28581325218513e-016 1.0 3.39132785857242e-018
outer loop
vertex -94.7320508075689 -3.38395977905748e-014 143.0
vertex -99.0 -4.51194637207664e-014 179.5
vertex -94.4142135623731 -3.38395977905748e-014 143.414213562373
endloop
endfacet
facet normal -1.28581325218513e-016 1.0 3.39132785857242e-018
outer loop
vertex -94.4142135623731 -3.38395977905748e-014 143.414213562373
vertex -99.0 -4.51194637207664e-014 179.5
vertex -94.0 -3.38395977905748e-014 143.732050807569
endloop
endfacet
facet normal -1.28581325218513e-016 1.0 3.39132785857242e-018
outer loop
vertex -94.0 -3.38395977905748e-014 143.732050807569
vertex -99.0 -4.51194637207664e-014 179.5
vertex -93.517638090205 -3.38395977905748e-014 143.931851652578
endloop
endfacet
facet normal -1.28581325218513e-016 1.0 3.39132785857242e-018
outer loop
vertex -93.517638090205 -3.38395977905748e-014 143.931851652578
vertex -99.0 -4.51194637207664e-014 179.5
vertex -93.0 -3.38395977905748e-014 144.0
endloop
endfacet
facet normal -1.28581325218513e-016 1.0 3.39132785857242e-018
outer loop
vertex -99.0 -3.38395977905748e-014 32.0
vertex -95.0 -3.38395977905748e-014 142.0
vertex -94.9318516525781 -3.38395977905748e-014 141.482361909795
endloop
endfacet
facet normal -1.28581325218513e-016 1.0 3.39132785857242e-018
outer loop
vertex -99.0 -3.38395977905748e-014 32.0
vertex -94.9318516525781 -3.38395977905748e-014 141.482361909795
vertex -94.7320508075689 -3.38395977905748e-014 141.0
endloop
endfacet
facet normal -1.28581325218513e-016 1.0 3.39132785857242e-018
outer loop
vertex -99.0 -3.38395977905748e-014 32.0
vertex -94.7320508075689 -3.38395977905748e-014 141.0
vertex -94.4142135623731 -3.38395977905748e-014 140.585786437627
endloop
endfacet
facet normal -1.28581325218513e-016 1.0 3.39132785857242e-018
outer loop
vertex -99.0 -3.38395977905748e-014 32.0
vertex -94.4142135623731 -3.38395977905748e-014 140.585786437627
vertex -94.0 -3.38395977905748e-014 140.267949192431
endloop
endfacet
facet normal -1.28581325218513e-016 1.0 3.39132785857242e-018
outer loop
vertex -99.0 -3.38395977905748e-014 32.0
vertex -94.0 -3.38395977905748e-014 140.267949192431
vertex -93.517638090205 -3.38395977905748e-014 140.068148347422
endloop
endfacet
facet normal -1.28581325218513e-016 1.0 3.39132785857242e-018
outer loop
vertex -99.0 -3.38395977905748e-014 32.0
vertex -93.517638090205 -3.38395977905748e-014 140.068148347422
vertex -93.0 -3.38395977905748e-014 140.0
endloop
endfacet
facet normal -1.28581325218513e-016 1.0 3.39132785857242e-018
outer loop
vertex -99.0 -3.38395977905748e-014 32.0
vertex -93.0 -3.38395977905748e-014 140.0
vertex -94.9318516525781 -3.38395977905748e-014 62.517638090205
endloop
endfacet
facet normal -1.28581325218513e-016 1.0 3.39132785857242e-018
outer loop
vertex -94.9318516525781 -3.38395977905748e-014 62.517638090205
vertex -93.0 -3.38395977905748e-014 140.0
vertex -94.7320508075689 -3.38395977905748e-014 63.0
endloop
endfacet
facet normal -1.28581325218513e-016 1.0 3.39132785857242e-018
outer loop
vertex -94.7320508075689 -3.38395977905748e-014 63.0
vertex -93.0 -3.38395977905748e-014 140.0
vertex -94.4142135623731 -3.38395977905748e-014 63.4142135623731
endloop
endfacet
facet normal -1.28581325218513e-016 1.0 3.39132785857242e-018
outer loop
vertex -94.4142135623731 -3.38395977905748e-014 63.4142135623731
vertex -93.0 -3.38395977905748e-014 140.0
vertex -94.0 -3.38395977905748e-014 63.7320508075689
endloop
endfacet
facet normal -1.28581325218513e-016 1.0 3.39132785857242e-018
outer loop
vertex -94.0 -3.38395977905748e-014 63.7320508075689
vertex -93.0 -3.38395977905748e-014 140.0
vertex -93.517638090205 -3.38395977905748e-014 63.9318516525781
endloop
endfacet
facet normal -1.28581325218513e-016 1.0 3.39132785857242e-018
outer loop
vertex -93.517638090205 -3.38395977905748e-014 63.9318516525781
vertex -93.0 -3.38395977905748e-014 140.0
vertex -93.0 -3.38395977905748e-014 64.0
endloop
endfacet
facet normal -1.28581325218513e-016 1.0 3.39132785857242e-018
outer loop
vertex -99.0 -3.38395977905748e-014 32.0
vertex -94.9318516525781 -3.38395977905748e-014 62.517638090205
vertex -95.0 -3.38395977905748e-014 62.0
endloop
endfacet
facet normal -1.28581325218513e-016 1.0 3.39132785857242e-018
outer loop
vertex -99.0 -3.38395977905748e-014 32.0
vertex -95.0 -3.38395977905748e-014 62.0
vertex -94.9318516525781 -3.38395977905748e-014 61.482361909795
endloop
endfacet
facet normal -1.28581325218513e-016 1.0 3.39132785857242e-018
outer loop
vertex -99.0 -3.38395977905748e-014 32.0
vertex -94.9318516525781 -3.38395977905748e-014 61.482361909795
vertex -94.7320508075689 -3.38395977905748e-014 61.0
endloop
endfacet
facet normal -1.28581325218513e-016 1.0 3.39132785857242e-018
outer loop
vertex -99.0 -3.38395977905748e-014 32.0
vertex -94.7320508075689 -3.38395977905748e-014 61.0
vertex -94.4142135623731 -3.38395977905748e-014 60.5857864376269
endloop
endfacet
facet normal -1.28581325218513e-016 1.0 3.39132785857242e-018
outer loop
vertex -99.0 -3.38395977905748e-014 32.0
vertex -94.4142135623731 -3.38395977905748e-014 60.5857864376269
vertex -94.0 -3.38395977905748e-014 60.2679491924311
endloop
endfacet
facet normal -1.28581325218513e-016 1.0 3.39132785857242e-018
outer loop
vertex -99.0 -3.38395977905748e-014 32.0
vertex -94.0 -3.38395977905748e-014 60.2679491924311
vertex -93.517638090205 -3.38395977905748e-014 60.0681483474219
endloop
endfacet
facet normal -1.28581325218513e-016 1.0 3.39132785857242e-018
outer loop
vertex -99.0 -3.38395977905748e-014 32.0
vertex -93.517638090205 -3.38395977905748e-014 60.0681483474219
vertex -93.0 -3.38395977905748e-014 60.0
endloop
endfacet
facet normal -1.28581325218513e-016 1.0 3.39132785857242e-018
outer loop
vertex -99.0 -3.38395977905748e-014 32.0
vertex -93.0 -3.38395977905748e-014 60.0
vertex -85.0 -3.38395977905748e-014 34.0
endloop
endfacet
facet normal -1.28581325218513e-016 1.0 3.39132785857242e-018
outer loop
vertex -99.0 -3.38395977905748e-014 32.0
vertex -85.0 -3.38395977905748e-014 34.0
vertex -40.0 -3.38395977905748e-014 32.0
endloop
endfacet
facet normal -1.0 -1.15290436061805e-016 0.0
outer loop
vertex -44.0 -6.00000000000002 38.0
vertex -44.0 -3.00000000000002 157.0
vertex -44.0 -3.00000000000002 38.0
endloop
endfacet
facet normal -1.0 -1.15290436061805e-016 0.0
outer loop
vertex -44.0 -3.00000000000002 157.0
vertex -44.0 -6.00000000000002 38.0
vertex -44.0 -6.00000000000002 157.0
endloop
endfacet
facet normal -6.54831703772052e-033 -3.30257897277839e-017 1.0
outer loop
vertex -44.0 -6.00000000000002 38.0
vertex -81.0 -3.00000000000002 38.0
vertex -81.0 -6.00000000000002 38.0
endloop
endfacet
facet normal -6.54831703772052e-033 -3.30257897277839e-017 1.0
outer loop
vertex -81.0 -3.00000000000002 38.0
vertex -44.0 -6.00000000000002 38.0
vertex -44.0 -3.00000000000002 38.0
endloop
endfacet
facet normal -1.0 -1.15290436061805e-016 -7.64736673233328e-017
outer loop
vertex -99.0 -6.00000000000003 32.0
vertex -99.0 -4.51194637207664e-014 179.5
vertex -99.0 -3.38395977905748e-014 32.0
endloop
endfacet
facet normal -1.0 -1.15290436061805e-016 -7.64736673233328e-017
outer loop
vertex -99.0 -4.51194637207664e-014 179.5
vertex -99.0 -6.00000000000003 32.0
vertex -99.0 -6.00000000000005 179.5
endloop
endfacet
facet normal 0.182373191938967 5.34978116694603e-017 -0.983229382627468
outer loop
vertex -75.0 -3.00000000000004 177.849272893852
vertex -81.0 -6.00000000000003 176.736369668045
vertex -81.0 -3.00000000000004 176.736369668045
endloop
endfacet
facet normal 0.182373191938967 5.34978116694603e-017 -0.983229382627468
outer loop
vertex -81.0 -6.00000000000003 176.736369668045
vertex -75.0 -3.00000000000004 177.849272893852
vertex -75.0 -6.00000000000003 177.849272893852
endloop
endfacet
facet normal -0.182373191938966 -4.33851416153846e-017 0.983229382627469
outer loop
vertex 0.0 -6.00000000000004 197.862903225806
vertex -99.0 -4.51194637207664e-014 179.5
vertex -99.0 -6.00000000000005 179.5
endloop
endfacet
facet normal -0.182373191938966 -4.33851416153846e-017 0.983229382627469
outer loop
vertex -99.0 -4.51194637207664e-014 179.5
vertex 0.0 -6.00000000000004 197.862903225806
vertex 0.0 -2.6789681584205e-014 197.862903225806
endloop
endfacet
facet normal 1.51134380990325e-017 -1.0 -5.18226794739417e-017
outer loop
vertex -99.0 -6.00000000000005 179.5
vertex 0.0 -6.00000000000003 191.760563216432
vertex 0.0 -6.00000000000004 197.862903225806
endloop
endfacet
facet normal 1.51134380990325e-017 -1.0 -5.18226794739417e-017
outer loop
vertex 0.0 -6.00000000000003 191.760563216432
vertex -99.0 -6.00000000000005 179.5
vertex -75.0 -6.00000000000003 177.849272893852
endloop
endfacet
facet normal 1.51134380990325e-017 -1.0 -5.18226794739417e-017
outer loop
vertex -75.0 -6.00000000000003 177.849272893852
vertex -99.0 -6.00000000000005 179.5
vertex -81.0 -6.00000000000003 176.736369668045
endloop
endfacet
facet normal 1.51134380990325e-017 -1.0 -5.18226794739417e-017
outer loop
vertex -81.0 -6.00000000000003 176.736369668045
vertex -99.0 -6.00000000000005 179.5
vertex -94.9318516525781 -6.00000000000003 142.517638090205
endloop
endfacet
facet normal 1.51134380990325e-017 -1.0 -5.18226794739417e-017
outer loop
vertex -94.9318516525781 -6.00000000000003 142.517638090205
vertex -99.0 -6.00000000000005 179.5
vertex -95.0 -6.00000000000003 142.0
endloop
endfacet
facet normal 1.51134380990325e-017 -1.0 -5.18226794739417e-017
outer loop
vertex -95.0 -6.00000000000003 142.0
vertex -99.0 -6.00000000000005 179.5
vertex -99.0 -6.00000000000003 32.0
endloop
endfacet
facet normal 1.51134380990325e-017 -1.0 -5.18226794739417e-017
outer loop
vertex -81.0 -6.00000000000003 176.736369668045
vertex -94.9318516525781 -6.00000000000003 142.517638090205
vertex -94.7320508075689 -6.00000000000003 143.0
endloop
endfacet
facet normal 1.51134380990325e-017 -1.0 -5.18226794739417e-017
outer loop
vertex -81.0 -6.00000000000003 176.736369668045
vertex -94.7320508075689 -6.00000000000003 143.0
vertex -94.4142135623731 -6.00000000000003 143.414213562373
endloop
endfacet
facet normal 1.51134380990325e-017 -1.0 -5.18226794739417e-017
outer loop
vertex -81.0 -6.00000000000003 176.736369668045
vertex -94.4142135623731 -6.00000000000003 143.414213562373
vertex -94.0 -6.00000000000003 143.732050807569
endloop
endfacet
facet normal 1.51134380990325e-017 -1.0 -5.18226794739417e-017
outer loop
vertex -81.0 -6.00000000000003 176.736369668045
vertex -94.0 -6.00000000000003 143.732050807569
vertex -93.517638090205 -6.00000000000003 143.931851652578
endloop
endfacet
facet normal 1.51134380990325e-017 -1.0 -5.18226794739417e-017
outer loop
vertex -81.0 -6.00000000000003 176.736369668045
vertex -93.517638090205 -6.00000000000003 143.931851652578
vertex -93.0 -6.00000000000003 144.0
endloop
endfacet
facet normal 1.51134380990325e-017 -1.0 -5.18226794739417e-017
outer loop
vertex -95.0 -6.00000000000003 142.0
vertex -99.0 -6.00000000000003 32.0
vertex -94.9318516525781 -6.00000000000003 141.482361909795
endloop
endfacet
facet normal 1.51134380990325e-017 -1.0 -5.18226794739417e-017
outer loop
vertex -94.9318516525781 -6.00000000000003 141.482361909795
vertex -99.0 -6.00000000000003 32.0
vertex -94.7320508075689 -6.00000000000003 141.0
endloop
endfacet
facet normal 1.51134380990325e-017 -1.0 -5.18226794739417e-017
outer loop
vertex -94.7320508075689 -6.00000000000003 141.0
vertex -99.0 -6.00000000000003 32.0
vertex -94.4142135623731 -6.00000000000003 140.585786437627
endloop
endfacet
facet normal 1.51134380990325e-017 -1.0 -5.18226794739417e-017
outer loop
vertex -94.4142135623731 -6.00000000000003 140.585786437627
vertex -99.0 -6.00000000000003 32.0
vertex -94.0 -6.00000000000003 140.267949192431
endloop
endfacet
facet normal 1.51134380990325e-017 -1.0 -5.18226794739417e-017
outer loop
vertex -94.0 -6.00000000000003 140.267949192431
vertex -99.0 -6.00000000000003 32.0
vertex -93.517638090205 -6.00000000000003 140.068148347422
endloop
endfacet
facet normal 1.51134380990325e-017 -1.0 -5.18226794739417e-017
outer loop
vertex -93.517638090205 -6.00000000000003 140.068148347422
vertex -99.0 -6.00000000000003 32.0
vertex -93.0 -6.00000000000003 140.0
endloop
endfacet
facet normal 1.51134380990325e-017 -1.0 -5.18226794739417e-017
outer loop
vertex -93.0 -6.00000000000003 140.0
vertex -99.0 -6.00000000000003 32.0
vertex -94.9318516525781 -6.00000000000003 62.517638090205
endloop
endfacet
facet normal 1.51134380990325e-017 -1.0 -5.18226794739417e-017
outer loop
vertex -93.0 -6.00000000000003 140.0
vertex -94.9318516525781 -6.00000000000003 62.517638090205
vertex -94.7320508075689 -6.00000000000003 63.0
endloop
endfacet
facet normal 1.51134380990325e-017 -1.0 -5.18226794739417e-017
outer loop
vertex -93.0 -6.00000000000003 140.0
vertex -94.7320508075689 -6.00000000000003 63.0
vertex -94.4142135623731 -6.00000000000003 63.4142135623731
endloop
endfacet
facet normal 1.51134380990325e-017 -1.0 -5.18226794739417e-017
outer loop
vertex -93.0 -6.00000000000003 140.0
vertex -94.4142135623731 -6.00000000000003 63.4142135623731
vertex -94.0 -6.00000000000003 63.7320508075689
endloop
endfacet
facet normal 1.51134380990325e-017 -1.0 -5.18226794739417e-017
outer loop
vertex -93.0 -6.00000000000003 140.0
vertex -94.0 -6.00000000000003 63.7320508075689
vertex -93.517638090205 -6.00000000000003 63.9318516525781
endloop
endfacet
facet normal 1.51134380990325e-017 -1.0 -5.18226794739417e-017
outer loop
vertex -93.0 -6.00000000000003 140.0
vertex -93.517638090205 -6.00000000000003 63.9318516525781
vertex -93.0 -6.00000000000003 64.0
endloop
endfacet
facet normal 1.51134380990325e-017 -1.0 -5.18226794739417e-017
outer loop
vertex -94.9318516525781 -6.00000000000003 62.517638090205
vertex -99.0 -6.00000000000003 32.0
vertex -95.0 -6.00000000000003 62.0
endloop
endfacet
facet normal 1.51134380990325e-017 -1.0 -5.18226794739417e-017
outer loop
vertex -95.0 -6.00000000000003 62.0
vertex -99.0 -6.00000000000003 32.0
vertex -94.9318516525781 -6.00000000000003 61.482361909795
endloop
endfacet
facet normal 1.51134380990325e-017 -1.0 -5.18226794739417e-017
outer loop
vertex -94.9318516525781 -6.00000000000003 61.482361909795
vertex -99.0 -6.00000000000003 32.0
vertex -94.7320508075689 -6.00000000000003 61.0
endloop
endfacet
facet normal 1.51134380990325e-017 -1.0 -5.18226794739417e-017
outer loop
vertex -94.7320508075689 -6.00000000000003 61.0
vertex -99.0 -6.00000000000003 32.0
vertex -94.4142135623731 -6.00000000000003 60.5857864376269
endloop
endfacet
facet normal 1.51134380990325e-017 -1.0 -5.18226794739417e-017
outer loop
vertex -94.4142135623731 -6.00000000000003 60.5857864376269
vertex -99.0 -6.00000000000003 32.0
vertex -94.0 -6.00000000000003 60.2679491924311
endloop
endfacet
facet normal 1.51134380990325e-017 -1.0 -5.18226794739417e-017
outer loop
vertex -94.0 -6.00000000000003 60.2679491924311
vertex -99.0 -6.00000000000003 32.0
vertex -93.517638090205 -6.00000000000003 60.0681483474219
endloop
endfacet
facet normal 1.51134380990325e-017 -1.0 -5.18226794739417e-017
outer loop
vertex -93.517638090205 -6.00000000000003 60.0681483474219
vertex -99.0 -6.00000000000003 32.0
vertex -93.0 -6.00000000000003 60.0
endloop
endfacet
facet normal 1.51134380990325e-017 -1.0 -5.18226794739417e-017
outer loop
vertex -93.0 -6.00000000000003 60.0
vertex -99.0 -6.00000000000003 32.0
vertex -81.0 -6.00000000000002 38.0
endloop
endfacet
facet normal 1.51134380990325e-017 -1.0 -5.18226794739417e-017
outer loop
vertex -81.0 -6.00000000000002 38.0
vertex -99.0 -6.00000000000003 32.0
vertex -44.0 -6.00000000000002 38.0
endloop
endfacet
facet normal 1.51134380990325e-017 -1.0 -5.18226794739417e-017
outer loop
vertex -44.0 -6.00000000000002 157.0
vertex -38.0 -6.00000000000005 151.0
vertex 0.0 -6.00000000000004 157.0
endloop
endfacet
facet normal 1.51134380990325e-017 -1.0 -5.18226794739417e-017
outer loop
vertex -38.0 -6.00000000000005 151.0
vertex -44.0 -6.00000000000002 157.0
vertex -44.0 -6.00000000000002 38.0
endloop
endfacet
facet normal 1.51134380990325e-017 -1.0 -5.18226794739417e-017
outer loop
vertex -38.0 -6.00000000000005 151.0
vertex -44.0 -6.00000000000002 38.0
vertex -38.0 -6.00000000000003 32.0
endloop
endfacet
facet normal 1.51134380990325e-017 -1.0 -5.18226794739417e-017
outer loop
vertex -38.0 -6.00000000000003 32.0
vertex -44.0 -6.00000000000002 38.0
vertex -99.0 -6.00000000000003 32.0
endloop
endfacet
facet normal 1.51134380990325e-017 -1.0 -5.18226794739417e-017
outer loop
vertex -81.0 -6.00000000000003 176.736369668045
vertex -91.0 -6.00000000000003 142.0
vertex -81.0 -6.00000000000002 38.0
endloop
endfacet
facet normal 1.51134380990325e-017 -1.0 -5.18226794739417e-017
outer loop
vertex -91.0 -6.00000000000003 142.0
vertex -81.0 -6.00000000000003 176.736369668045
vertex -91.0681483474219 -6.00000000000003 142.517638090205
endloop
endfacet
facet normal 1.51134380990325e-017 -1.0 -5.18226794739417e-017
outer loop
vertex -91.0681483474219 -6.00000000000003 142.517638090205
vertex -81.0 -6.00000000000003 176.736369668045
vertex -91.2679491924311 -6.00000000000003 143.0
endloop
endfacet
facet normal 1.51134380990325e-017 -1.0 -5.18226794739417e-017
outer loop
vertex -91.2679491924311 -6.00000000000003 143.0
vertex -81.0 -6.00000000000003 176.736369668045
vertex -91.5857864376269 -6.00000000000003 143.414213562373
endloop
endfacet
facet normal 1.51134380990325e-017 -1.0 -5.18226794739417e-017
outer loop
vertex -91.5857864376269 -6.00000000000003 143.414213562373
vertex -81.0 -6.00000000000003 176.736369668045
vertex -92.0 -6.00000000000003 143.732050807569
endloop
endfacet
facet normal 1.51134380990325e-017 -1.0 -5.18226794739417e-017
outer loop
vertex -92.0 -6.00000000000003 143.732050807569
vertex -81.0 -6.00000000000003 176.736369668045
vertex -92.482361909795 -6.00000000000003 143.931851652578
endloop
endfacet
facet normal 1.51134380990325e-017 -1.0 -5.18226794739417e-017
outer loop
vertex -92.482361909795 -6.00000000000003 143.931851652578
vertex -81.0 -6.00000000000003 176.736369668045
vertex -93.0 -6.00000000000003 144.0
endloop
endfacet
facet normal 1.51134380990325e-017 -1.0 -5.18226794739417e-017
outer loop
vertex -81.0 -6.00000000000002 38.0
vertex -91.0 -6.00000000000003 142.0
vertex -91.0681483474219 -6.00000000000003 141.482361909795
endloop
endfacet
facet normal 1.51134380990325e-017 -1.0 -5.18226794739417e-017
outer loop
vertex -81.0 -6.00000000000002 38.0
vertex -91.0681483474219 -6.00000000000003 141.482361909795
vertex -91.2679491924311 -6.00000000000003 141.0
endloop
endfacet
facet normal 1.51134380990325e-017 -1.0 -5.18226794739417e-017
outer loop
vertex -81.0 -6.00000000000002 38.0
vertex -91.2679491924311 -6.00000000000003 141.0
vertex -91.5857864376269 -6.00000000000003 140.585786437627
endloop
endfacet
facet normal 1.51134380990325e-017 -1.0 -5.18226794739417e-017
outer loop
vertex -81.0 -6.00000000000002 38.0
vertex -91.5857864376269 -6.00000000000003 140.585786437627
vertex -92.0 -6.00000000000003 140.267949192431
endloop
endfacet
facet normal 1.51134380990325e-017 -1.0 -5.18226794739417e-017
outer loop
vertex -81.0 -6.00000000000002 38.0
vertex -92.0 -6.00000000000003 140.267949192431
vertex -92.482361909795 -6.00000000000003 140.068148347422
endloop
endfacet
facet normal 1.51134380990325e-017 -1.0 -5.18226794739417e-017
outer loop
vertex -81.0 -6.00000000000002 38.0
vertex -92.482361909795 -6.00000000000003 140.068148347422
vertex -93.0 -6.00000000000003 140.0
endloop
endfacet
facet normal 1.51134380990325e-017 -1.0 -5.18226794739417e-017
outer loop
vertex -81.0 -6.00000000000002 38.0
vertex -93.0 -6.00000000000003 140.0
vertex -91.0681483474219 -6.00000000000003 62.517638090205
endloop
endfacet
facet normal 1.51134380990325e-017 -1.0 -5.18226794739417e-017
outer loop
vertex -91.0681483474219 -6.00000000000003 62.517638090205
vertex -93.0 -6.00000000000003 140.0
vertex -91.2679491924311 -6.00000000000003 63.0
endloop
endfacet
facet normal 1.51134380990325e-017 -1.0 -5.18226794739417e-017
outer loop
vertex -91.2679491924311 -6.00000000000003 63.0
vertex -93.0 -6.00000000000003 140.0
vertex -91.5857864376269 -6.00000000000003 63.4142135623731
endloop
endfacet
facet normal 1.51134380990325e-017 -1.0 -5.18226794739417e-017
outer loop
vertex -91.5857864376269 -6.00000000000003 63.4142135623731
vertex -93.0 -6.00000000000003 140.0
vertex -92.0 -6.00000000000003 63.7320508075689
endloop
endfacet
facet normal 1.51134380990325e-017 -1.0 -5.18226794739417e-017
outer loop
vertex -92.0 -6.00000000000003 63.7320508075689
vertex -93.0 -6.00000000000003 140.0
vertex -92.482361909795 -6.00000000000003 63.9318516525781
endloop
endfacet
facet normal 1.51134380990325e-017 -1.0 -5.18226794739417e-017
outer loop
vertex -92.482361909795 -6.00000000000003 63.9318516525781
vertex -93.0 -6.00000000000003 140.0
vertex -93.0 -6.00000000000003 64.0
endloop
endfacet
facet normal 1.51134380990325e-017 -1.0 -5.18226794739417e-017
outer loop
vertex -81.0 -6.00000000000002 38.0
vertex -91.0681483474219 -6.00000000000003 62.517638090205
vertex -91.0 -6.00000000000003 62.0
endloop
endfacet
facet normal 1.51134380990325e-017 -1.0 -5.18226794739417e-017
outer loop
vertex -81.0 -6.00000000000002 38.0
vertex -91.0 -6.00000000000003 62.0
vertex -91.0681483474219 -6.00000000000003 61.482361909795
endloop
endfacet
facet normal 1.51134380990325e-017 -1.0 -5.18226794739417e-017
outer loop
vertex -81.0 -6.00000000000002 38.0
vertex -91.0681483474219 -6.00000000000003 61.482361909795
vertex -91.2679491924311 -6.00000000000003 61.0
endloop
endfacet
facet normal 1.51134380990325e-017 -1.0 -5.18226794739417e-017
outer loop
vertex -81.0 -6.00000000000002 38.0
vertex -91.2679491924311 -6.00000000000003 61.0
vertex -91.5857864376269 -6.00000000000003 60.5857864376269
endloop
endfacet
facet normal 1.51134380990325e-017 -1.0 -5.18226794739417e-017
outer loop
vertex -81.0 -6.00000000000002 38.0
vertex -91.5857864376269 -6.00000000000003 60.5857864376269
vertex -92.0 -6.00000000000003 60.2679491924311
endloop
endfacet
facet normal 1.51134380990325e-017 -1.0 -5.18226794739417e-017
outer loop
vertex -81.0 -6.00000000000002 38.0
vertex -92.0 -6.00000000000003 60.2679491924311
vertex -92.482361909795 -6.00000000000003 60.0681483474219
endloop
endfacet
facet normal 1.51134380990325e-017 -1.0 -5.18226794739417e-017
outer loop
vertex -81.0 -6.00000000000002 38.0
vertex -92.482361909795 -6.00000000000003 60.0681483474219
vertex -93.0 -6.00000000000003 60.0
endloop
endfacet
facet normal 1.51134380990325e-017 -1.0 -5.18226794739417e-017
outer loop
vertex 0.0 -6.00000000000005 151.0
vertex 0.0 -6.00000000000004 157.0
vertex -38.0 -6.00000000000005 151.0
endloop
endfacet
facet normal 1.00713088662425e-016 3.30257897277839e-017 -1.0
outer loop
vertex -38.0 2.99999999999997 32.0
vertex -40.0 -3.38395977905748e-014 32.0
vertex -40.0 2.99999999999997 32.0
endloop
endfacet
facet normal 1.00713088662425e-016 3.30257897277839e-017 -1.0
outer loop
vertex -40.0 -3.38395977905748e-014 32.0
vertex -99.0 -6.00000000000003 32.0
vertex -99.0 -3.38395977905748e-014 32.0
endloop
endfacet
facet normal 1.00713088662425e-016 3.30257897277839e-017 -1.0
outer loop
vertex -99.0 -6.00000000000003 32.0
vertex -40.0 -3.38395977905748e-014 32.0
vertex -38.0 -6.00000000000003 32.0
endloop
endfacet
facet normal 1.00713088662425e-016 3.30257897277839e-017 -1.0
outer loop
vertex -38.0 -6.00000000000003 32.0
vertex -40.0 -3.38395977905748e-014 32.0
vertex -38.0 2.99999999999997 32.0
endloop
endfacet
facet normal 0.0 0.0 1.0
outer loop
vertex 0.0 -6.00000000000004 157.0
vertex -44.0 -3.00000000000002 157.0
vertex -44.0 -6.00000000000002 157.0
endloop
endfacet
facet normal 0.0 0.0 1.0
outer loop
vertex -44.0 -3.00000000000002 157.0
vertex 0.0 -6.00000000000004 157.0
vertex 1.12798659301916e-014 -3.00000000000003 157.0
endloop
endfacet
facet normal 1.0 -9.39988827515966e-016 4.77960420770829e-017
outer loop
vertex -38.0 2.99999999999995 151.0
vertex -38.0 -6.00000000000003 32.0
vertex -38.0 2.99999999999997 32.0
endloop
endfacet
facet normal 1.0 -9.39988827515966e-016 4.77960420770829e-017
outer loop
vertex -38.0 -6.00000000000003 32.0
vertex -38.0 2.99999999999995 151.0
vertex -38.0 -6.00000000000005 151.0
endloop
endfacet
facet normal 1.0 1.15290436061805e-016 9.37361028634451e-033
outer loop
vertex -81.0 -3.00000000000004 176.736369668045
vertex -81.0 -6.00000000000002 38.0
vertex -81.0 -3.00000000000002 38.0
endloop
endfacet
facet normal 1.0 1.15290436061805e-016 9.37361028634451e-033
outer loop
vertex -81.0 -6.00000000000002 38.0
vertex -81.0 -3.00000000000004 176.736369668045
vertex -81.0 -6.00000000000003 176.736369668045
endloop
endfacet
facet normal 0.182373191938966 4.25963208587346e-016 -0.983229382627469
outer loop
vertex -2.25597318603832e-014 -3.00000000000002 191.760563216432
vertex -75.0 -6.00000000000003 177.849272893852
vertex -75.0 -3.00000000000004 177.849272893852
endloop
endfacet
facet normal 0.182373191938966 4.25963208587346e-016 -0.983229382627469
outer loop
vertex -75.0 -6.00000000000003 177.849272893852
vertex -2.25597318603832e-014 -3.00000000000002 191.760563216432
vertex 0.0 -6.00000000000003 191.760563216432
endloop
endfacet
facet normal -1.18155130849311e-016 1.0 3.90450302231554e-017
outer loop
vertex 0.0 -3.00000000000004 153.0
vertex -44.0 -3.00000000000002 157.0
vertex 1.12798659301916e-014 -3.00000000000003 157.0
endloop
endfacet
facet normal -1.18155130849311e-016 1.0 3.90450302231554e-017
outer loop
vertex -44.0 -3.00000000000002 157.0
vertex 0.0 -3.00000000000004 153.0
vertex -40.0 -3.00000000000005 153.0
endloop
endfacet
facet normal -1.18155130849311e-016 1.0 3.90450302231554e-017
outer loop
vertex -44.0 -3.00000000000002 157.0
vertex -40.0 -3.00000000000005 153.0
vertex -44.0 -3.00000000000002 38.0
endloop
endfacet
facet normal -1.18155130849311e-016 1.0 3.90450302231554e-017
outer loop
vertex -44.0 -3.00000000000002 38.0
vertex -40.0 -3.00000000000005 153.0
vertex -40.0 -3.00000000000004 34.0
endloop
endfacet
facet normal -1.18155130849311e-016 1.0 3.90450302231554e-017
outer loop
vertex -44.0 -3.00000000000002 38.0
vertex -40.0 -3.00000000000004 34.0
vertex -81.0 -3.00000000000002 38.0
endloop
endfacet
facet normal -1.18155130849311e-016 1.0 3.90450302231554e-017
outer loop
vertex -2.25597318603832e-014 -3.00000000000002 191.760563216432
vertex -85.0 -3.00000000000004 180.06266085709
vertex -2.25597318603832e-014 -3.00000000000002 195.828789889348
endloop
endfacet
facet normal -1.18155130849311e-016 1.0 3.90450302231554e-017
outer loop
vertex -85.0 -3.00000000000004 180.06266085709
vertex -2.25597318603832e-014 -3.00000000000002 191.760563216432
vertex -75.0 -3.00000000000004 177.849272893852
endloop
endfacet
facet normal -1.18155130849311e-016 1.0 3.90450302231554e-017
outer loop
vertex -85.0 -3.00000000000004 180.06266085709
vertex -75.0 -3.00000000000004 177.849272893852
vertex -81.0 -3.00000000000004 176.736369668045
endloop
endfacet
facet normal -1.18155130849311e-016 1.0 3.90450302231554e-017
outer loop
vertex -85.0 -3.00000000000004 180.06266085709
vertex -81.0 -3.00000000000004 176.736369668045
vertex -85.0 -3.00000000000004 34.0
endloop
endfacet
facet normal -1.18155130849311e-016 1.0 3.90450302231554e-017
outer loop
vertex -85.0 -3.00000000000004 34.0
vertex -81.0 -3.00000000000004 176.736369668045
vertex -81.0 -3.00000000000002 38.0
endloop
endfacet
facet normal -1.18155130849311e-016 1.0 3.90450302231554e-017
outer loop
vertex -85.0 -3.00000000000004 34.0
vertex -81.0 -3.00000000000002 38.0
vertex -40.0 -3.00000000000004 34.0
endloop
endfacet
endsolid konstruktion
