solid konstruktion
facet normal -0.499999999999979 0.0 -0.866025403784451
outer loop
vertex 94.0 4.79394302033143e-014 63.7320508075688
vertex 93.517638090205 -5.99999999999995 63.9318516525781
vertex 93.517638090205 4.79394302033143e-014 63.9318516525781
endloop
endfacet
facet normal -0.258819045102523 0.0 -0.965925826289068
outer loop
vertex 93.517638090205 -5.99999999999995 63.9318516525781
vertex 94.0 4.79394302033143e-014 63.7320508075688
vertex 94.0 -5.99999999999995 63.7320508075688
endloop
endfacet
facet normal -0.258819045102523 -0.0 0.965925826289068
outer loop
vertex 93.517638090205 -5.99999999999995 60.0681483474219
vertex 93.0 4.79394302033143e-014 60.0
vertex 93.0 -5.99999999999995 60.0
endloop
endfacet
facet normal -5.64073256394451e-015 -0.0 1.0
outer loop
vertex 93.0 4.79394302033143e-014 60.0
vertex 93.517638090205 -5.99999999999995 60.0681483474219
vertex 93.517638090205 4.79394302033143e-014 60.0681483474219
endloop
endfacet
facet normal -1.0 0.0 0.0
outer loop
vertex 95.0 -5.99999999999995 62.0
vertex 94.9318516525781 4.79394302033143e-014 62.517638090205
vertex 95.0 4.79394302033143e-014 62.0
endloop
endfacet
facet normal -0.965925826289066 0.0 -0.258819045102529
outer loop
vertex 94.9318516525781 4.79394302033143e-014 62.517638090205
vertex 95.0 -5.99999999999995 62.0
vertex 94.9318516525781 -5.99999999999995 62.517638090205
endloop
endfacet
facet normal 0.499999999999994 0.0 0.866025403784442
outer loop
vertex 92.0 -5.99999999999995 60.2679491924311
vertex 91.5857864376269 4.79394302033143e-014 60.5857864376269
vertex 91.5857864376269 -5.99999999999995 60.5857864376269
endloop
endfacet
facet normal 0.707106781186548 0.0 0.707106781186548
outer loop
vertex 91.5857864376269 4.79394302033143e-014 60.5857864376269
vertex 92.0 -5.99999999999995 60.2679491924311
vertex 92.0 4.79394302033143e-014 60.2679491924311
endloop
endfacet
facet normal -0.707106781186548 0.0 -0.707106781186548
outer loop
vertex 94.4142135623731 4.79394302033143e-014 63.4142135623731
vertex 94.0 -5.99999999999995 63.7320508075688
vertex 94.0 4.79394302033143e-014 63.7320508075688
endloop
endfacet
facet normal -0.499999999999979 0.0 -0.866025403784451
outer loop
vertex 94.0 -5.99999999999995 63.7320508075688
vertex 94.4142135623731 4.79394302033143e-014 63.4142135623731
vertex 94.4142135623731 -5.99999999999995 63.4142135623731
endloop
endfacet
facet normal 0.499999999999994 0.0 -0.866025403784442
outer loop
vertex 92.0 4.79394302033143e-014 63.7320508075688
vertex 91.5857864376269 -5.99999999999995 63.4142135623731
vertex 91.5857864376269 4.79394302033143e-014 63.4142135623731
endloop
endfacet
facet normal 0.707106781186548 0.0 -0.707106781186548
outer loop
vertex 91.5857864376269 -5.99999999999995 63.4142135623731
vertex 92.0 4.79394302033143e-014 63.7320508075688
vertex 92.0 -5.99999999999995 63.7320508075688
endloop
endfacet
facet normal 0.182373191938966 5.83727359916008e-016 -0.983229382627469
outer loop
vertex 81.0 -2.99999999999998 206.784756764819
vertex 0.0 -5.99999999999999 191.760563216432
vertex -2.25597318603832e-014 -2.99999999999999 191.760563216432
endloop
endfacet
facet normal 0.182373191938966 5.83727359916008e-016 -0.983229382627469
outer loop
vertex 0.0 -5.99999999999999 191.760563216432
vertex 81.0 -2.99999999999998 206.784756764819
vertex 81.0 -5.99999999999999 206.784756764819
endloop
endfacet
facet normal 0.0 0.0 1.0
outer loop
vertex 40.0 -3.0 153.0
vertex 0.0 2.99999999999999 153.0
vertex 0.0 -3.0 153.0
endloop
endfacet
facet normal 0.0 0.0 1.0
outer loop
vertex 0.0 2.99999999999999 153.0
vertex 40.0 -3.0 153.0
vertex 40.0 2.99999999999999 153.0
endloop
endfacet
facet normal 0.965925826289067 0.0 0.258819045102526
outer loop
vertex 91.0681483474218 -5.99999999999995 61.4823619097949
vertex 91.2679491924311 4.79394302033143e-014 61.0
vertex 91.0681483474218 4.79394302033143e-014 61.4823619097949
endloop
endfacet
facet normal 0.866025403784427 0.0 0.500000000000021
outer loop
vertex 91.2679491924311 4.79394302033143e-014 61.0
vertex 91.0681483474218 -5.99999999999995 61.4823619097949
vertex 91.2679491924311 -5.99999999999995 61.0
endloop
endfacet
facet normal 0.182373191938966 2.91863679957982e-016 -0.983229382627469
outer loop
vertex 85.0 3.66595642731227e-014 211.594918921606
vertex -2.25597318603832e-014 -2.99999999999998 195.828789889348
vertex -2.25597318603832e-014 1.48048240333765e-014 195.828789889348
endloop
endfacet
facet normal 0.182373191938966 2.91863679957982e-016 -0.983229382627469
outer loop
vertex -2.25597318603832e-014 -2.99999999999998 195.828789889348
vertex 85.0 3.66595642731227e-014 211.594918921606
vertex 85.0 -2.99999999999996 211.594918921606
endloop
endfacet
facet normal -0.707106781186548 -0.0 0.707106781186548
outer loop
vertex 94.4142135623731 -5.99999999999995 60.5857864376269
vertex 94.7320508075688 4.79394302033143e-014 61.0
vertex 94.4142135623731 4.79394302033143e-014 60.5857864376269
endloop
endfacet
facet normal -0.866025403784446 -0.0 0.499999999999986
outer loop
vertex 94.7320508075688 4.79394302033143e-014 61.0
vertex 94.4142135623731 -5.99999999999995 60.5857864376269
vertex 94.7320508075688 -5.99999999999995 61.0
endloop
endfacet
facet normal -0.866025403784446 -0.0 0.499999999999986
outer loop
vertex 94.7320508075688 -5.99999999999995 61.0
vertex 94.9318516525781 4.79394302033143e-014 61.4823619097949
vertex 94.7320508075688 4.79394302033143e-014 61.0
endloop
endfacet
facet normal -0.965925826289066 -0.0 0.258819045102529
outer loop
vertex 94.9318516525781 4.79394302033143e-014 61.4823619097949
vertex 94.7320508075688 -5.99999999999995 61.0
vertex 94.9318516525781 -5.99999999999995 61.4823619097949
endloop
endfacet
facet normal 0.965925826289068 0.0 -0.258819045102521
outer loop
vertex 91.0681483474218 -5.99999999999995 62.517638090205
vertex 91.0 4.79394302033143e-014 62.0
vertex 91.0681483474218 4.79394302033143e-014 62.517638090205
endloop
endfacet
facet normal 1.0 0.0 -2.8159107270244e-015
outer loop
vertex 91.0 4.79394302033143e-014 62.0
vertex 91.0681483474218 -5.99999999999995 62.517638090205
vertex 91.0 -5.99999999999995 62.0
endloop
endfacet
facet normal 0.0 0.0 1.0
outer loop
vertex 44.0 -6.0 157.0
vertex 0.0 -2.99999999999999 157.0
vertex 0.0 -6.0 157.0
endloop
endfacet
facet normal 0.0 0.0 1.0
outer loop
vertex 0.0 -2.99999999999999 157.0
vertex 44.0 -6.0 157.0
vertex 44.0 -3.0 157.0
endloop
endfacet
facet normal -0.707106781186548 -0.0 0.707106781186548
outer loop
vertex 94.4142135623731 -5.99999999999995 60.5857864376269
vertex 94.0 4.79394302033143e-014 60.2679491924311
vertex 94.0 -5.99999999999995 60.2679491924311
endloop
endfacet
facet normal -0.499999999999979 -0.0 0.866025403784451
outer loop
vertex 94.0 4.79394302033143e-014 60.2679491924311
vertex 94.4142135623731 -5.99999999999995 60.5857864376269
vertex 94.4142135623731 4.79394302033143e-014 60.5857864376269
endloop
endfacet
facet normal 0.258819045102534 0.0 -0.965925826289065
outer loop
vertex 92.4823619097949 4.79394302033143e-014 63.9318516525781
vertex 92.0 -5.99999999999995 63.7320508075688
vertex 92.0 4.79394302033143e-014 63.7320508075688
endloop
endfacet
facet normal 0.499999999999994 0.0 -0.866025403784442
outer loop
vertex 92.0 -5.99999999999995 63.7320508075688
vertex 92.4823619097949 4.79394302033143e-014 63.9318516525781
vertex 92.4823619097949 -5.99999999999995 63.9318516525781
endloop
endfacet
facet normal -5.64073256394451e-015 0.0 -1.0
outer loop
vertex 93.0 4.79394302033143e-014 64.0
vertex 92.4823619097949 -5.99999999999995 63.9318516525781
vertex 92.4823619097949 4.79394302033143e-014 63.9318516525781
endloop
endfacet
facet normal 0.258819045102534 0.0 -0.965925826289065
outer loop
vertex 92.4823619097949 -5.99999999999995 63.9318516525781
vertex 93.0 4.79394302033143e-014 64.0
vertex 93.0 -5.99999999999995 64.0
endloop
endfacet
facet normal -0.182373191938966 2.36646226992969e-017 0.983229382627469
outer loop
vertex 87.0 -5.99999999999998 214.0
vertex 0.0 9.86988268891764e-015 197.862903225806
vertex 0.0 -6.0 197.862903225806
endloop
endfacet
facet normal -0.182373191938966 2.36646226992969e-017 0.983229382627469
outer loop
vertex 0.0 9.86988268891764e-015 197.862903225806
vertex 87.0 -5.99999999999998 214.0
vertex 87.0 2.53796983429311e-014 214.0
endloop
endfacet
facet normal -0.965925826289066 -0.0 0.258819045102529
outer loop
vertex 94.9318516525781 -5.99999999999995 141.482361909795
vertex 95.0 4.79394302033143e-014 142.0
vertex 94.9318516525781 4.79394302033143e-014 141.482361909795
endloop
endfacet
facet normal -1.0 0.0 0.0
outer loop
vertex 95.0 4.79394302033143e-014 142.0
vertex 94.9318516525781 -5.99999999999995 141.482361909795
vertex 95.0 -5.99999999999995 142.0
endloop
endfacet
facet normal 0.866025403784431 0.0 -0.500000000000014
outer loop
vertex 91.2679491924311 -5.99999999999995 63.0
vertex 91.0681483474218 4.79394302033143e-014 62.517638090205
vertex 91.2679491924311 4.79394302033143e-014 63.0
endloop
endfacet
facet normal 0.965925826289068 0.0 -0.258819045102521
outer loop
vertex 91.0681483474218 4.79394302033143e-014 62.517638090205
vertex 91.2679491924311 -5.99999999999995 63.0
vertex 91.0681483474218 -5.99999999999995 62.517638090205
endloop
endfacet
facet normal -0.965925826289066 -0.0 0.258819045102529
outer loop
vertex 94.9318516525781 -5.99999999999995 61.4823619097949
vertex 95.0 4.79394302033143e-014 62.0
vertex 94.9318516525781 4.79394302033143e-014 61.4823619097949
endloop
endfacet
facet normal -1.0 0.0 0.0
outer loop
vertex 95.0 4.79394302033143e-014 62.0
vertex 94.9318516525781 -5.99999999999995 61.4823619097949
vertex 95.0 -5.99999999999995 62.0
endloop
endfacet
facet normal -0.258819045102523 0.0 -0.965925826289068
outer loop
vertex 93.517638090205 4.79394302033143e-014 63.9318516525781
vertex 93.0 -5.99999999999995 64.0
vertex 93.0 4.79394302033143e-014 64.0
endloop
endfacet
facet normal -5.64073256394451e-015 0.0 -1.0
outer loop
vertex 93.0 -5.99999999999995 64.0
vertex 93.517638090205 4.79394302033143e-014 63.9318516525781
vertex 93.517638090205 -5.99999999999995 63.9318516525781
endloop
endfacet
facet normal -0.499999999999979 -0.0 0.866025403784451
outer loop
vertex 94.0 -5.99999999999995 60.2679491924311
vertex 93.517638090205 4.79394302033143e-014 60.0681483474219
vertex 93.517638090205 -5.99999999999995 60.0681483474219
endloop
endfacet
facet normal -0.258819045102523 -0.0 0.965925826289068
outer loop
vertex 93.517638090205 4.79394302033143e-014 60.0681483474219
vertex 94.0 -5.99999999999995 60.2679491924311
vertex 94.0 4.79394302033143e-014 60.2679491924311
endloop
endfacet
facet normal 0.866025403784427 0.0 0.500000000000021
outer loop
vertex 91.2679491924311 -5.99999999999995 61.0
vertex 91.5857864376269 4.79394302033143e-014 60.5857864376269
vertex 91.2679491924311 4.79394302033143e-014 61.0
endloop
endfacet
facet normal 0.707106781186548 0.0 0.707106781186548
outer loop
vertex 91.5857864376269 4.79394302033143e-014 60.5857864376269
vertex 91.2679491924311 -5.99999999999995 61.0
vertex 91.5857864376269 -5.99999999999995 60.5857864376269
endloop
endfacet
facet normal -0.965925826289066 0.0 -0.258819045102529
outer loop
vertex 94.9318516525781 -5.99999999999995 62.517638090205
vertex 94.7320508075688 4.79394302033143e-014 63.0
vertex 94.9318516525781 4.79394302033143e-014 62.517638090205
endloop
endfacet
facet normal -0.866025403784446 0.0 -0.499999999999986
outer loop
vertex 94.7320508075688 4.79394302033143e-014 63.0
vertex 94.9318516525781 -5.99999999999995 62.517638090205
vertex 94.7320508075688 -5.99999999999995 63.0
endloop
endfacet
facet normal 1.0 0.0 -2.8159107270244e-015
outer loop
vertex 91.0 -5.99999999999995 62.0
vertex 91.0681483474218 4.79394302033143e-014 61.4823619097949
vertex 91.0 4.79394302033143e-014 62.0
endloop
endfacet
facet normal 0.965925826289067 0.0 0.258819045102526
outer loop
vertex 91.0681483474218 4.79394302033143e-014 61.4823619097949
vertex 91.0 -5.99999999999995 62.0
vertex 91.0681483474218 -5.99999999999995 61.4823619097949
endloop
endfacet
facet normal -5.64073256394451e-015 -0.0 1.0
outer loop
vertex 93.0 -5.99999999999995 60.0
vertex 92.4823619097949 4.79394302033143e-014 60.0681483474219
vertex 92.4823619097949 -5.99999999999995 60.0681483474219
endloop
endfacet
facet normal 0.258819045102534 0.0 0.965925826289065
outer loop
vertex 92.4823619097949 4.79394302033143e-014 60.0681483474219
vertex 93.0 -5.99999999999995 60.0
vertex 93.0 4.79394302033143e-014 60.0
endloop
endfacet
facet normal -4.34558852252301e-016 1.0 -4.80095231482463e-017
outer loop
vertex 85.0 3.66595642731227e-014 211.594918921606
vertex 91.0 4.79394302033143e-014 142.0
vertex 85.0 4.79394302033143e-014 34.0
endloop
endfacet
facet normal -4.34558852252301e-016 1.0 -4.80095231482463e-017
outer loop
vertex 91.0 4.79394302033143e-014 142.0
vertex 85.0 3.66595642731227e-014 211.594918921606
vertex 91.0681483474218 4.79394302033143e-014 142.517638090205
endloop
endfacet
facet normal -4.34558852252301e-016 1.0 -4.80095231482463e-017
outer loop
vertex 91.0681483474218 4.79394302033143e-014 142.517638090205
vertex 85.0 3.66595642731227e-014 211.594918921606
vertex 91.2679491924311 4.79394302033143e-014 143.0
endloop
endfacet
facet normal -4.34558852252301e-016 1.0 -4.80095231482463e-017
outer loop
vertex 91.2679491924311 4.79394302033143e-014 143.0
vertex 85.0 3.66595642731227e-014 211.594918921606
vertex 91.5857864376269 4.79394302033143e-014 143.414213562373
endloop
endfacet
facet normal -4.34558852252301e-016 1.0 -4.80095231482463e-017
outer loop
vertex 91.5857864376269 4.79394302033143e-014 143.414213562373
vertex 85.0 3.66595642731227e-014 211.594918921606
vertex 92.0 4.79394302033143e-014 143.732050807569
endloop
endfacet
facet normal -4.34558852252301e-016 1.0 -4.80095231482463e-017
outer loop
vertex 92.0 4.79394302033143e-014 143.732050807569
vertex 85.0 3.66595642731227e-014 211.594918921606
vertex 92.4823619097949 4.79394302033143e-014 143.931851652578
endloop
endfacet
facet normal -4.34558852252301e-016 1.0 -4.80095231482463e-017
outer loop
vertex 92.4823619097949 4.79394302033143e-014 143.931851652578
vertex 85.0 3.66595642731227e-014 211.594918921606
vertex 93.0 4.79394302033143e-014 144.0
endloop
endfacet
facet normal -4.34558852252301e-016 1.0 -4.80095231482463e-017
outer loop
vertex 85.0 4.79394302033143e-014 34.0
vertex 91.0 4.79394302033143e-014 142.0
vertex 91.0681483474218 4.79394302033143e-014 141.482361909795
endloop
endfacet
facet normal -4.34558852252301e-016 1.0 -4.80095231482463e-017
outer loop
vertex 85.0 4.79394302033143e-014 34.0
vertex 91.0681483474218 4.79394302033143e-014 141.482361909795
vertex 91.2679491924311 4.79394302033143e-014 141.0
endloop
endfacet
facet normal -4.34558852252301e-016 1.0 -4.80095231482463e-017
outer loop
vertex 85.0 4.79394302033143e-014 34.0
vertex 91.2679491924311 4.79394302033143e-014 141.0
vertex 91.5857864376269 4.79394302033143e-014 140.585786437627
endloop
endfacet
facet normal -4.34558852252301e-016 1.0 -4.80095231482463e-017
outer loop
vertex 85.0 4.79394302033143e-014 34.0
vertex 91.5857864376269 4.79394302033143e-014 140.585786437627
vertex 92.0 4.79394302033143e-014 140.267949192431
endloop
endfacet
facet normal -4.34558852252301e-016 1.0 -4.80095231482463e-017
outer loop
vertex 85.0 4.79394302033143e-014 34.0
vertex 92.0 4.79394302033143e-014 140.267949192431
vertex 92.4823619097949 4.79394302033143e-014 140.068148347422
endloop
endfacet
facet normal -4.34558852252301e-016 1.0 -4.80095231482463e-017
outer loop
vertex 85.0 4.79394302033143e-014 34.0
vertex 92.4823619097949 4.79394302033143e-014 140.068148347422
vertex 93.0 4.79394302033143e-014 140.0
endloop
endfacet
facet normal -4.34558852252301e-016 1.0 -4.80095231482463e-017
outer loop
vertex 85.0 4.79394302033143e-014 34.0
vertex 93.0 4.79394302033143e-014 140.0
vertex 91.0681483474218 4.79394302033143e-014 62.517638090205
endloop
endfacet
facet normal -4.34558852252301e-016 1.0 -4.80095231482463e-017
outer loop
vertex 91.0681483474218 4.79394302033143e-014 62.517638090205
vertex 93.0 4.79394302033143e-014 140.0
vertex 91.2679491924311 4.79394302033143e-014 63.0
endloop
endfacet
facet normal -4.34558852252301e-016 1.0 -4.80095231482463e-017
outer loop
vertex 91.2679491924311 4.79394302033143e-014 63.0
vertex 93.0 4.79394302033143e-014 140.0
vertex 91.5857864376269 4.79394302033143e-014 63.4142135623731
endloop
endfacet
facet normal -4.34558852252301e-016 1.0 -4.80095231482463e-017
outer loop
vertex 91.5857864376269 4.79394302033143e-014 63.4142135623731
vertex 93.0 4.79394302033143e-014 140.0
vertex 92.0 4.79394302033143e-014 63.7320508075688
endloop
endfacet
facet normal -4.34558852252301e-016 1.0 -4.80095231482463e-017
outer loop
vertex 92.0 4.79394302033143e-014 63.7320508075688
vertex 93.0 4.79394302033143e-014 140.0
vertex 92.4823619097949 4.79394302033143e-014 63.9318516525781
endloop
endfacet
facet normal -4.34558852252301e-016 1.0 -4.80095231482463e-017
outer loop
vertex 92.4823619097949 4.79394302033143e-014 63.9318516525781
vertex 93.0 4.79394302033143e-014 140.0
vertex 93.0 4.79394302033143e-014 64.0
endloop
endfacet
facet normal -4.34558852252301e-016 1.0 -4.80095231482463e-017
outer loop
vertex 85.0 4.79394302033143e-014 34.0
vertex 91.0681483474218 4.79394302033143e-014 62.517638090205
vertex 91.0 4.79394302033143e-014 62.0
endloop
endfacet
facet normal -4.34558852252301e-016 1.0 -4.80095231482463e-017
outer loop
vertex 85.0 4.79394302033143e-014 34.0
vertex 91.0 4.79394302033143e-014 62.0
vertex 91.0681483474218 4.79394302033143e-014 61.4823619097949
endloop
endfacet
facet normal -4.34558852252301e-016 1.0 -4.80095231482463e-017
outer loop
vertex 85.0 4.79394302033143e-014 34.0
vertex 91.0681483474218 4.79394302033143e-014 61.4823619097949
vertex 91.2679491924311 4.79394302033143e-014 61.0
endloop
endfacet
facet normal -4.34558852252301e-016 1.0 -4.80095231482463e-017
outer loop
vertex 85.0 4.79394302033143e-014 34.0
vertex 91.2679491924311 4.79394302033143e-014 61.0
vertex 91.5857864376269 4.79394302033143e-014 60.5857864376269
endloop
endfacet
facet normal -4.34558852252301e-016 1.0 -4.80095231482463e-017
outer loop
vertex 85.0 4.79394302033143e-014 34.0
vertex 91.5857864376269 4.79394302033143e-014 60.5857864376269
vertex 92.0 4.79394302033143e-014 60.2679491924311
endloop
endfacet
facet normal -4.34558852252301e-016 1.0 -4.80095231482463e-017
outer loop
vertex 85.0 4.79394302033143e-014 34.0
vertex 92.0 4.79394302033143e-014 60.2679491924311
vertex 92.4823619097949 4.79394302033143e-014 60.0681483474219
endloop
endfacet
facet normal -4.34558852252301e-016 1.0 -4.80095231482463e-017
outer loop
vertex 85.0 4.79394302033143e-014 34.0
vertex 92.4823619097949 4.79394302033143e-014 60.0681483474219
vertex 93.0 4.79394302033143e-014 60.0
endloop
endfacet
facet normal -4.34558852252301e-016 1.0 -4.80095231482463e-017
outer loop
vertex 85.0 3.66595642731227e-014 211.594918921606
vertex 0.0 9.86988268891764e-015 197.862903225806
vertex 87.0 2.53796983429311e-014 214.0
endloop
endfacet
facet normal -4.34558852252301e-016 1.0 -4.80095231482463e-017
outer loop
vertex 0.0 9.86988268891764e-015 197.862903225806
vertex 85.0 3.66595642731227e-014 211.594918921606
vertex -2.25597318603832e-014 1.48048240333765e-014 195.828789889348
endloop
endfacet
facet normal -4.34558852252301e-016 1.0 -4.80095231482463e-017
outer loop
vertex 99.0 5.92192961335058e-014 214.0
vertex 95.0 4.79394302033143e-014 142.0
vertex 87.0 2.53796983429311e-014 214.0
endloop
endfacet
facet normal -4.34558852252301e-016 1.0 -4.80095231482463e-017
outer loop
vertex 95.0 4.79394302033143e-014 142.0
vertex 99.0 5.92192961335058e-014 214.0
vertex 99.0 4.79394302033143e-014 32.0
endloop
endfacet
facet normal -4.34558852252301e-016 1.0 -4.80095231482463e-017
outer loop
vertex 87.0 2.53796983429311e-014 214.0
vertex 95.0 4.79394302033143e-014 142.0
vertex 94.9318516525781 4.79394302033143e-014 142.517638090205
endloop
endfacet
facet normal -4.34558852252301e-016 1.0 -4.80095231482463e-017
outer loop
vertex 87.0 2.53796983429311e-014 214.0
vertex 94.9318516525781 4.79394302033143e-014 142.517638090205
vertex 85.0 3.66595642731227e-014 211.594918921606
endloop
endfacet
facet normal -4.34558852252301e-016 1.0 -4.80095231482463e-017
outer loop
vertex 85.0 3.66595642731227e-014 211.594918921606
vertex 94.9318516525781 4.79394302033143e-014 142.517638090205
vertex 94.7320508075688 4.79394302033143e-014 143.0
endloop
endfacet
facet normal -4.34558852252301e-016 1.0 -4.80095231482463e-017
outer loop
vertex 85.0 3.66595642731227e-014 211.594918921606
vertex 94.7320508075688 4.79394302033143e-014 143.0
vertex 94.4142135623731 4.79394302033143e-014 143.414213562373
endloop
endfacet
facet normal -4.34558852252301e-016 1.0 -4.80095231482463e-017
outer loop
vertex 85.0 3.66595642731227e-014 211.594918921606
vertex 94.4142135623731 4.79394302033143e-014 143.414213562373
vertex 94.0 4.79394302033143e-014 143.732050807569
endloop
endfacet
facet normal -4.34558852252301e-016 1.0 -4.80095231482463e-017
outer loop
vertex 85.0 3.66595642731227e-014 211.594918921606
vertex 94.0 4.79394302033143e-014 143.732050807569
vertex 93.517638090205 4.79394302033143e-014 143.931851652578
endloop
endfacet
facet normal -4.34558852252301e-016 1.0 -4.80095231482463e-017
outer loop
vertex 85.0 3.66595642731227e-014 211.594918921606
vertex 93.517638090205 4.79394302033143e-014 143.931851652578
vertex 93.0 4.79394302033143e-014 144.0
endloop
endfacet
facet normal -4.34558852252301e-016 1.0 -4.80095231482463e-017
outer loop
vertex 95.0 4.79394302033143e-014 142.0
vertex 99.0 4.79394302033143e-014 32.0
vertex 94.9318516525781 4.79394302033143e-014 141.482361909795
endloop
endfacet
facet normal -4.34558852252301e-016 1.0 -4.80095231482463e-017
outer loop
vertex 94.9318516525781 4.79394302033143e-014 141.482361909795
vertex 99.0 4.79394302033143e-014 32.0
vertex 94.7320508075688 4.79394302033143e-014 141.0
endloop
endfacet
facet normal -4.34558852252301e-016 1.0 -4.80095231482463e-017
outer loop
vertex 94.7320508075688 4.79394302033143e-014 141.0
vertex 99.0 4.79394302033143e-014 32.0
vertex 94.4142135623731 4.79394302033143e-014 140.585786437627
endloop
endfacet
facet normal -4.34558852252301e-016 1.0 -4.80095231482463e-017
outer loop
vertex 94.4142135623731 4.79394302033143e-014 140.585786437627
vertex 99.0 4.79394302033143e-014 32.0
vertex 94.0 4.79394302033143e-014 140.267949192431
endloop
endfacet
facet normal -4.34558852252301e-016 1.0 -4.80095231482463e-017
outer loop
vertex 94.0 4.79394302033143e-014 140.267949192431
vertex 99.0 4.79394302033143e-014 32.0
vertex 93.517638090205 4.79394302033143e-014 140.068148347422
endloop
endfacet
facet normal -4.34558852252301e-016 1.0 -4.80095231482463e-017
outer loop
vertex 93.517638090205 4.79394302033143e-014 140.068148347422
vertex 99.0 4.79394302033143e-014 32.0
vertex 93.0 4.79394302033143e-014 140.0
endloop
endfacet
facet normal -4.34558852252301e-016 1.0 -4.80095231482463e-017
outer loop
vertex 93.0 4.79394302033143e-014 140.0
vertex 99.0 4.79394302033143e-014 32.0
vertex 94.9318516525781 4.79394302033143e-014 62.517638090205
endloop
endfacet
facet normal -4.34558852252301e-016 1.0 -4.80095231482463e-017
outer loop
vertex 93.0 4.79394302033143e-014 140.0
vertex 94.9318516525781 4.79394302033143e-014 62.517638090205
vertex 94.7320508075688 4.79394302033143e-014 63.0
endloop
endfacet
facet normal -4.34558852252301e-016 1.0 -4.80095231482463e-017
outer loop
vertex 93.0 4.79394302033143e-014 140.0
vertex 94.7320508075688 4.79394302033143e-014 63.0
vertex 94.4142135623731 4.79394302033143e-014 63.4142135623731
endloop
endfacet
facet normal -4.34558852252301e-016 1.0 -4.80095231482463e-017
outer loop
vertex 93.0 4.79394302033143e-014 140.0
vertex 94.4142135623731 4.79394302033143e-014 63.4142135623731
vertex 94.0 4.79394302033143e-014 63.7320508075688
endloop
endfacet
facet normal -4.34558852252301e-016 1.0 -4.80095231482463e-017
outer loop
vertex 93.0 4.79394302033143e-014 140.0
vertex 94.0 4.79394302033143e-014 63.7320508075688
vertex 93.517638090205 4.79394302033143e-014 63.9318516525781
endloop
endfacet
facet normal -4.34558852252301e-016 1.0 -4.80095231482463e-017
outer loop
vertex 93.0 4.79394302033143e-014 140.0
vertex 93.517638090205 4.79394302033143e-014 63.9318516525781
vertex 93.0 4.79394302033143e-014 64.0
endloop
endfacet
facet normal -4.34558852252301e-016 1.0 -4.80095231482463e-017
outer loop
vertex 94.9318516525781 4.79394302033143e-014 62.517638090205
vertex 99.0 4.79394302033143e-014 32.0
vertex 95.0 4.79394302033143e-014 62.0
endloop
endfacet
facet normal -4.34558852252301e-016 1.0 -4.80095231482463e-017
outer loop
vertex 95.0 4.79394302033143e-014 62.0
vertex 99.0 4.79394302033143e-014 32.0
vertex 94.9318516525781 4.79394302033143e-014 61.4823619097949
endloop
endfacet
facet normal -4.34558852252301e-016 1.0 -4.80095231482463e-017
outer loop
vertex 94.9318516525781 4.79394302033143e-014 61.4823619097949
vertex 99.0 4.79394302033143e-014 32.0
vertex 94.7320508075688 4.79394302033143e-014 61.0
endloop
endfacet
facet normal -4.34558852252301e-016 1.0 -4.80095231482463e-017
outer loop
vertex 94.7320508075688 4.79394302033143e-014 61.0
vertex 99.0 4.79394302033143e-014 32.0
vertex 94.4142135623731 4.79394302033143e-014 60.5857864376269
endloop
endfacet
facet normal -4.34558852252301e-016 1.0 -4.80095231482463e-017
outer loop
vertex 94.4142135623731 4.79394302033143e-014 60.5857864376269
vertex 99.0 4.79394302033143e-014 32.0
vertex 94.0 4.79394302033143e-014 60.2679491924311
endloop
endfacet
facet normal -4.34558852252301e-016 1.0 -4.80095231482463e-017
outer loop
vertex 94.0 4.79394302033143e-014 60.2679491924311
vertex 99.0 4.79394302033143e-014 32.0
vertex 93.517638090205 4.79394302033143e-014 60.0681483474219
endloop
endfacet
facet normal -4.34558852252301e-016 1.0 -4.80095231482463e-017
outer loop
vertex 93.517638090205 4.79394302033143e-014 60.0681483474219
vertex 99.0 4.79394302033143e-014 32.0
vertex 93.0 4.79394302033143e-014 60.0
endloop
endfacet
facet normal -4.34558852252301e-016 1.0 -4.80095231482463e-017
outer loop
vertex 93.0 4.79394302033143e-014 60.0
vertex 99.0 4.79394302033143e-014 32.0
vertex 85.0 4.79394302033143e-014 34.0
endloop
endfacet
facet normal -4.34558852252301e-016 1.0 -4.80095231482463e-017
outer loop
vertex 85.0 4.79394302033143e-014 34.0
vertex 99.0 4.79394302033143e-014 32.0
vertex 40.0 2.8199664825479e-015 32.0
endloop
endfacet
facet normal -4.34558852252301e-016 1.0 -4.80095231482463e-017
outer loop
vertex 40.0 2.8199664825479e-015 32.0
vertex 40.0 2.8199664825479e-015 34.0
vertex 85.0 4.79394302033143e-014 34.0
endloop
endfacet
facet normal -3.26454919113679e-019 1.0 1.87905603583811e-016
outer loop
vertex 0.0 2.99999999999999 151.0
vertex 0.0 2.99999999999999 153.0
vertex 38.0 2.99999999999999 151.0
endloop
endfacet
facet normal -3.26454919113679e-019 1.0 1.87905603583811e-016
outer loop
vertex 40.0 2.99999999999999 153.0
vertex 38.0 2.99999999999999 151.0
vertex 0.0 2.99999999999999 153.0
endloop
endfacet
facet normal -3.26454919113679e-019 1.0 1.87905603583811e-016
outer loop
vertex 38.0 2.99999999999999 151.0
vertex 40.0 2.99999999999999 153.0
vertex 40.0 3.00000000000001 32.0
endloop
endfacet
facet normal -3.26454919113679e-019 1.0 1.87905603583811e-016
outer loop
vertex 38.0 2.99999999999999 151.0
vertex 40.0 3.00000000000001 32.0
vertex 38.0 3.00000000000001 32.0
endloop
endfacet
facet normal 0.258819045102534 0.0 0.965925826289065
outer loop
vertex 92.4823619097949 -5.99999999999995 60.0681483474219
vertex 92.0 4.79394302033143e-014 60.2679491924311
vertex 92.0 -5.99999999999995 60.2679491924311
endloop
endfacet
facet normal 0.499999999999994 0.0 0.866025403784442
outer loop
vertex 92.0 4.79394302033143e-014 60.2679491924311
vertex 92.4823619097949 -5.99999999999995 60.0681483474219
vertex 92.4823619097949 4.79394302033143e-014 60.0681483474219
endloop
endfacet
facet normal -0.866025403784446 0.0 -0.499999999999986
outer loop
vertex 94.7320508075688 -5.99999999999995 63.0
vertex 94.4142135623731 4.79394302033143e-014 63.4142135623731
vertex 94.7320508075688 4.79394302033143e-014 63.0
endloop
endfacet
facet normal -0.707106781186548 0.0 -0.707106781186548
outer loop
vertex 94.4142135623731 4.79394302033143e-014 63.4142135623731
vertex 94.7320508075688 -5.99999999999995 63.0
vertex 94.4142135623731 -5.99999999999995 63.4142135623731
endloop
endfacet
facet normal 0.707106781186548 0.0 -0.707106781186548
outer loop
vertex 91.5857864376269 -5.99999999999995 63.4142135623731
vertex 91.2679491924311 4.79394302033143e-014 63.0
vertex 91.5857864376269 4.79394302033143e-014 63.4142135623731
endloop
endfacet
facet normal 0.866025403784431 0.0 -0.500000000000014
outer loop
vertex 91.2679491924311 4.79394302033143e-014 63.0
vertex 91.5857864376269 -5.99999999999995 63.4142135623731
vertex 91.2679491924311 -5.99999999999995 63.0
endloop
endfacet
facet normal 1.0 1.15290436061805e-016 -4.08094349940528e-033
outer loop
vertex 44.0 -6.0 157.0
vertex 44.0 -3.0 38.0
vertex 44.0 -3.0 157.0
endloop
endfacet
facet normal 1.0 1.15290436061805e-016 -4.08094349940528e-033
outer loop
vertex 44.0 -3.0 38.0
vertex 44.0 -6.0 157.0
vertex 44.0 -6.0 38.0
endloop
endfacet
facet normal 0.0 0.0 -1.0
outer loop
vertex 38.0 2.99999999999999 151.0
vertex 0.0 -6.00000000000001 151.0
vertex 0.0 2.99999999999999 151.0
endloop
endfacet
facet normal 0.0 0.0 -1.0
outer loop
vertex 0.0 -6.00000000000001 151.0
vertex 38.0 2.99999999999999 151.0
vertex 38.0 -6.00000000000001 151.0
endloop
endfacet
facet normal -0.965925826289066 0.0 -0.258819045102529
outer loop
vertex 94.9318516525781 -5.99999999999995 142.517638090205
vertex 94.7320508075688 4.79394302033143e-014 143.0
vertex 94.9318516525781 4.79394302033143e-014 142.517638090205
endloop
endfacet
facet normal -0.866025403784446 0.0 -0.499999999999986
outer loop
vertex 94.7320508075688 4.79394302033143e-014 143.0
vertex 94.9318516525781 -5.99999999999995 142.517638090205
vertex 94.7320508075688 -5.99999999999995 143.0
endloop
endfacet
facet normal -0.866025403784446 0.0 -0.499999999999986
outer loop
vertex 94.7320508075688 -5.99999999999995 143.0
vertex 94.4142135623731 4.79394302033143e-014 143.414213562373
vertex 94.7320508075688 4.79394302033143e-014 143.0
endloop
endfacet
facet normal -0.707106781186548 0.0 -0.707106781186548
outer loop
vertex 94.4142135623731 4.79394302033143e-014 143.414213562373
vertex 94.7320508075688 -5.99999999999995 143.0
vertex 94.4142135623731 -5.99999999999995 143.414213562373
endloop
endfacet
facet normal -0.258819045102533 -0.0 0.965925826289065
outer loop
vertex 93.517638090205 -5.99999999999995 140.068148347422
vertex 93.0 4.79394302033143e-014 140.0
vertex 93.0 -5.99999999999995 140.0
endloop
endfacet
facet normal 5.64073256394447e-015 0.0 1.0
outer loop
vertex 93.0 4.79394302033143e-014 140.0
vertex 93.517638090205 -5.99999999999995 140.068148347422
vertex 93.517638090205 4.79394302033143e-014 140.068148347422
endloop
endfacet
facet normal 0.499999999999994 0.0 -0.866025403784442
outer loop
vertex 92.0 4.79394302033143e-014 143.732050807569
vertex 91.5857864376269 -5.99999999999995 143.414213562373
vertex 91.5857864376269 4.79394302033143e-014 143.414213562373
endloop
endfacet
facet normal 0.707106781186548 0.0 -0.707106781186548
outer loop
vertex 91.5857864376269 -5.99999999999995 143.414213562373
vertex 92.0 4.79394302033143e-014 143.732050807569
vertex 92.0 -5.99999999999995 143.732050807569
endloop
endfacet
facet normal 0.499999999999997 0.0 0.866025403784441
outer loop
vertex 92.0 -5.99999999999995 140.267949192431
vertex 91.5857864376269 4.79394302033143e-014 140.585786437627
vertex 91.5857864376269 -5.99999999999995 140.585786437627
endloop
endfacet
facet normal 0.707106781186548 0.0 0.707106781186548
outer loop
vertex 91.5857864376269 4.79394302033143e-014 140.585786437627
vertex 92.0 -5.99999999999995 140.267949192431
vertex 92.0 4.79394302033143e-014 140.267949192431
endloop
endfacet
facet normal 0.707106781186548 0.0 -0.707106781186548
outer loop
vertex 91.5857864376269 -5.99999999999995 143.414213562373
vertex 91.2679491924311 4.79394302033143e-014 143.0
vertex 91.5857864376269 4.79394302033143e-014 143.414213562373
endloop
endfacet
facet normal 0.866025403784446 0.0 -0.499999999999986
outer loop
vertex 91.2679491924311 4.79394302033143e-014 143.0
vertex 91.5857864376269 -5.99999999999995 143.414213562373
vertex 91.2679491924311 -5.99999999999995 143.0
endloop
endfacet
facet normal 0.965925826289066 0.0 -0.258819045102529
outer loop
vertex 91.0681483474218 -5.99999999999995 142.517638090205
vertex 91.0 4.79394302033143e-014 142.0
vertex 91.0681483474218 4.79394302033143e-014 142.517638090205
endloop
endfacet
facet normal 1.0 0.0 0.0
outer loop
vertex 91.0 4.79394302033143e-014 142.0
vertex 91.0681483474218 -5.99999999999995 142.517638090205
vertex 91.0 -5.99999999999995 142.0
endloop
endfacet
facet normal -0.258819045102533 0.0 -0.965925826289065
outer loop
vertex 93.517638090205 4.79394302033143e-014 143.931851652578
vertex 93.0 -5.99999999999995 144.0
vertex 93.0 4.79394302033143e-014 144.0
endloop
endfacet
facet normal 2.14133970792395e-014 0.0 -1.0
outer loop
vertex 93.0 -5.99999999999995 144.0
vertex 93.517638090205 4.79394302033143e-014 143.931851652578
vertex 93.517638090205 -5.99999999999995 143.931851652578
endloop
endfacet
facet normal -0.500000000000011 -0.0 0.866025403784432
outer loop
vertex 94.0 -5.99999999999995 140.267949192431
vertex 93.517638090205 4.79394302033143e-014 140.068148347422
vertex 93.517638090205 -5.99999999999995 140.068148347422
endloop
endfacet
facet normal -0.258819045102533 -0.0 0.965925826289065
outer loop
vertex 93.517638090205 4.79394302033143e-014 140.068148347422
vertex 94.0 -5.99999999999995 140.267949192431
vertex 94.0 4.79394302033143e-014 140.267949192431
endloop
endfacet
facet normal -0.707106781186548 -0.0 0.707106781186548
outer loop
vertex 94.4142135623731 -5.99999999999995 140.585786437627
vertex 94.7320508075688 4.79394302033143e-014 141.0
vertex 94.4142135623731 4.79394302033143e-014 140.585786437627
endloop
endfacet
facet normal -0.866025403784446 -0.0 0.499999999999986
outer loop
vertex 94.7320508075688 4.79394302033143e-014 141.0
vertex 94.4142135623731 -5.99999999999995 140.585786437627
vertex 94.7320508075688 -5.99999999999995 141.0
endloop
endfacet
facet normal -0.707106781186548 -0.0 0.707106781186548
outer loop
vertex 94.4142135623731 -5.99999999999995 140.585786437627
vertex 94.0 4.79394302033143e-014 140.267949192431
vertex 94.0 -5.99999999999995 140.267949192431
endloop
endfacet
facet normal -0.500000000000011 -0.0 0.866025403784432
outer loop
vertex 94.0 4.79394302033143e-014 140.267949192431
vertex 94.4142135623731 -5.99999999999995 140.585786437627
vertex 94.4142135623731 4.79394302033143e-014 140.585786437627
endloop
endfacet
facet normal 1.0 0.0 0.0
outer loop
vertex 99.0 -5.99999999999995 214.0
vertex 99.0 4.79394302033143e-014 32.0
vertex 99.0 5.92192961335058e-014 214.0
endloop
endfacet
facet normal 1.0 0.0 0.0
outer loop
vertex 99.0 4.79394302033143e-014 32.0
vertex 99.0 -5.99999999999995 214.0
vertex 99.0 -5.99999999999995 32.0
endloop
endfacet
facet normal -1.0 -1.15290436061805e-016 4.81552913432859e-034
outer loop
vertex 81.0 -5.99999999999999 38.0
vertex 81.0 -2.99999999999998 206.784756764819
vertex 81.0 -2.99999999999998 38.0
endloop
endfacet
facet normal -1.0 -1.15290436061805e-016 4.81552913432859e-034
outer loop
vertex 81.0 -2.99999999999998 206.784756764819
vertex 81.0 -5.99999999999999 38.0
vertex 81.0 -5.99999999999999 206.784756764819
endloop
endfacet
facet normal 1.34795765922668e-032 -3.30257897277839e-017 1.0
outer loop
vertex 81.0 -5.99999999999999 38.0
vertex 44.0 -3.0 38.0
vertex 44.0 -6.0 38.0
endloop
endfacet
facet normal 1.34795765922668e-032 -3.30257897277839e-017 1.0
outer loop
vertex 44.0 -3.0 38.0
vertex 81.0 -5.99999999999999 38.0
vertex 81.0 -2.99999999999998 38.0
endloop
endfacet
facet normal 0.0 0.0 1.0
outer loop
vertex 99.0 -5.99999999999995 214.0
vertex 87.0 2.53796983429311e-014 214.0
vertex 87.0 -5.99999999999998 214.0
endloop
endfacet
facet normal 0.0 0.0 1.0
outer loop
vertex 87.0 2.53796983429311e-014 214.0
vertex 99.0 -5.99999999999995 214.0
vertex 99.0 5.92192961335058e-014 214.0
endloop
endfacet
facet normal -0.500000000000011 0.0 -0.866025403784432
outer loop
vertex 94.0 4.79394302033143e-014 143.732050807569
vertex 93.517638090205 -5.99999999999995 143.931851652578
vertex 93.517638090205 4.79394302033143e-014 143.931851652578
endloop
endfacet
facet normal -0.258819045102533 0.0 -0.965925826289065
outer loop
vertex 93.517638090205 -5.99999999999995 143.931851652578
vertex 94.0 4.79394302033143e-014 143.732050807569
vertex 94.0 -5.99999999999995 143.732050807569
endloop
endfacet
facet normal 0.258819045102522 0.0 0.965925826289068
outer loop
vertex 92.4823619097949 -5.99999999999995 140.068148347422
vertex 92.0 4.79394302033143e-014 140.267949192431
vertex 92.0 -5.99999999999995 140.267949192431
endloop
endfacet
facet normal 0.499999999999997 0.0 0.866025403784441
outer loop
vertex 92.0 4.79394302033143e-014 140.267949192431
vertex 92.4823619097949 -5.99999999999995 140.068148347422
vertex 92.4823619097949 4.79394302033143e-014 140.068148347422
endloop
endfacet
facet normal -1.0 0.0 0.0
outer loop
vertex 38.0 -6.0 32.0
vertex 38.0 2.99999999999999 151.0
vertex 38.0 3.00000000000001 32.0
endloop
endfacet
facet normal -1.0 0.0 0.0
outer loop
vertex 38.0 2.99999999999999 151.0
vertex 38.0 -6.0 32.0
vertex 38.0 -6.00000000000001 151.0
endloop
endfacet
facet normal -0.707106781186548 0.0 -0.707106781186548
outer loop
vertex 94.4142135623731 4.79394302033143e-014 143.414213562373
vertex 94.0 -5.99999999999995 143.732050807569
vertex 94.0 4.79394302033143e-014 143.732050807569
endloop
endfacet
facet normal -0.500000000000011 0.0 -0.866025403784432
outer loop
vertex 94.0 -5.99999999999995 143.732050807569
vertex 94.4142135623731 4.79394302033143e-014 143.414213562373
vertex 94.4142135623731 -5.99999999999995 143.414213562373
endloop
endfacet
facet normal 1.0 0.0 0.0
outer loop
vertex 91.0 -5.99999999999995 142.0
vertex 91.0681483474218 4.79394302033143e-014 141.482361909795
vertex 91.0 4.79394302033143e-014 142.0
endloop
endfacet
facet normal 0.965925826289066 0.0 0.258819045102529
outer loop
vertex 91.0681483474218 4.79394302033143e-014 141.482361909795
vertex 91.0 -5.99999999999995 142.0
vertex 91.0681483474218 -5.99999999999995 141.482361909795
endloop
endfacet
facet normal -0.866025403784446 -0.0 0.499999999999986
outer loop
vertex 94.7320508075688 -5.99999999999995 141.0
vertex 94.9318516525781 4.79394302033143e-014 141.482361909795
vertex 94.7320508075688 4.79394302033143e-014 141.0
endloop
endfacet
facet normal -0.965925826289066 -0.0 0.258819045102529
outer loop
vertex 94.9318516525781 4.79394302033143e-014 141.482361909795
vertex 94.7320508075688 -5.99999999999995 141.0
vertex 94.9318516525781 -5.99999999999995 141.482361909795
endloop
endfacet
facet normal 0.866025403784446 0.0 0.499999999999986
outer loop
vertex 91.2679491924311 -5.99999999999995 141.0
vertex 91.5857864376269 4.79394302033143e-014 140.585786437627
vertex 91.2679491924311 4.79394302033143e-014 141.0
endloop
endfacet
facet normal 0.707106781186548 0.0 0.707106781186548
outer loop
vertex 91.5857864376269 4.79394302033143e-014 140.585786437627
vertex 91.2679491924311 -5.99999999999995 141.0
vertex 91.5857864376269 -5.99999999999995 140.585786437627
endloop
endfacet
facet normal 0.866025403784446 0.0 -0.499999999999986
outer loop
vertex 91.2679491924311 -5.99999999999995 143.0
vertex 91.0681483474218 4.79394302033143e-014 142.517638090205
vertex 91.2679491924311 4.79394302033143e-014 143.0
endloop
endfacet
facet normal 0.965925826289066 0.0 -0.258819045102529
outer loop
vertex 91.0681483474218 4.79394302033143e-014 142.517638090205
vertex 91.2679491924311 -5.99999999999995 143.0
vertex 91.0681483474218 -5.99999999999995 142.517638090205
endloop
endfacet
facet normal 0.258819045102534 0.0 -0.965925826289065
outer loop
vertex 92.4823619097949 4.79394302033143e-014 143.931851652578
vertex 92.0 -5.99999999999995 143.732050807569
vertex 92.0 4.79394302033143e-014 143.732050807569
endloop
endfacet
facet normal 0.499999999999994 0.0 -0.866025403784442
outer loop
vertex 92.0 -5.99999999999995 143.732050807569
vertex 92.4823619097949 4.79394302033143e-014 143.931851652578
vertex 92.4823619097949 -5.99999999999995 143.931851652578
endloop
endfacet
facet normal 2.14133970792395e-014 0.0 -1.0
outer loop
vertex 93.0 4.79394302033143e-014 144.0
vertex 92.4823619097949 -5.99999999999995 143.931851652578
vertex 92.4823619097949 4.79394302033143e-014 143.931851652578
endloop
endfacet
facet normal 0.258819045102534 0.0 -0.965925826289065
outer loop
vertex 92.4823619097949 -5.99999999999995 143.931851652578
vertex 93.0 4.79394302033143e-014 144.0
vertex 93.0 -5.99999999999995 144.0
endloop
endfacet
facet normal 5.64073256394447e-015 0.0 1.0
outer loop
vertex 93.0 -5.99999999999995 140.0
vertex 92.4823619097949 4.79394302033143e-014 140.068148347422
vertex 92.4823619097949 -5.99999999999995 140.068148347422
endloop
endfacet
facet normal 0.258819045102522 0.0 0.965925826289068
outer loop
vertex 92.4823619097949 4.79394302033143e-014 140.068148347422
vertex 93.0 -5.99999999999995 140.0
vertex 93.0 4.79394302033143e-014 140.0
endloop
endfacet
facet normal -3.741197576709e-016 3.2082192220741e-017 -1.0
outer loop
vertex 40.0 3.00000000000001 32.0
vertex 38.0 -6.0 32.0
vertex 38.0 3.00000000000001 32.0
endloop
endfacet
facet normal -3.741197576709e-016 3.2082192220741e-017 -1.0
outer loop
vertex 38.0 -6.0 32.0
vertex 40.0 3.00000000000001 32.0
vertex 40.0 2.8199664825479e-015 32.0
endloop
endfacet
facet normal -3.741197576709e-016 3.2082192220741e-017 -1.0
outer loop
vertex 38.0 -6.0 32.0
vertex 40.0 2.8199664825479e-015 32.0
vertex 99.0 -5.99999999999995 32.0
endloop
endfacet
facet normal -3.741197576709e-016 3.2082192220741e-017 -1.0
outer loop
vertex 99.0 -5.99999999999995 32.0
vertex 40.0 2.8199664825479e-015 32.0
vertex 99.0 4.79394302033143e-014 32.0
endloop
endfacet
facet normal 0.965925826289066 0.0 0.258819045102529
outer loop
vertex 91.0681483474218 -5.99999999999995 141.482361909795
vertex 91.2679491924311 4.79394302033143e-014 141.0
vertex 91.0681483474218 4.79394302033143e-014 141.482361909795
endloop
endfacet
facet normal 0.866025403784446 0.0 0.499999999999986
outer loop
vertex 91.2679491924311 4.79394302033143e-014 141.0
vertex 91.0681483474218 -5.99999999999995 141.482361909795
vertex 91.2679491924311 -5.99999999999995 141.0
endloop
endfacet
facet normal -1.0 0.0 0.0
outer loop
vertex 95.0 -5.99999999999995 142.0
vertex 94.9318516525781 4.79394302033143e-014 142.517638090205
vertex 95.0 4.79394302033143e-014 142.0
endloop
endfacet
facet normal -0.965925826289066 0.0 -0.258819045102529
outer loop
vertex 94.9318516525781 4.79394302033143e-014 142.517638090205
vertex 95.0 -5.99999999999995 142.0
vertex 94.9318516525781 -5.99999999999995 142.517638090205
endloop
endfacet
facet normal 3.86634021447434e-016 -1.0 3.03189745468878e-017
outer loop
vertex 0.0 -6.0 197.862903225806
vertex 99.0 -5.99999999999995 214.0
vertex 87.0 -5.99999999999998 214.0
endloop
endfacet
facet normal 3.86634021447434e-016 -1.0 3.03189745468878e-017
outer loop
vertex 99.0 -5.99999999999995 214.0
vertex 0.0 -6.0 197.862903225806
vertex 81.0 -5.99999999999999 206.784756764819
endloop
endfacet
facet normal 3.86634021447434e-016 -1.0 3.03189745468878e-017
outer loop
vertex 81.0 -5.99999999999999 206.784756764819
vertex 0.0 -6.0 197.862903225806
vertex 0.0 -5.99999999999999 191.760563216432
endloop
endfacet
facet normal 3.86634021447434e-016 -1.0 3.03189745468878e-017
outer loop
vertex 0.0 -6.00000000000001 151.0
vertex 44.0 -6.0 157.0
vertex 0.0 -6.0 157.0
endloop
endfacet
facet normal 3.86634021447434e-016 -1.0 3.03189745468878e-017
outer loop
vertex 44.0 -6.0 157.0
vertex 0.0 -6.00000000000001 151.0
vertex 38.0 -6.00000000000001 151.0
endloop
endfacet
facet normal 3.86634021447434e-016 -1.0 3.03189745468878e-017
outer loop
vertex 44.0 -6.0 157.0
vertex 38.0 -6.00000000000001 151.0
vertex 44.0 -6.0 38.0
endloop
endfacet
facet normal 3.86634021447434e-016 -1.0 3.03189745468878e-017
outer loop
vertex 44.0 -6.0 38.0
vertex 38.0 -6.00000000000001 151.0
vertex 38.0 -6.0 32.0
endloop
endfacet
facet normal 3.86634021447434e-016 -1.0 3.03189745468878e-017
outer loop
vertex 44.0 -6.0 38.0
vertex 38.0 -6.0 32.0
vertex 81.0 -5.99999999999999 38.0
endloop
endfacet
facet normal 3.86634021447434e-016 -1.0 3.03189745468878e-017
outer loop
vertex 81.0 -5.99999999999999 206.784756764819
vertex 99.0 -5.99999999999995 32.0
vertex 99.0 -5.99999999999995 214.0
endloop
endfacet
facet normal 3.86634021447434e-016 -1.0 3.03189745468878e-017
outer loop
vertex 99.0 -5.99999999999995 32.0
vertex 81.0 -5.99999999999999 206.784756764819
vertex 81.0 -5.99999999999999 38.0
endloop
endfacet
facet normal 3.86634021447434e-016 -1.0 3.03189745468878e-017
outer loop
vertex 99.0 -5.99999999999995 32.0
vertex 81.0 -5.99999999999999 38.0
vertex 38.0 -6.0 32.0
endloop
endfacet
facet normal -2.90373872316155e-016 1.0 -5.30473982148363e-017
outer loop
vertex 85.0 -2.99999999999996 34.0
vertex 81.0 -2.99999999999998 206.784756764819
vertex 85.0 -2.99999999999996 211.594918921606
endloop
endfacet
facet normal -2.90373872316155e-016 1.0 -5.30473982148363e-017
outer loop
vertex 81.0 -2.99999999999998 206.784756764819
vertex 85.0 -2.99999999999996 34.0
vertex 81.0 -2.99999999999998 38.0
endloop
endfacet
facet normal -2.90373872316155e-016 1.0 -5.30473982148363e-017
outer loop
vertex 81.0 -2.99999999999998 38.0
vertex 85.0 -2.99999999999996 34.0
vertex 44.0 -3.0 38.0
endloop
endfacet
facet normal -2.90373872316155e-016 1.0 -5.30473982148363e-017
outer loop
vertex 44.0 -3.0 38.0
vertex 85.0 -2.99999999999996 34.0
vertex 40.0 -2.99999999999999 34.0
endloop
endfacet
facet normal -2.90373872316155e-016 1.0 -5.30473982148363e-017
outer loop
vertex 44.0 -3.0 157.0
vertex 40.0 -3.0 153.0
vertex 0.0 -2.99999999999999 157.0
endloop
endfacet
facet normal -2.90373872316155e-016 1.0 -5.30473982148363e-017
outer loop
vertex 40.0 -3.0 153.0
vertex 44.0 -3.0 157.0
vertex 44.0 -3.0 38.0
endloop
endfacet
facet normal -2.90373872316155e-016 1.0 -5.30473982148363e-017
outer loop
vertex 40.0 -3.0 153.0
vertex 44.0 -3.0 38.0
vertex 40.0 -2.99999999999999 34.0
endloop
endfacet
facet normal -2.90373872316155e-016 1.0 -5.30473982148363e-017
outer loop
vertex 0.0 -3.0 153.0
vertex 0.0 -2.99999999999999 157.0
vertex 40.0 -3.0 153.0
endloop
endfacet
facet normal -2.90373872316155e-016 1.0 -5.30473982148363e-017
outer loop
vertex 81.0 -2.99999999999998 206.784756764819
vertex -2.25597318603832e-014 -2.99999999999998 195.828789889348
vertex 85.0 -2.99999999999996 211.594918921606
endloop
endfacet
facet normal -2.90373872316155e-016 1.0 -5.30473982148363e-017
outer loop
vertex -2.25597318603832e-014 -2.99999999999998 195.828789889348
vertex 81.0 -2.99999999999998 206.784756764819
vertex -2.25597318603832e-014 -2.99999999999999 191.760563216432
endloop
endfacet
facet normal 1.0 2.55676961084343e-015 -1.99632521063933e-015
outer loop
vertex 0.0 9.86988268891764e-015 197.862903225806
vertex -2.25597318603832e-014 -2.99999999999998 195.828789889348
vertex -2.25597318603832e-014 1.48048240333765e-014 195.828789889348
endloop
endfacet
facet normal 1.0 2.55676961084343e-015 -1.99632521063933e-015
outer loop
vertex -2.25597318603832e-014 -2.99999999999998 195.828789889348
vertex 0.0 9.86988268891764e-015 197.862903225806
vertex 0.0 -6.0 197.862903225806
endloop
endfacet
facet normal 1.0 2.55676961084343e-015 -1.99632521063933e-015
outer loop
vertex -2.25597318603832e-014 -2.99999999999998 195.828789889348
vertex 0.0 -6.0 197.862903225806
vertex -2.25597318603832e-014 -2.99999999999999 191.760563216432
endloop
endfacet
facet normal 1.0 2.55676961084343e-015 -1.99632521063933e-015
outer loop
vertex -2.25597318603832e-014 -2.99999999999999 191.760563216432
vertex 0.0 -6.0 197.862903225806
vertex 0.0 -5.99999999999999 191.760563216432
endloop
endfacet
facet normal -1.0 0.0 0.0
outer loop
vertex 85.0 -2.99999999999996 34.0
vertex 85.0 3.66595642731227e-014 211.594918921606
vertex 85.0 4.79394302033143e-014 34.0
endloop
endfacet
facet normal -1.0 0.0 0.0
outer loop
vertex 85.0 3.66595642731227e-014 211.594918921606
vertex 85.0 -2.99999999999996 34.0
vertex 85.0 -2.99999999999996 211.594918921606
endloop
endfacet
facet normal 1.0 0.0 0.0
outer loop
vertex 0.0 -6.0 157.0
vertex 0.0 -3.0 153.0
vertex 0.0 -2.99999999999999 157.0
endloop
endfacet
facet normal 1.0 0.0 0.0
outer loop
vertex 0.0 -3.0 153.0
vertex 0.0 2.99999999999999 151.0
vertex 0.0 2.99999999999999 153.0
endloop
endfacet
facet normal 1.0 0.0 0.0
outer loop
vertex 0.0 2.99999999999999 151.0
vertex 0.0 -3.0 153.0
vertex 0.0 -6.00000000000001 151.0
endloop
endfacet
facet normal 1.0 0.0 0.0
outer loop
vertex 0.0 -6.00000000000001 151.0
vertex 0.0 -3.0 153.0
vertex 0.0 -6.0 157.0
endloop
endfacet
facet normal 5.0928755574796e-016 -1.36071833298758e-016 1.0
outer loop
vertex 85.0 -2.99999999999996 34.0
vertex 40.0 2.8199664825479e-015 34.0
vertex 40.0 -2.99999999999999 34.0
endloop
endfacet
facet normal 5.0928755574796e-016 -1.36071833298758e-016 1.0
outer loop
vertex 40.0 2.8199664825479e-015 34.0
vertex 85.0 -2.99999999999996 34.0
vertex 85.0 4.79394302033143e-014 34.0
endloop
endfacet
facet normal 1.0 0.0 0.0
outer loop
vertex 40.0 -3.0 153.0
vertex 40.0 2.8199664825479e-015 34.0
vertex 40.0 2.99999999999999 153.0
endloop
endfacet
facet normal 1.0 0.0 0.0
outer loop
vertex 40.0 2.8199664825479e-015 34.0
vertex 40.0 -3.0 153.0
vertex 40.0 -2.99999999999999 34.0
endloop
endfacet
facet normal 1.0 0.0 0.0
outer loop
vertex 40.0 2.99999999999999 153.0
vertex 40.0 2.8199664825479e-015 32.0
vertex 40.0 3.00000000000001 32.0
endloop
endfacet
facet normal 1.0 0.0 0.0
outer loop
vertex 40.0 2.8199664825479e-015 32.0
vertex 40.0 2.99999999999999 153.0
vertex 40.0 2.8199664825479e-015 34.0
endloop
endfacet
endsolid konstruktion
