solid konstruktion
facet normal 0.52999894000318 0.0 0.847998304005088
outer loop
vertex -38.0 0.0 2.0
vertex -86.0 76.0 32.0
vertex -86.0 5.63993296509579e-015 32.0
endloop
endfacet
facet normal -1.0 0.0 0.0
outer loop
vertex -86.0 5.63993296509579e-015 32.0
vertex -86.0 73.209534336006 30.8985003957919
vertex -86.0 0.0 2.0
endloop
endfacet
facet normal -1.0 0.0 0.0
outer loop
vertex -86.0 73.209534336006 30.8985003957919
vertex -86.0 5.63993296509579e-015 32.0
vertex -86.0 76.0 32.0
endloop
endfacet
facet normal 1.48450475251487e-032 -1.0 1.87997765503193e-016
outer loop
vertex -86.0 5.63993296509579e-015 32.0
vertex -86.0 0.0 2.0
vertex -38.0 0.0 2.0
endloop
endfacet
facet normal 1.69749332635341e-017 1.0 -3.56372901703834e-033
outer loop
vertex -83.5 2.32538805332831 27.9375
vertex -41.9686661389442 2.32538805332831 2.91791633684012
vertex -83.5 2.32538805332831 2.91791633684012
endloop
endfacet
facet normal 0.0 0.367166534736049 -0.930155221331323
outer loop
vertex -38.0 0.0 2.0
vertex -86.0 73.209534336006 30.8985003957919
vertex -86.0 76.0 32.0
endloop
endfacet
facet normal 0.0 0.367166534736049 -0.930155221331323
outer loop
vertex -86.0 73.209534336006 30.8985003957919
vertex -38.0 0.0 2.0
vertex -83.5 65.7083333333332 27.9375
endloop
endfacet
facet normal 0.0 0.367166534736049 -0.930155221331323
outer loop
vertex -86.0 73.209534336006 30.8985003957919
vertex -83.5 65.7083333333332 27.9375
vertex -86.0 0.0 2.0
endloop
endfacet
facet normal 0.0 0.367166534736049 -0.930155221331323
outer loop
vertex -83.5 65.7083333333332 27.9375
vertex -38.0 0.0 2.0
vertex -41.9686661389442 2.32538805332831 2.91791633684012
endloop
endfacet
facet normal 0.0 0.367166534736049 -0.930155221331323
outer loop
vertex -86.0 0.0 2.0
vertex -83.5 2.32538805332831 2.91791633684012
vertex -38.0 0.0 2.0
endloop
endfacet
facet normal 0.0 0.367166534736049 -0.930155221331323
outer loop
vertex -83.5 2.32538805332831 2.91791633684012
vertex -86.0 0.0 2.0
vertex -83.5 65.7083333333332 27.9375
endloop
endfacet
facet normal 0.0 0.367166534736049 -0.930155221331323
outer loop
vertex -38.0 0.0 2.0
vertex -83.5 2.32538805332831 2.91791633684012
vertex -41.9686661389442 2.32538805332831 2.91791633684012
endloop
endfacet
facet normal 1.0 0.0 0.0
outer loop
vertex -83.5 65.7083333333332 27.9375
vertex -83.5 2.32538805332831 27.9375
vertex -83.5 2.32538805332831 2.91791633684012
endloop
endfacet
facet normal -0.516023345573446 -1.02822026994302e-016 -0.856574519130232
outer loop
vertex -41.9686661389442 2.32538805332831 2.91791633684012
vertex -83.5 2.32538805332831 27.9375
vertex -83.5 65.7083333333332 27.9375
endloop
endfacet
endsolid konstruktion
