solid konstruktion
facet normal 0.0 0.0 -1.0
outer loop
vertex -6.5 76.0 15.0
vertex -2.1733331091504 71.0823428514807 15.0
vertex -2.25 70.5 15.0
endloop
endfacet
facet normal 0.0 0.0 -1.0
outer loop
vertex -2.1733331091504 71.0823428514807 15.0
vertex -6.5 76.0 15.0
vertex -1.94855715851499 71.625 15.0
endloop
endfacet
facet normal 0.0 0.0 -1.0
outer loop
vertex -1.94855715851499 71.625 15.0
vertex -6.5 76.0 15.0
vertex -1.59099025766974 72.0909902576697 15.0
endloop
endfacet
facet normal 0.0 0.0 -1.0
outer loop
vertex -1.59099025766974 72.0909902576697 15.0
vertex -6.5 76.0 15.0
vertex -1.125 72.448557158515 15.0
endloop
endfacet
facet normal 0.0 0.0 -1.0
outer loop
vertex -1.125 72.448557158515 15.0
vertex -6.5 76.0 15.0
vertex -0.582342851480668 72.6733331091504 15.0
endloop
endfacet
facet normal 0.0 0.0 -1.0
outer loop
vertex -0.582342851480668 72.6733331091504 15.0
vertex -6.5 76.0 15.0
vertex 7.5 76.0 15.0
endloop
endfacet
facet normal 0.0 0.0 -1.0
outer loop
vertex -0.582342851480668 72.6733331091504 15.0
vertex 7.5 76.0 15.0
vertex 0.0 72.75 15.0
endloop
endfacet
facet normal 0.0 0.0 -1.0
outer loop
vertex 0.0 72.75 15.0
vertex 7.5 76.0 15.0
vertex 0.582342851480668 72.6733331091504 15.0
endloop
endfacet
facet normal 0.0 0.0 -1.0
outer loop
vertex 0.582342851480668 72.6733331091504 15.0
vertex 7.5 76.0 15.0
vertex 1.125 72.448557158515 15.0
endloop
endfacet
facet normal 0.0 0.0 -1.0
outer loop
vertex 1.125 72.448557158515 15.0
vertex 7.5 76.0 15.0
vertex 1.59099025766974 72.0909902576697 15.0
endloop
endfacet
facet normal 0.0 0.0 -1.0
outer loop
vertex 1.59099025766974 72.0909902576697 15.0
vertex 7.5 76.0 15.0
vertex 1.94855715851499 71.625 15.0
endloop
endfacet
facet normal 0.0 0.0 -1.0
outer loop
vertex 1.94855715851499 71.625 15.0
vertex 7.5 76.0 15.0
vertex 2.1733331091504 71.0823428514807 15.0
endloop
endfacet
facet normal 0.0 0.0 -1.0
outer loop
vertex 2.1733331091504 71.0823428514807 15.0
vertex 7.5 76.0 15.0
vertex 2.25 70.5 15.0
endloop
endfacet
facet normal 0.0 0.0 -1.0
outer loop
vertex 2.25 70.5 15.0
vertex 7.5 76.0 15.0
vertex 2.25 60.5 15.0
endloop
endfacet
facet normal 0.0 0.0 -1.0
outer loop
vertex -6.5 76.0 15.0
vertex -7.5 55.0 15.0
vertex -7.5 76.0 15.0
endloop
endfacet
facet normal 0.0 0.0 -1.0
outer loop
vertex -7.5 55.0 15.0
vertex -6.5 76.0 15.0
vertex -2.1733331091504 59.9176571485193 15.0
endloop
endfacet
facet normal 0.0 0.0 -1.0
outer loop
vertex -7.5 55.0 15.0
vertex -2.1733331091504 59.9176571485193 15.0
vertex -1.94855715851499 59.375 15.0
endloop
endfacet
facet normal 0.0 0.0 -1.0
outer loop
vertex -7.5 55.0 15.0
vertex -1.94855715851499 59.375 15.0
vertex -1.59099025766974 58.9090097423303 15.0
endloop
endfacet
facet normal 0.0 0.0 -1.0
outer loop
vertex -7.5 55.0 15.0
vertex -1.59099025766974 58.9090097423303 15.0
vertex -1.125 58.551442841485 15.0
endloop
endfacet
facet normal 0.0 0.0 -1.0
outer loop
vertex -7.5 55.0 15.0
vertex -1.125 58.551442841485 15.0
vertex -0.582342851480679 58.3266668908496 15.0
endloop
endfacet
facet normal 0.0 0.0 -1.0
outer loop
vertex -7.5 55.0 15.0
vertex -0.582342851480679 58.3266668908496 15.0
vertex 7.5 55.0 15.0
endloop
endfacet
facet normal 0.0 0.0 -1.0
outer loop
vertex -2.1733331091504 59.9176571485193 15.0
vertex -6.5 76.0 15.0
vertex -2.25 60.5 15.0
endloop
endfacet
facet normal 0.0 0.0 -1.0
outer loop
vertex -2.25 60.5 15.0
vertex -6.5 76.0 15.0
vertex -2.25 70.5 15.0
endloop
endfacet
facet normal 0.0 0.0 -1.0
outer loop
vertex 7.5 55.0 15.0
vertex -0.582342851480679 58.3266668908496 15.0
vertex 0.0 58.25 15.0
endloop
endfacet
facet normal 0.0 0.0 -1.0
outer loop
vertex 7.5 55.0 15.0
vertex 0.0 58.25 15.0
vertex 0.582342851480668 58.3266668908496 15.0
endloop
endfacet
facet normal 0.0 0.0 -1.0
outer loop
vertex 7.5 55.0 15.0
vertex 0.582342851480668 58.3266668908496 15.0
vertex 1.125 58.551442841485 15.0
endloop
endfacet
facet normal 0.0 0.0 -1.0
outer loop
vertex 7.5 55.0 15.0
vertex 1.125 58.551442841485 15.0
vertex 1.59099025766974 58.9090097423303 15.0
endloop
endfacet
facet normal 0.0 0.0 -1.0
outer loop
vertex 7.5 55.0 15.0
vertex 1.59099025766974 58.9090097423303 15.0
vertex 1.94855715851499 59.375 15.0
endloop
endfacet
facet normal 0.0 0.0 -1.0
outer loop
vertex 7.5 55.0 15.0
vertex 1.94855715851499 59.375 15.0
vertex 2.1733331091504 59.9176571485193 15.0
endloop
endfacet
facet normal 0.0 0.0 -1.0
outer loop
vertex 7.5 55.0 15.0
vertex 2.1733331091504 59.9176571485193 15.0
vertex 2.25 60.5 15.0
endloop
endfacet
facet normal 0.0 0.0 -1.0
outer loop
vertex 7.5 55.0 15.0
vertex 2.25 60.5 15.0
vertex 7.5 76.0 15.0
endloop
endfacet
facet normal 0.0 0.0 -1.0
outer loop
vertex -2.1733331091504 69.9176571485193 15.0
vertex -2.25 60.5 15.0
vertex -2.25 70.5 15.0
endloop
endfacet
facet normal 0.0 0.0 -1.0
outer loop
vertex -2.25 60.5 15.0
vertex -2.1733331091504 69.9176571485193 15.0
vertex -2.1733331091504 61.0823428514807 15.0
endloop
endfacet
facet normal 0.0 0.0 -1.0
outer loop
vertex -2.1733331091504 61.0823428514807 15.0
vertex -2.1733331091504 69.9176571485193 15.0
vertex -1.94855715851499 69.375 15.0
endloop
endfacet
facet normal 0.0 0.0 -1.0
outer loop
vertex -2.1733331091504 61.0823428514807 15.0
vertex -1.94855715851499 69.375 15.0
vertex -1.94855715851499 61.625 15.0
endloop
endfacet
facet normal 0.0 0.0 -1.0
outer loop
vertex -1.94855715851499 61.625 15.0
vertex -1.94855715851499 69.375 15.0
vertex -1.59099025766974 68.9090097423303 15.0
endloop
endfacet
facet normal 0.0 0.0 -1.0
outer loop
vertex -1.94855715851499 61.625 15.0
vertex -1.59099025766974 68.9090097423303 15.0
vertex -1.59099025766974 62.0909902576697 15.0
endloop
endfacet
facet normal 0.0 0.0 -1.0
outer loop
vertex -1.59099025766974 62.0909902576697 15.0
vertex -1.59099025766974 68.9090097423303 15.0
vertex -1.125 68.551442841485 15.0
endloop
endfacet
facet normal 0.0 0.0 -1.0
outer loop
vertex -1.59099025766974 62.0909902576697 15.0
vertex -1.125 68.551442841485 15.0
vertex -1.125 62.448557158515 15.0
endloop
endfacet
facet normal 0.0 0.0 -1.0
outer loop
vertex -1.125 62.448557158515 15.0
vertex -1.125 68.551442841485 15.0
vertex -0.582342851480668 68.3266668908496 15.0
endloop
endfacet
facet normal 0.0 0.0 -1.0
outer loop
vertex -1.125 62.448557158515 15.0
vertex -0.582342851480668 68.3266668908496 15.0
vertex -0.582342851480668 62.6733331091504 15.0
endloop
endfacet
facet normal 0.0 0.0 -1.0
outer loop
vertex -0.582342851480668 62.6733331091504 15.0
vertex -0.582342851480668 68.3266668908496 15.0
vertex 0.0 68.25 15.0
endloop
endfacet
facet normal 0.0 0.0 -1.0
outer loop
vertex -0.582342851480668 62.6733331091504 15.0
vertex 0.0 68.25 15.0
vertex 0.0 62.75 15.0
endloop
endfacet
facet normal 0.0 0.0 -1.0
outer loop
vertex 0.0 62.75 15.0
vertex 0.0 68.25 15.0
vertex 0.582342851480668 68.3266668908496 15.0
endloop
endfacet
facet normal 0.0 0.0 -1.0
outer loop
vertex 0.0 62.75 15.0
vertex 0.582342851480668 68.3266668908496 15.0
vertex 0.582342851480668 62.6733331091504 15.0
endloop
endfacet
facet normal 0.0 0.0 -1.0
outer loop
vertex 0.582342851480668 62.6733331091504 15.0
vertex 0.582342851480668 68.3266668908496 15.0
vertex 1.125 68.551442841485 15.0
endloop
endfacet
facet normal 0.0 0.0 -1.0
outer loop
vertex 0.582342851480668 62.6733331091504 15.0
vertex 1.125 68.551442841485 15.0
vertex 1.125 62.448557158515 15.0
endloop
endfacet
facet normal 0.0 0.0 -1.0
outer loop
vertex 1.125 62.448557158515 15.0
vertex 1.125 68.551442841485 15.0
vertex 1.59099025766974 68.9090097423303 15.0
endloop
endfacet
facet normal 0.0 0.0 -1.0
outer loop
vertex 1.125 62.448557158515 15.0
vertex 1.59099025766974 68.9090097423303 15.0
vertex 1.59099025766974 62.0909902576697 15.0
endloop
endfacet
facet normal 0.0 0.0 -1.0
outer loop
vertex 1.59099025766974 62.0909902576697 15.0
vertex 1.59099025766974 68.9090097423303 15.0
vertex 1.94855715851499 69.375 15.0
endloop
endfacet
facet normal 0.0 0.0 -1.0
outer loop
vertex 1.59099025766974 62.0909902576697 15.0
vertex 1.94855715851499 69.375 15.0
vertex 1.94855715851499 61.625 15.0
endloop
endfacet
facet normal 0.0 0.0 -1.0
outer loop
vertex 1.94855715851499 61.625 15.0
vertex 1.94855715851499 69.375 15.0
vertex 2.1733331091504 69.9176571485193 15.0
endloop
endfacet
facet normal 0.0 0.0 -1.0
outer loop
vertex 1.94855715851499 61.625 15.0
vertex 2.1733331091504 69.9176571485193 15.0
vertex 2.1733331091504 61.0823428514807 15.0
endloop
endfacet
facet normal 0.0 0.0 -1.0
outer loop
vertex 2.1733331091504 61.0823428514807 15.0
vertex 2.1733331091504 69.9176571485193 15.0
vertex 2.25 70.5 15.0
endloop
endfacet
facet normal 0.0 0.0 -1.0
outer loop
vertex 2.1733331091504 61.0823428514807 15.0
vertex 2.25 70.5 15.0
vertex 2.25 60.5 15.0
endloop
endfacet
facet normal -1.0 0.0 0.0
outer loop
vertex 7.5 76.0 15.0
vertex 7.5 55.0 2.0
vertex 7.5 55.0 15.0
endloop
endfacet
facet normal -1.0 0.0 0.0
outer loop
vertex 7.5 55.0 2.0
vertex 7.5 76.0 15.0
vertex 7.5 76.0 2.0
endloop
endfacet
facet normal -1.0 0.0 0.0
outer loop
vertex -86.0 76.0 32.0
vertex -86.0 8.17067928632618 2.0
vertex -86.0 0.0 2.0
endloop
endfacet
facet normal -1.0 0.0 0.0
outer loop
vertex -86.0 8.17067928632618 2.0
vertex -86.0 76.0 32.0
vertex -86.0 73.0 27.5905213343449
endloop
endfacet
facet normal -1.0 0.0 0.0
outer loop
vertex -86.0 73.0 27.5905213343449
vertex -86.0 76.0 32.0
vertex -86.0 76.0 28.7747318606607
endloop
endfacet
facet normal 7.75179192815227e-017 -0.367166534736049 0.930155221331323
outer loop
vertex -86.0 0.0 2.0
vertex -83.5 2.32538805332831 2.91791633684012
vertex -86.0 76.0 32.0
endloop
endfacet
facet normal 7.75179192815227e-017 -0.367166534736049 0.930155221331323
outer loop
vertex -83.5 2.32538805332831 2.91791633684012
vertex -86.0 0.0 2.0
vertex -38.0 0.0 2.0
endloop
endfacet
facet normal 7.75179192815227e-017 -0.367166534736049 0.930155221331323
outer loop
vertex -83.5 2.32538805332831 2.91791633684012
vertex -38.0 0.0 2.0
vertex -41.9686661389442 2.32538805332831 2.91791633684012
endloop
endfacet
facet normal 7.75179192815227e-017 -0.367166534736049 0.930155221331323
outer loop
vertex -86.0 76.0 32.0
vertex -83.5 65.7083333333333 27.9375
vertex -38.0 0.0 2.0
endloop
endfacet
facet normal 7.75179192815227e-017 -0.367166534736049 0.930155221331323
outer loop
vertex -83.5 65.7083333333333 27.9375
vertex -86.0 76.0 32.0
vertex -83.5 2.32538805332831 2.91791633684012
endloop
endfacet
facet normal 7.75179192815227e-017 -0.367166534736049 0.930155221331323
outer loop
vertex -38.0 0.0 2.0
vertex -83.5 65.7083333333333 27.9375
vertex -41.9686661389442 2.32538805332831 2.91791633684012
endloop
endfacet
facet normal -1.0 0.0 0.0
outer loop
vertex 38.0 55.0 2.0
vertex 38.0 0.0 2.0
vertex 38.0 55.0 23.7105263157895
endloop
endfacet
facet normal 1.0 0.0 7.7933619154051e-016
outer loop
vertex -38.0 55.0 23.7105263157895
vertex -38.0 0.0 2.0
vertex -38.0 55.0 2.0
endloop
endfacet
facet normal 0.0 -1.0 0.0
outer loop
vertex 38.0 55.0 23.7105263157895
vertex 7.5 55.0 2.0
vertex 38.0 55.0 2.0
endloop
endfacet
facet normal 0.0 -1.0 0.0
outer loop
vertex 7.5 55.0 2.0
vertex 38.0 55.0 23.7105263157895
vertex 7.5 55.0 15.0
endloop
endfacet
facet normal 0.0 -1.0 0.0
outer loop
vertex 7.5 55.0 15.0
vertex 38.0 55.0 23.7105263157895
vertex -7.5 55.0 15.0
endloop
endfacet
facet normal 0.0 -1.0 0.0
outer loop
vertex -7.5 55.0 15.0
vertex -38.0 55.0 2.0
vertex -7.5 55.0 2.0
endloop
endfacet
facet normal 0.0 -1.0 0.0
outer loop
vertex -38.0 55.0 2.0
vertex -7.5 55.0 15.0
vertex -38.0 55.0 23.7105263157895
endloop
endfacet
facet normal 0.0 -1.0 0.0
outer loop
vertex -38.0 55.0 23.7105263157895
vertex -7.5 55.0 15.0
vertex 38.0 55.0 23.7105263157895
endloop
endfacet
facet normal 1.0 2.57879930554187e-015 -5.92638447403274e-015
outer loop
vertex 86.0 8.17067928632638 2.0
vertex 86.0 76.0 32.0
vertex 86.0 0.0 2.0
endloop
endfacet
facet normal 1.0 2.57879930554187e-015 -5.92638447403274e-015
outer loop
vertex 86.0 76.0 32.0
vertex 86.0 8.17067928632638 2.0
vertex 85.9999999999999 73.0 27.5905213343449
endloop
endfacet
facet normal 1.0 2.57879930554187e-015 -5.92638447403274e-015
outer loop
vertex 86.0 76.0 32.0
vertex 85.9999999999999 73.0 27.5905213343449
vertex 86.0 76.0 28.7747318606607
endloop
endfacet
facet normal 4.32906863626637e-018 0.367166534736049 -0.930155221331322
outer loop
vertex 85.9999999999999 73.0 27.5905213343449
vertex 41.0 8.17067928632638 2.0
vertex 41.0 73.0 27.5905213343449
endloop
endfacet
facet normal 4.32906863626637e-018 0.367166534736049 -0.930155221331322
outer loop
vertex 41.0 8.17067928632638 2.0
vertex 85.9999999999999 73.0 27.5905213343449
vertex 86.0 8.17067928632638 2.0
endloop
endfacet
facet normal 1.0 0.0 0.0
outer loop
vertex 41.0 73.0 2.0
vertex 41.0 73.0 27.5905213343449
vertex 41.0 8.17067928632638 2.0
endloop
endfacet
facet normal 1.0 0.0 0.0
outer loop
vertex 41.0 73.0 27.5905213343449
vertex 41.0 73.0 2.0
vertex 41.0 73.0 24.5905213343449
endloop
endfacet
facet normal -1.0 0.0 0.0
outer loop
vertex -86.0 76.0 28.7747318606607
vertex -86.0 73.0 24.5905213343449
vertex -86.0 73.0 27.5905213343449
endloop
endfacet
facet normal -1.0 0.0 0.0
outer loop
vertex -86.0 73.0 24.5905213343449
vertex -86.0 76.0 28.7747318606607
vertex -86.0 76.0 25.7747318606607
endloop
endfacet
facet normal 1.0 0.0 0.0
outer loop
vertex 41.0 76.0 2.0
vertex 41.0 73.0 24.5905213343449
vertex 41.0 73.0 2.0
endloop
endfacet
facet normal 1.0 0.0 0.0
outer loop
vertex 41.0 73.0 24.5905213343449
vertex 41.0 76.0 2.0
vertex 41.0 76.0 25.7747318606607
endloop
endfacet
facet normal 0.0 -1.0 0.0
outer loop
vertex 85.9999999999999 73.0 27.5905213343449
vertex 41.0 73.0 24.5905213343449
vertex 85.9999999999999 73.0 24.5905213343449
endloop
endfacet
facet normal 0.0 -1.0 0.0
outer loop
vertex 41.0 73.0 24.5905213343449
vertex 85.9999999999999 73.0 27.5905213343449
vertex 41.0 73.0 27.5905213343449
endloop
endfacet
facet normal 0.0 0.36716653473605 -0.930155221331322
outer loop
vertex 85.9999999999999 76.0 25.7747318606607
vertex 41.0 73.0 24.5905213343449
vertex 41.0 76.0 25.7747318606607
endloop
endfacet
facet normal 0.0 0.36716653473605 -0.930155221331322
outer loop
vertex 41.0 73.0 24.5905213343449
vertex 85.9999999999999 76.0 25.7747318606607
vertex 85.9999999999999 73.0 24.5905213343449
endloop
endfacet
facet normal 1.0 -6.82728727353702e-015 -1.12798659301916e-014
outer loop
vertex 85.9999999999999 76.0 25.7747318606607
vertex 85.9999999999999 73.0 27.5905213343449
vertex 85.9999999999999 73.0 24.5905213343449
endloop
endfacet
facet normal 1.0 -6.82728727353702e-015 -1.12798659301916e-014
outer loop
vertex 85.9999999999999 73.0 27.5905213343449
vertex 85.9999999999999 76.0 25.7747318606607
vertex 86.0 76.0 28.7747318606607
endloop
endfacet
facet normal 0.0 0.367166534736048 -0.930155221331323
outer loop
vertex -41.0 76.0 25.7747318606607
vertex -86.0 73.0 24.5905213343449
vertex -86.0 76.0 25.7747318606607
endloop
endfacet
facet normal 0.0 0.367166534736048 -0.930155221331323
outer loop
vertex -86.0 73.0 24.5905213343449
vertex -41.0 76.0 25.7747318606607
vertex -41.0 73.0 24.5905213343449
endloop
endfacet
facet normal -1.0 0.0 0.0
outer loop
vertex -41.0 8.17067928632618 2.0
vertex -41.0 73.0 24.5905213343449
vertex -41.0 76.0 2.0
endloop
endfacet
facet normal -1.0 0.0 0.0
outer loop
vertex -41.0 73.0 24.5905213343449
vertex -41.0 8.17067928632618 2.0
vertex -41.0 73.0 27.5905213343449
endloop
endfacet
facet normal -1.0 0.0 0.0
outer loop
vertex -41.0 76.0 2.0
vertex -41.0 73.0 24.5905213343449
vertex -41.0 76.0 25.7747318606607
endloop
endfacet
facet normal -0.0 -1.0 -0.0
outer loop
vertex -41.0 73.0 27.5905213343449
vertex -86.0 73.0 24.5905213343449
vertex -41.0 73.0 24.5905213343449
endloop
endfacet
facet normal -0.0 -1.0 -0.0
outer loop
vertex -86.0 73.0 24.5905213343449
vertex -41.0 73.0 27.5905213343449
vertex -86.0 73.0 27.5905213343449
endloop
endfacet
facet normal 0.0 0.367166534736048 -0.930155221331323
outer loop
vertex -41.0 73.0 27.5905213343449
vertex -86.0 8.17067928632618 2.0
vertex -86.0 73.0 27.5905213343449
endloop
endfacet
facet normal 0.0 0.367166534736048 -0.930155221331323
outer loop
vertex -86.0 8.17067928632618 2.0
vertex -41.0 73.0 27.5905213343449
vertex -41.0 8.17067928632618 2.0
endloop
endfacet
facet normal -7.44363688471876e-017 -0.367166534736049 0.930155221331323
outer loop
vertex -41.9686661389442 2.32538805332831 2.91791633684012
vertex -83.5 65.7083333333333 27.9375
vertex -83.5 2.32538805332831 2.91791633684012
endloop
endfacet
facet normal -7.75179192815227e-017 -0.367166534736049 0.930155221331323
outer loop
vertex 86.0 76.0 32.0
vertex 38.0 0.0 2.0
vertex 86.0 0.0 2.0
endloop
endfacet
facet normal -1.27864118851179e-018 -0.367166534736049 0.930155221331323
outer loop
vertex -38.0 0.0 2.0
vertex -38.0 55.0 23.7105263157895
vertex -86.0 76.0 32.0
endloop
endfacet
facet normal -1.27864118851179e-018 -0.367166534736049 0.930155221331323
outer loop
vertex -38.0 55.0 23.7105263157895
vertex -3.86370330515628 59.4647238195899 25.4729172972066
vertex -4.0 60.5 25.8815789473684
endloop
endfacet
facet normal -1.27864118851179e-018 -0.367166534736049 0.930155221331323
outer loop
vertex -3.86370330515628 59.4647238195899 25.4729172972066
vertex -38.0 55.0 23.7105263157895
vertex -3.46410161513776 58.5 25.0921052631579
endloop
endfacet
facet normal -1.27864118851179e-018 -0.367166534736049 0.930155221331323
outer loop
vertex -3.46410161513776 58.5 25.0921052631579
vertex -38.0 55.0 23.7105263157895
vertex -2.8284271247462 57.6715728752538 24.7650945560212
endloop
endfacet
facet normal -1.27864118851179e-018 -0.367166534736049 0.930155221331323
outer loop
vertex -2.8284271247462 57.6715728752538 24.7650945560212
vertex -38.0 55.0 23.7105263157895
vertex -2.0 57.0358983848622 24.5141704150772
endloop
endfacet
facet normal -1.27864118851179e-018 -0.367166534736049 0.930155221331323
outer loop
vertex -2.0 57.0358983848622 24.5141704150772
vertex -38.0 55.0 23.7105263157895
vertex -1.03527618041008 56.6362966948437 24.3564329058594
endloop
endfacet
facet normal -1.27864118851179e-018 -0.367166534736049 0.930155221331323
outer loop
vertex -1.03527618041008 56.6362966948437 24.3564329058594
vertex -38.0 55.0 23.7105263157895
vertex 0.0 56.5 24.3026315789474
endloop
endfacet
facet normal -1.27864118851179e-018 -0.367166534736049 0.930155221331323
outer loop
vertex 0.0 56.5 24.3026315789474
vertex -38.0 55.0 23.7105263157895
vertex 38.0 55.0 23.7105263157895
endloop
endfacet
facet normal -1.27864118851179e-018 -0.367166534736049 0.930155221331323
outer loop
vertex 0.0 56.5 24.3026315789474
vertex 38.0 55.0 23.7105263157895
vertex 1.03527618041008 56.6362966948437 24.3564329058594
endloop
endfacet
facet normal -1.27864118851179e-018 -0.367166534736049 0.930155221331323
outer loop
vertex 1.03527618041008 56.6362966948437 24.3564329058594
vertex 38.0 55.0 23.7105263157895
vertex 2.0 57.0358983848622 24.5141704150772
endloop
endfacet
facet normal -1.27864118851179e-018 -0.367166534736049 0.930155221331323
outer loop
vertex 2.0 57.0358983848622 24.5141704150772
vertex 38.0 55.0 23.7105263157895
vertex 2.82842712474619 57.6715728752538 24.7650945560212
endloop
endfacet
facet normal -1.27864118851179e-018 -0.367166534736049 0.930155221331323
outer loop
vertex 2.82842712474619 57.6715728752538 24.7650945560212
vertex 38.0 55.0 23.7105263157895
vertex 3.46410161513776 58.5 25.0921052631579
endloop
endfacet
facet normal -1.27864118851179e-018 -0.367166534736049 0.930155221331323
outer loop
vertex 3.46410161513776 58.5 25.0921052631579
vertex 38.0 55.0 23.7105263157895
vertex 3.86370330515627 59.4647238195899 25.4729172972065
endloop
endfacet
facet normal -1.27864118851179e-018 -0.367166534736049 0.930155221331323
outer loop
vertex 3.86370330515627 59.4647238195899 25.4729172972065
vertex 38.0 55.0 23.7105263157895
vertex 4.0 60.5 25.8815789473684
endloop
endfacet
facet normal -1.27864118851179e-018 -0.367166534736049 0.930155221331323
outer loop
vertex 4.0 60.5 25.8815789473684
vertex 38.0 55.0 23.7105263157895
vertex 4.0 70.5 29.8289473684211
endloop
endfacet
facet normal -1.27864118851179e-018 -0.367166534736049 0.930155221331323
outer loop
vertex 86.0 76.0 32.0
vertex 38.0 55.0 23.7105263157895
vertex 38.0 0.0 2.0
endloop
endfacet
facet normal -1.27864118851179e-018 -0.367166534736049 0.930155221331323
outer loop
vertex -86.0 76.0 32.0
vertex 0.0 74.5 31.4078947368421
vertex 86.0 76.0 32.0
endloop
endfacet
facet normal -1.27864118851179e-018 -0.367166534736049 0.930155221331323
outer loop
vertex 0.0 74.5 31.4078947368421
vertex -86.0 76.0 32.0
vertex -1.03527618041008 74.3637033051563 31.3540934099301
endloop
endfacet
facet normal -1.27864118851179e-018 -0.367166534736049 0.930155221331323
outer loop
vertex -1.03527618041008 74.3637033051563 31.3540934099301
vertex -86.0 76.0 32.0
vertex -2.0 73.9641016151378 31.1963559007123
endloop
endfacet
facet normal -1.27864118851179e-018 -0.367166534736049 0.930155221331323
outer loop
vertex -2.0 73.9641016151378 31.1963559007123
vertex -86.0 76.0 32.0
vertex -38.0 55.0 23.7105263157895
endloop
endfacet
facet normal -1.27864118851179e-018 -0.367166534736049 0.930155221331323
outer loop
vertex -2.0 73.9641016151378 31.1963559007123
vertex -38.0 55.0 23.7105263157895
vertex -2.8284271247462 73.3284271247462 30.9454317597682
endloop
endfacet
facet normal -1.27864118851179e-018 -0.367166534736049 0.930155221331323
outer loop
vertex -2.8284271247462 73.3284271247462 30.9454317597682
vertex -38.0 55.0 23.7105263157895
vertex -3.46410161513776 72.5 30.6184210526316
endloop
endfacet
facet normal -1.27864118851179e-018 -0.367166534736049 0.930155221331323
outer loop
vertex -3.46410161513776 72.5 30.6184210526316
vertex -38.0 55.0 23.7105263157895
vertex -3.86370330515627 71.5352761804101 30.2376090185829
endloop
endfacet
facet normal -1.27864118851179e-018 -0.367166534736049 0.930155221331323
outer loop
vertex -3.86370330515627 71.5352761804101 30.2376090185829
vertex -38.0 55.0 23.7105263157895
vertex -4.0 70.5 29.8289473684211
endloop
endfacet
facet normal -1.27864118851179e-018 -0.367166534736049 0.930155221331323
outer loop
vertex -4.0 70.5 29.8289473684211
vertex -38.0 55.0 23.7105263157895
vertex -4.0 60.5 25.8815789473684
endloop
endfacet
facet normal -1.27864118851179e-018 -0.367166534736049 0.930155221331323
outer loop
vertex 86.0 76.0 32.0
vertex 0.0 74.5 31.4078947368421
vertex 1.03527618041009 74.3637033051563 31.3540934099301
endloop
endfacet
facet normal -1.27864118851179e-018 -0.367166534736049 0.930155221331323
outer loop
vertex 86.0 76.0 32.0
vertex 1.03527618041009 74.3637033051563 31.3540934099301
vertex 2.0 73.9641016151377 31.1963559007123
endloop
endfacet
facet normal -1.27864118851179e-018 -0.367166534736049 0.930155221331323
outer loop
vertex 86.0 76.0 32.0
vertex 2.0 73.9641016151377 31.1963559007123
vertex 2.82842712474619 73.3284271247462 30.9454317597682
endloop
endfacet
facet normal -1.27864118851179e-018 -0.367166534736049 0.930155221331323
outer loop
vertex 86.0 76.0 32.0
vertex 2.82842712474619 73.3284271247462 30.9454317597682
vertex 3.46410161513776 72.5 30.6184210526316
endloop
endfacet
facet normal -1.27864118851179e-018 -0.367166534736049 0.930155221331323
outer loop
vertex 86.0 76.0 32.0
vertex 3.46410161513776 72.5 30.6184210526316
vertex 3.86370330515628 71.5352761804101 30.2376090185829
endloop
endfacet
facet normal -1.27864118851179e-018 -0.367166534736049 0.930155221331323
outer loop
vertex 86.0 76.0 32.0
vertex 3.86370330515628 71.5352761804101 30.2376090185829
vertex 4.0 70.5 29.8289473684211
endloop
endfacet
facet normal -1.27864118851179e-018 -0.367166534736049 0.930155221331323
outer loop
vertex 86.0 76.0 32.0
vertex 4.0 70.5 29.8289473684211
vertex 38.0 55.0 23.7105263157895
endloop
endfacet
facet normal -1.27864118851179e-018 -0.367166534736049 0.930155221331323
outer loop
vertex -3.86370330515627 61.5352761804101 26.2902405975303
vertex -4.0 70.5 29.8289473684211
vertex -4.0 60.5 25.8815789473684
endloop
endfacet
facet normal -1.27864118851179e-018 -0.367166534736049 0.930155221331323
outer loop
vertex -4.0 70.5 29.8289473684211
vertex -3.86370330515627 61.5352761804101 26.2902405975303
vertex -3.86370330515628 69.4647238195899 29.4202857182592
endloop
endfacet
facet normal -1.27864118851179e-018 -0.367166534736049 0.930155221331323
outer loop
vertex -3.86370330515628 69.4647238195899 29.4202857182592
vertex -3.86370330515627 61.5352761804101 26.2902405975303
vertex -3.46410161513776 68.5 29.0394736842105
endloop
endfacet
facet normal -1.27864118851179e-018 -0.367166534736049 0.930155221331323
outer loop
vertex -3.46410161513776 68.5 29.0394736842105
vertex -3.86370330515627 61.5352761804101 26.2902405975303
vertex -3.46410161513776 62.5 26.6710526315789
endloop
endfacet
facet normal -1.27864118851179e-018 -0.367166534736049 0.930155221331323
outer loop
vertex -3.46410161513776 68.5 29.0394736842105
vertex -3.46410161513776 62.5 26.6710526315789
vertex -2.82842712474619 63.3284271247462 26.9980633387156
endloop
endfacet
facet normal -1.27864118851179e-018 -0.367166534736049 0.930155221331323
outer loop
vertex -3.46410161513776 68.5 29.0394736842105
vertex -2.82842712474619 63.3284271247462 26.9980633387156
vertex -2.82842712474619 67.6715728752538 28.7124629770739
endloop
endfacet
facet normal -1.27864118851179e-018 -0.367166534736049 0.930155221331323
outer loop
vertex -2.82842712474619 67.6715728752538 28.7124629770739
vertex -2.82842712474619 63.3284271247462 26.9980633387156
vertex -2.0 63.9641016151378 27.2489874796596
endloop
endfacet
facet normal -1.27864118851179e-018 -0.367166534736049 0.930155221331323
outer loop
vertex -2.82842712474619 67.6715728752538 28.7124629770739
vertex -2.0 63.9641016151378 27.2489874796596
vertex -2.0 67.0358983848623 28.4615388361298
endloop
endfacet
facet normal -1.27864118851179e-018 -0.367166534736049 0.930155221331323
outer loop
vertex -2.0 67.0358983848623 28.4615388361298
vertex -2.0 63.9641016151378 27.2489874796596
vertex -1.03527618041008 64.3637033051563 27.4067249888775
endloop
endfacet
facet normal -1.27864118851179e-018 -0.367166534736049 0.930155221331323
outer loop
vertex -2.0 67.0358983848623 28.4615388361298
vertex -1.03527618041008 64.3637033051563 27.4067249888775
vertex -1.03527618041008 66.6362966948437 28.303801326912
endloop
endfacet
facet normal -1.27864118851179e-018 -0.367166534736049 0.930155221331323
outer loop
vertex -1.03527618041008 66.6362966948437 28.303801326912
vertex -1.03527618041008 64.3637033051563 27.4067249888775
vertex 0.0 64.5 27.4605263157895
endloop
endfacet
facet normal -1.27864118851179e-018 -0.367166534736049 0.930155221331323
outer loop
vertex -1.03527618041008 66.6362966948437 28.303801326912
vertex 0.0 64.5 27.4605263157895
vertex 0.0 66.5 28.25
endloop
endfacet
facet normal -1.27864118851179e-018 -0.367166534736049 0.930155221331323
outer loop
vertex 0.0 66.5 28.25
vertex 0.0 64.5 27.4605263157895
vertex 1.03527618041008 64.3637033051563 27.4067249888775
endloop
endfacet
facet normal -1.27864118851179e-018 -0.367166534736049 0.930155221331323
outer loop
vertex 0.0 66.5 28.25
vertex 1.03527618041008 64.3637033051563 27.4067249888775
vertex 1.03527618041008 66.6362966948437 28.303801326912
endloop
endfacet
facet normal -1.27864118851179e-018 -0.367166534736049 0.930155221331323
outer loop
vertex 1.03527618041008 66.6362966948437 28.303801326912
vertex 1.03527618041008 64.3637033051563 27.4067249888775
vertex 2.0 63.9641016151378 27.2489874796596
endloop
endfacet
facet normal -1.27864118851179e-018 -0.367166534736049 0.930155221331323
outer loop
vertex 1.03527618041008 66.6362966948437 28.303801326912
vertex 2.0 63.9641016151378 27.2489874796596
vertex 2.0 67.0358983848622 28.4615388361298
endloop
endfacet
facet normal -1.27864118851179e-018 -0.367166534736049 0.930155221331323
outer loop
vertex 2.0 67.0358983848622 28.4615388361298
vertex 2.0 63.9641016151378 27.2489874796596
vertex 2.8284271247462 63.3284271247462 26.9980633387156
endloop
endfacet
facet normal -1.27864118851179e-018 -0.367166534736049 0.930155221331323
outer loop
vertex 2.0 67.0358983848622 28.4615388361298
vertex 2.8284271247462 63.3284271247462 26.9980633387156
vertex 2.82842712474619 67.6715728752538 28.7124629770739
endloop
endfacet
facet normal -1.27864118851179e-018 -0.367166534736049 0.930155221331323
outer loop
vertex 2.82842712474619 67.6715728752538 28.7124629770739
vertex 2.8284271247462 63.3284271247462 26.9980633387156
vertex 3.46410161513775 68.5 29.0394736842105
endloop
endfacet
facet normal -1.27864118851179e-018 -0.367166534736049 0.930155221331323
outer loop
vertex 3.46410161513775 68.5 29.0394736842105
vertex 2.8284271247462 63.3284271247462 26.9980633387156
vertex 3.46410161513775 62.5 26.6710526315789
endloop
endfacet
facet normal -1.27864118851179e-018 -0.367166534736049 0.930155221331323
outer loop
vertex 3.46410161513775 68.5 29.0394736842105
vertex 3.46410161513775 62.5 26.6710526315789
vertex 3.86370330515627 61.5352761804101 26.2902405975303
endloop
endfacet
facet normal -1.27864118851179e-018 -0.367166534736049 0.930155221331323
outer loop
vertex 3.46410161513775 68.5 29.0394736842105
vertex 3.86370330515627 61.5352761804101 26.2902405975303
vertex 3.86370330515627 69.4647238195899 29.4202857182592
endloop
endfacet
facet normal -1.27864118851179e-018 -0.367166534736049 0.930155221331323
outer loop
vertex 3.86370330515627 69.4647238195899 29.4202857182592
vertex 3.86370330515627 61.5352761804101 26.2902405975303
vertex 4.0 60.5 25.8815789473684
endloop
endfacet
facet normal -1.27864118851179e-018 -0.367166534736049 0.930155221331323
outer loop
vertex 3.86370330515627 69.4647238195899 29.4202857182592
vertex 4.0 60.5 25.8815789473684
vertex 4.0 70.5 29.8289473684211
endloop
endfacet
facet normal -0.485539592353416 0.874214678587175 -1.38733520804878e-016
outer loop
vertex -2.0 73.9641016151378 31.1963559007123
vertex -1.03527618041008 74.3637033051563 20.2378209566604
vertex -2.0 73.9641016151378 20.2378209566604
endloop
endfacet
facet normal -0.258819045102522 0.965925826289068 -7.94219336074603e-019
outer loop
vertex -1.03527618041008 74.3637033051563 20.2378209566604
vertex -2.0 73.9641016151378 31.1963559007123
vertex -1.03527618041008 74.3637033051563 31.3540934099301
endloop
endfacet
facet normal 0.866025403784439 -0.499999999999999 2.29845932065527e-016
outer loop
vertex 3.46410161513776 68.5 20.2378209566604
vertex 2.82842712474619 67.6715728752538 28.7124629770739
vertex 2.82842712474619 67.6715728752538 20.2378209566604
endloop
endfacet
facet normal 0.72257428062364 -0.691293287238658 7.30052713457106e-017
outer loop
vertex 2.82842712474619 67.6715728752538 28.7124629770739
vertex 3.46410161513776 68.5 20.2378209566604
vertex 3.46410161513775 68.5 29.0394736842105
endloop
endfacet
facet normal -0.851806006884954 0.523857353326943 -2.63865312587398e-016
outer loop
vertex -3.46410161513776 72.5 30.6184210526316
vertex -3.86370330515627 71.5352761804101 20.2378209566604
vertex -3.86370330515627 71.5352761804101 30.2376090185829
endloop
endfacet
facet normal -0.965925826289068 0.258819045102524 -6.36732851736684e-019
outer loop
vertex -3.86370330515627 71.5352761804101 20.2378209566604
vertex -3.46410161513776 72.5 30.6184210526316
vertex -3.46410161513776 72.5 20.2378209566604
endloop
endfacet
facet normal -0.957582562454663 0.288159046505159 -8.08755694200993e-019
outer loop
vertex -3.86370330515627 71.5352761804101 30.2376090185829
vertex -4.0 70.5 20.2378209566604
vertex -4.0 70.5 29.8289473684211
endloop
endfacet
facet normal -1.0 3.92979946398029e-015 7.75402625946726e-017
outer loop
vertex -4.0 70.5 20.2378209566604
vertex -3.86370330515627 71.5352761804101 30.2376090185829
vertex -3.86370330515627 71.5352761804101 20.2378209566604
endloop
endfacet
facet normal -0.513563587661533 -0.858051537745965 2.76384906403936e-016
outer loop
vertex -2.0 67.0358983848623 28.4615388361298
vertex -2.82842712474619 67.6715728752538 20.2378209566604
vertex -2.0 67.0358983848622 20.2378209566604
endloop
endfacet
facet normal -0.707106781186547 -0.707106781186548 -9.27077240204388e-019
outer loop
vertex -2.82842712474619 67.6715728752538 20.2378209566604
vertex -2.0 67.0358983848623 28.4615388361298
vertex -2.82842712474619 67.6715728752538 28.7124629770739
endloop
endfacet
facet normal -0.690589540838548 0.723246905340357 -3.65097637561819e-016
outer loop
vertex -2.8284271247462 73.3284271247462 30.9454317597682
vertex -3.46410161513776 72.5 20.2378209566604
vertex -3.46410161513776 72.5 30.6184210526316
endloop
endfacet
facet normal -0.866025403784439 0.499999999999999 -2.18211220417556e-016
outer loop
vertex -3.46410161513776 72.5 20.2378209566604
vertex -2.8284271247462 73.3284271247462 30.9454317597682
vertex -2.82842712474619 73.3284271247462 20.2378209566604
endloop
endfacet
facet normal 0.72257428062364 -0.691293287238658 7.30052713457106e-017
outer loop
vertex 2.82842712474619 67.6715728752538 28.7124629770739
vertex 2.0 67.0358983848622 20.2378209566604
vertex 2.82842712474619 67.6715728752538 20.2378209566604
endloop
endfacet
facet normal 0.500000000000003 -0.866025403784437 3.50514151571028e-019
outer loop
vertex 2.0 67.0358983848622 20.2378209566604
vertex 2.82842712474619 67.6715728752538 28.7124629770739
vertex 2.0 67.0358983848622 28.4615388361298
endloop
endfacet
facet normal -0.690589540838548 0.723246905340357 -3.65097637561819e-016
outer loop
vertex -2.8284271247462 73.3284271247462 30.9454317597682
vertex -2.0 73.9641016151378 20.2378209566604
vertex -2.82842712474619 73.3284271247462 20.2378209566604
endloop
endfacet
facet normal -0.500000000000002 0.866025403784438 -1.58642825068679e-016
outer loop
vertex -2.0 73.9641016151378 20.2378209566604
vertex -2.8284271247462 73.3284271247462 30.9454317597682
vertex -2.0 73.9641016151378 31.1963559007123
endloop
endfacet
facet normal -0.250393308476267 0.968144199523144 -7.74842433145326e-019
outer loop
vertex -1.03527618041008 74.3637033051563 31.3540934099301
vertex 0.0 74.5 20.2378209566604
vertex -1.03527618041008 74.3637033051563 20.2378209566604
endloop
endfacet
facet normal -7.03977681756106e-016 1.0 -3.64772085333984e-019
outer loop
vertex 0.0 74.5 20.2378209566604
vertex -1.03527618041008 74.3637033051563 31.3540934099301
vertex 0.0 74.5 31.4078947368421
endloop
endfacet
facet normal -0.973267196608482 -0.229675780189961 3.76757601327408e-016
outer loop
vertex -3.86370330515628 69.4647238195899 29.4202857182592
vertex -4.0 70.5 20.2378209566604
vertex -3.86370330515628 69.4647238195899 20.2378209566604
endloop
endfacet
facet normal -1.0 3.92979946398029e-015 7.75402625946726e-017
outer loop
vertex -4.0 70.5 20.2378209566604
vertex -3.86370330515628 69.4647238195899 29.4202857182592
vertex -4.0 70.5 29.8289473684211
endloop
endfacet
facet normal -0.879193596146984 -0.476464710649315 4.46073485910466e-016
outer loop
vertex -3.46410161513776 68.5 29.0394736842105
vertex -3.86370330515628 69.4647238195899 20.2378209566604
vertex -3.46410161513776 68.5 20.2378209566604
endloop
endfacet
facet normal -0.965925826289068 -0.258819045102522 4.42612495266207e-016
outer loop
vertex -3.86370330515628 69.4647238195899 20.2378209566604
vertex -3.46410161513776 68.5 29.0394736842105
vertex -3.86370330515628 69.4647238195899 29.4202857182592
endloop
endfacet
facet normal -0.879193596146984 -0.476464710649315 4.46073485910466e-016
outer loop
vertex -3.46410161513776 68.5 29.0394736842105
vertex -2.82842712474619 67.6715728752538 20.2378209566604
vertex -2.82842712474619 67.6715728752538 28.7124629770739
endloop
endfacet
facet normal -0.707106781186547 -0.707106781186548 -9.27077240204388e-019
outer loop
vertex -2.82842712474619 67.6715728752538 20.2378209566604
vertex -3.46410161513776 68.5 29.0394736842105
vertex -3.46410161513776 68.5 20.2378209566604
endloop
endfacet
facet normal -2.15708568226922e-016 -1.0 -1.98822361887075e-020
outer loop
vertex 0.0 66.5 28.25
vertex -1.03527618041008 66.6362966948437 20.2378209566604
vertex 0.0 66.5 20.2378209566604
endloop
endfacet
facet normal -0.258819045102524 -0.965925826289067 3.25236199329618e-016
outer loop
vertex -1.03527618041008 66.6362966948437 20.2378209566604
vertex 0.0 66.5 28.25
vertex -1.03527618041008 66.6362966948437 28.303801326912
endloop
endfacet
facet normal 0.866025403784439 -0.499999999999999 2.29845932065527e-016
outer loop
vertex 3.46410161513776 68.5 20.2378209566604
vertex 3.86370330515627 69.4647238195899 29.4202857182592
vertex 3.46410161513775 68.5 29.0394736842105
endloop
endfacet
facet normal 0.973267196608482 -0.229675780189961 -9.90210267582691e-017
outer loop
vertex 3.86370330515627 69.4647238195899 29.4202857182592
vertex 3.46410161513776 68.5 20.2378209566604
vertex 3.86370330515627 69.4647238195899 20.2378209566604
endloop
endfacet
facet normal 0.266714896252227 -0.963775473913486 1.11341711278778e-019
outer loop
vertex 1.03527618041008 66.6362966948437 28.303801326912
vertex 0.0 66.5 20.2378209566604
vertex 1.03527618041008 66.6362966948437 20.2378209566604
endloop
endfacet
facet normal 0.0 -1.0 -1.98822361887077e-020
outer loop
vertex 0.0 66.5 20.2378209566604
vertex 1.03527618041008 66.6362966948437 28.303801326912
vertex 0.0 66.5 28.25
endloop
endfacet
facet normal 0.513563587661535 -0.858051537745964 3.52618314449675e-019
outer loop
vertex 2.0 67.0358983848622 28.4615388361298
vertex 1.03527618041008 66.6362966948437 20.2378209566604
vertex 2.0 67.0358983848622 20.2378209566604
endloop
endfacet
facet normal 0.258819045102522 -0.965925826289068 9.66841885455297e-020
outer loop
vertex 1.03527618041008 66.6362966948437 20.2378209566604
vertex 2.0 67.0358983848622 28.4615388361298
vertex 1.03527618041008 66.6362966948437 28.303801326912
endloop
endfacet
facet normal -0.266714896252229 -0.963775473913485 3.45435415276477e-016
outer loop
vertex -1.03527618041008 66.6362966948437 28.303801326912
vertex -2.0 67.0358983848622 20.2378209566604
vertex -1.03527618041008 66.6362966948437 20.2378209566604
endloop
endfacet
facet normal -0.500000000000001 -0.866025403784438 3.16342871193625e-016
outer loop
vertex -2.0 67.0358983848622 20.2378209566604
vertex -1.03527618041008 66.6362966948437 28.303801326912
vertex -2.0 67.0358983848623 28.4615388361298
endloop
endfacet
facet normal -6.8176486065187e-016 1.0 -3.64772085333984e-019
outer loop
vertex 0.0 74.5 31.4078947368421
vertex 1.03527618041009 74.3637033051563 20.2378209566604
vertex 0.0 74.5 20.2378209566604
endloop
endfacet
facet normal 0.258819045102526 0.965925826289067 2.36437960141322e-016
outer loop
vertex 1.03527618041009 74.3637033051563 20.2378209566604
vertex 0.0 74.5 31.4078947368421
vertex 1.03527618041009 74.3637033051563 31.3540934099301
endloop
endfacet
facet normal 0.866025403784438 0.500000000000001 -3.24132270395766e-016
outer loop
vertex 3.46410161513776 72.5 20.2378209566604
vertex 3.86370330515628 71.5352761804101 30.2376090185829
vertex 3.86370330515628 71.5352761804101 20.2378209566604
endloop
endfacet
facet normal 0.957582562454663 0.288159046505158 -5.95126705279538e-016
outer loop
vertex 3.86370330515628 71.5352761804101 30.2376090185829
vertex 3.46410161513776 72.5 20.2378209566604
vertex 3.46410161513776 72.5 30.6184210526316
endloop
endfacet
facet normal 0.250393308476271 0.968144199523143 2.20766398211455e-016
outer loop
vertex 1.03527618041009 74.3637033051563 31.3540934099301
vertex 2.0 73.9641016151378 20.2378209566604
vertex 1.03527618041009 74.3637033051563 20.2378209566604
endloop
endfacet
facet normal 0.500000000000002 0.866025403784438 4.67996678887898e-016
outer loop
vertex 2.0 73.9641016151378 20.2378209566604
vertex 1.03527618041009 74.3637033051563 31.3540934099301
vertex 2.0 73.9641016151377 31.1963559007123
endloop
endfacet
facet normal 0.707106781186545 0.70710678118655 1.21298197473742e-016
outer loop
vertex 2.8284271247462 73.3284271247462 20.2378209566604
vertex 3.46410161513776 72.5 30.6184210526316
vertex 3.46410161513776 72.5 20.2378209566604
endloop
endfacet
facet normal 0.851806006884953 0.523857353326945 -3.02103487708854e-016
outer loop
vertex 3.46410161513776 72.5 30.6184210526316
vertex 2.8284271247462 73.3284271247462 20.2378209566604
vertex 2.82842712474619 73.3284271247462 30.9454317597682
endloop
endfacet
facet normal 0.965925826289069 0.25881904510252 -6.45918642628587e-016
outer loop
vertex 3.86370330515628 71.5352761804101 20.2378209566604
vertex 4.0 70.5 29.8289473684211
vertex 3.99999999999999 70.5 20.2378209566604
endloop
endfacet
facet normal 0.999511604920724 0.0312498260602981 -6.75889805863037e-016
outer loop
vertex 4.0 70.5 29.8289473684211
vertex 3.86370330515628 71.5352761804101 20.2378209566604
vertex 3.86370330515628 71.5352761804101 30.2376090185829
endloop
endfacet
facet normal 1.0 -3.76048837596299e-015 -6.17778750933819e-016
outer loop
vertex 3.99999999999999 70.5 20.2378209566604
vertex 3.86370330515627 69.4647238195899 29.4202857182592
vertex 3.86370330515627 69.4647238195899 20.2378209566604
endloop
endfacet
facet normal 0.973267196608482 -0.229675780189961 -9.90210267582691e-017
outer loop
vertex 3.86370330515627 69.4647238195899 29.4202857182592
vertex 3.99999999999999 70.5 20.2378209566604
vertex 4.0 70.5 29.8289473684211
endloop
endfacet
facet normal 0.485539592353418 0.874214678587175 4.68576670043916e-016
outer loop
vertex 2.0 73.9641016151377 31.1963559007123
vertex 2.4142135623731 73.646264369942 20.2378209566604
vertex 2.0 73.9641016151378 20.2378209566604
endloop
endfacet
facet normal 0.608761429008715 0.793353340291239 4.5892969209716e-016
outer loop
vertex 2.4142135623731 73.646264369942 20.2378209566604
vertex 2.0 73.9641016151377 31.1963559007123
vertex 2.8284271247462 73.3284271247462 20.2378209566604
endloop
endfacet
facet normal 0.707106781186545 0.70710678118655 1.21298197473742e-016
outer loop
vertex 2.8284271247462 73.3284271247462 20.2378209566604
vertex 2.0 73.9641016151377 31.1963559007123
vertex 2.82842712474619 73.3284271247462 30.9454317597682
endloop
endfacet
facet normal -0.707106781186548 -0.707106781186547 3.9546595725429e-016
outer loop
vertex 1.59099025766972 72.0909902576697 20.0
vertex 1.125 72.448557158515 15.0
vertex 1.59099025766974 72.0909902576697 15.0
endloop
endfacet
facet normal -0.500000000000001 -0.866025403784438 1.52326900506813e-015
outer loop
vertex 1.125 72.448557158515 15.0
vertex 1.59099025766972 72.0909902576697 20.0
vertex 1.125 72.448557158515 20.0
endloop
endfacet
facet normal -0.965925826289069 -0.258819045102518 -1.99783991524545e-016
outer loop
vertex 2.1733331091504 61.0823428514807 20.0
vertex 1.94855715851499 61.625 15.0
vertex 2.1733331091504 61.0823428514807 15.0
endloop
endfacet
facet normal -0.866025403784442 -0.499999999999994 6.38332197820871e-016
outer loop
vertex 1.94855715851499 61.625 15.0
vertex 2.1733331091504 61.0823428514807 20.0
vertex 1.94855715851498 61.625 20.0
endloop
endfacet
facet normal -0.707106781186548 -0.707106781186547 3.9546595725429e-016
outer loop
vertex 1.59099025766972 72.0909902576697 20.0
vertex 1.94855715851499 71.625 15.0
vertex 1.94855715851501 71.625 20.0
endloop
endfacet
facet normal -0.866025403784439 -0.499999999999999 1.05396766105359e-015
outer loop
vertex 1.94855715851499 71.625 15.0
vertex 1.59099025766972 72.0909902576697 20.0
vertex 1.59099025766974 72.0909902576697 15.0
endloop
endfacet
facet normal 8.9111098956469e-018 1.0 3.09574764041977e-018
outer loop
vertex 0.0 68.25 20.0
vertex 0.582342851480668 68.3266668908496 15.0
vertex 0.0 68.25 15.0
endloop
endfacet
facet normal -0.258819045102511 0.965925826289071 5.94233023452398e-016
outer loop
vertex 0.582342851480668 68.3266668908496 15.0
vertex 0.0 68.25 20.0
vertex 0.582342851480668 68.3266668908496 20.0
endloop
endfacet
facet normal 0.258819045102512 -0.965925826289071 -1.84378577766888e-015
outer loop
vertex -0.582342851480668 62.6733331091504 20.0
vertex -1.125 62.448557158515 15.0
vertex -0.582342851480668 62.6733331091504 15.0
endloop
endfacet
facet normal 0.49999999999999 -0.866025403784444 -7.70165226280889e-016
outer loop
vertex -1.125 62.448557158515 15.0
vertex -0.582342851480668 62.6733331091504 20.0
vertex -1.12499999999999 62.448557158515 20.0
endloop
endfacet
facet normal 0.866025403784438 -0.500000000000001 1.15349467469106e-015
outer loop
vertex -1.94855715851499 71.625 15.0
vertex -2.17333310915041 71.0823428514807 20.0
vertex -2.1733331091504 71.0823428514807 15.0
endloop
endfacet
facet normal 0.965925826289069 -0.258819045102518 2.46706871558439e-015
outer loop
vertex -2.17333310915041 71.0823428514807 20.0
vertex -1.94855715851499 71.625 15.0
vertex -1.948557158515 71.625 20.0
endloop
endfacet
facet normal -0.500000000000002 0.866025403784438 2.3266465705769e-016
outer loop
vertex 1.125 68.551442841485 20.0
vertex 1.59099025766974 68.9090097423303 15.0
vertex 1.125 68.551442841485 15.0
endloop
endfacet
facet normal -0.707106781186554 0.707106781186541 -1.3978477347634e-015
outer loop
vertex 1.59099025766974 68.9090097423303 15.0
vertex 1.125 68.551442841485 20.0
vertex 1.59099025766974 68.9090097423303 20.0
endloop
endfacet
facet normal -0.258819045102511 0.965925826289071 5.94233023452398e-016
outer loop
vertex 0.582342851480668 68.3266668908496 20.0
vertex 1.125 68.551442841485 15.0
vertex 0.582342851480668 68.3266668908496 15.0
endloop
endfacet
facet normal -0.500000000000002 0.866025403784438 2.32664657057689e-016
outer loop
vertex 1.125 68.551442841485 15.0
vertex 0.582342851480668 68.3266668908496 20.0
vertex 1.125 68.551442841485 20.0
endloop
endfacet
facet normal -0.96592582628907 -0.258819045102517 1.51422380286397e-015
outer loop
vertex 2.1733331091504 71.0823428514807 20.0
vertex 1.94855715851499 71.625 15.0
vertex 2.1733331091504 71.0823428514807 15.0
endloop
endfacet
facet normal -0.866025403784439 -0.499999999999999 1.05396766105359e-015
outer loop
vertex 1.94855715851499 71.625 15.0
vertex 2.1733331091504 71.0823428514807 20.0
vertex 1.94855715851501 71.625 20.0
endloop
endfacet
facet normal -0.866025403784439 0.499999999999999 -1.69091731746564e-015
outer loop
vertex 1.94855715851499 69.375 20.0
vertex 2.1733331091504 69.9176571485193 15.0
vertex 1.94855715851499 69.375 15.0
endloop
endfacet
facet normal -0.965925826289069 0.258819045102518 -7.38059362751647e-016
outer loop
vertex 2.1733331091504 69.9176571485193 15.0
vertex 1.94855715851499 69.375 20.0
vertex 2.1733331091504 69.9176571485193 20.0
endloop
endfacet
facet normal 0.707106781186546 -0.707106781186549 -2.77624238942004e-016
outer loop
vertex -1.59099025766974 62.0909902576697 15.0
vertex -1.94855715851498 61.625 20.0
vertex -1.94855715851499 61.625 15.0
endloop
endfacet
facet normal 0.86602540378444 -0.499999999999997 -5.82979870354021e-016
outer loop
vertex -1.94855715851498 61.625 20.0
vertex -1.59099025766974 62.0909902576697 15.0
vertex -1.59099025766972 62.0909902576697 20.0
endloop
endfacet
facet normal -0.500000000000001 -0.866025403784438 1.52326900506813e-015
outer loop
vertex 1.125 72.448557158515 20.0
vertex 0.582342851480668 72.6733331091504 15.0
vertex 1.125 72.448557158515 15.0
endloop
endfacet
facet normal -0.258819045102511 -0.965925826289071 1.75703869571964e-015
outer loop
vertex 0.582342851480668 72.6733331091504 15.0
vertex 1.125 72.448557158515 20.0
vertex 0.582342851480668 72.6733331091504 20.0
endloop
endfacet
facet normal 9.73984311594206e-015 -1.0 9.20887989816347e-018
outer loop
vertex 0.0 72.75 20.0
vertex -0.582342851480668 72.6733331091504 15.0
vertex 0.0 72.75 15.0
endloop
endfacet
facet normal 0.258819045102516 -0.96592582628907 -1.09827104090677e-015
outer loop
vertex -0.582342851480668 72.6733331091504 15.0
vertex 0.0 72.75 20.0
vertex -0.582342851480668 72.6733331091504 20.0
endloop
endfacet
facet normal -0.965925826289069 0.258819045102518 -7.38059362751644e-016
outer loop
vertex 2.1733331091504 69.9176571485193 20.0
vertex 2.25 70.5 15.0
vertex 2.1733331091504 69.9176571485193 15.0
endloop
endfacet
facet normal -1.0 -8.73288769773396e-016 4.22264900545342e-016
outer loop
vertex 2.25 70.5 15.0
vertex 2.1733331091504 69.9176571485193 20.0
vertex 2.25 70.5 20.0
endloop
endfacet
facet normal -1.0 -1.61291089111209e-015 4.22264900545345e-016
outer loop
vertex 2.25 70.5 20.0
vertex 2.1733331091504 71.0823428514807 15.0
vertex 2.25 70.5 15.0
endloop
endfacet
facet normal -0.96592582628907 -0.258819045102516 1.51422380286396e-015
outer loop
vertex 2.1733331091504 71.0823428514807 15.0
vertex 2.25 70.5 20.0
vertex 2.1733331091504 71.0823428514807 20.0
endloop
endfacet
facet normal 0.49999999999999 -0.866025403784445 -7.70165226280891e-016
outer loop
vertex -1.12499999999999 62.448557158515 20.0
vertex -1.59099025766974 62.0909902576697 15.0
vertex -1.125 62.448557158515 15.0
endloop
endfacet
facet normal 0.707106781186546 -0.707106781186549 -2.77624238942004e-016
outer loop
vertex -1.59099025766974 62.0909902576697 15.0
vertex -1.12499999999999 62.448557158515 20.0
vertex -1.59099025766972 62.0909902576697 20.0
endloop
endfacet
facet normal -0.258819045102511 -0.965925826289071 1.75703869571963e-015
outer loop
vertex 0.582342851480668 72.6733331091504 20.0
vertex 0.0 72.75 15.0
vertex 0.582342851480668 72.6733331091504 15.0
endloop
endfacet
facet normal 9.73984311594206e-015 -1.0 9.20887989816347e-018
outer loop
vertex 0.0 72.75 15.0
vertex 0.582342851480668 72.6733331091504 20.0
vertex 0.0 72.75 20.0
endloop
endfacet
facet normal -0.707106781186554 0.707106781186541 -1.3978477347634e-015
outer loop
vertex 1.59099025766974 68.9090097423303 20.0
vertex 1.94855715851499 69.375 15.0
vertex 1.59099025766974 68.9090097423303 15.0
endloop
endfacet
facet normal -0.866025403784439 0.5 -1.69091731746564e-015
outer loop
vertex 1.94855715851499 69.375 15.0
vertex 1.59099025766974 68.9090097423303 20.0
vertex 1.94855715851499 69.375 20.0
endloop
endfacet
facet normal 0.86602540378444 -0.499999999999997 -5.82979870354022e-016
outer loop
vertex -1.94855715851499 61.625 15.0
vertex -2.1733331091504 61.0823428514807 20.0
vertex -2.1733331091504 61.0823428514807 15.0
endloop
endfacet
facet normal 0.965925826289069 -0.258819045102519 -2.98747836050066e-016
outer loop
vertex -2.1733331091504 61.0823428514807 20.0
vertex -1.94855715851499 61.625 15.0
vertex -1.94855715851498 61.625 20.0
endloop
endfacet
facet normal -0.499999999999991 0.866025403784444 2.83637143407728e-016
outer loop
vertex 1.125 58.551442841485 20.0
vertex 1.59099025766974 58.9090097423303 15.0
vertex 1.125 58.551442841485 15.0
endloop
endfacet
facet normal -0.707106781186547 0.707106781186548 5.09766610860058e-016
outer loop
vertex 1.59099025766974 58.9090097423303 15.0
vertex 1.125 58.551442841485 20.0
vertex 1.59099025766974 58.9090097423302 20.0
endloop
endfacet
facet normal -0.866025403784442 -0.499999999999995 6.38332197820876e-016
outer loop
vertex 1.94855715851498 61.625 20.0
vertex 1.59099025766974 62.0909902576697 15.0
vertex 1.94855715851499 61.625 15.0
endloop
endfacet
facet normal -0.707106781186544 -0.707106781186551 1.379044326128e-015
outer loop
vertex 1.59099025766974 62.0909902576697 15.0
vertex 1.94855715851498 61.625 20.0
vertex 1.59099025766972 62.0909902576698 20.0
endloop
endfacet
facet normal 0.499999999999989 0.866025403784445 -3.00732742179071e-016
outer loop
vertex -1.125 58.551442841485 20.0
vertex -0.582342851480679 58.3266668908496 15.0
vertex -1.125 58.551442841485 15.0
endloop
endfacet
facet normal 0.258819045102519 0.965925826289069 -1.36391029867866e-015
outer loop
vertex -0.582342851480679 58.3266668908496 15.0
vertex -1.125 58.551442841485 20.0
vertex -0.582342851480668 58.3266668908496 20.0
endloop
endfacet
facet normal 0.707106781186538 0.707106781186557 -3.48536128558448e-015
outer loop
vertex -1.59099025766972 68.9090097423303 20.0
vertex -1.125 68.551442841485 15.0
vertex -1.59099025766974 68.9090097423303 15.0
endloop
endfacet
facet normal 0.500000000000005 0.866025403784436 -3.92128391791491e-015
outer loop
vertex -1.125 68.551442841485 15.0
vertex -1.59099025766972 68.9090097423303 20.0
vertex -1.12499999999999 68.551442841485 20.0
endloop
endfacet
facet normal -1.0 -5.8724214212313e-015 -3.52171517098831e-016
outer loop
vertex 2.25 60.5 20.0
vertex 2.1733331091504 61.0823428514807 15.0
vertex 2.25 60.5 15.0
endloop
endfacet
facet normal -0.965925826289069 -0.258819045102518 -1.99783991524546e-016
outer loop
vertex 2.1733331091504 61.0823428514807 15.0
vertex 2.25 60.5 20.0
vertex 2.1733331091504 61.0823428514807 20.0
endloop
endfacet
facet normal 0.707106781186546 -0.707106781186549 -3.09495553265114e-016
outer loop
vertex -1.59099025766974 72.0909902576697 15.0
vertex -1.948557158515 71.625 20.0
vertex -1.94855715851499 71.625 15.0
endloop
endfacet
facet normal 0.866025403784438 -0.500000000000001 1.15349467469106e-015
outer loop
vertex -1.948557158515 71.625 20.0
vertex -1.59099025766974 72.0909902576697 15.0
vertex -1.59099025766974 72.0909902576697 20.0
endloop
endfacet
facet normal 0.707106781186544 0.707106781186552 1.47824863795141e-015
outer loop
vertex -1.59099025766975 58.9090097423302 20.0
vertex -1.125 58.551442841485 15.0
vertex -1.59099025766974 58.9090097423303 15.0
endloop
endfacet
facet normal 0.499999999999989 0.866025403784445 -3.00732742179071e-016
outer loop
vertex -1.125 58.551442841485 15.0
vertex -1.59099025766975 58.9090097423302 20.0
vertex -1.125 58.551442841485 20.0
endloop
endfacet
facet normal -0.96592582628907 0.258819045102514 -2.64015159720369e-016
outer loop
vertex 2.1733331091504 59.9176571485193 20.0
vertex 2.25 60.5 15.0
vertex 2.1733331091504 59.9176571485193 15.0
endloop
endfacet
facet normal -1.0 -5.12388818999696e-015 -3.52171517098832e-016
outer loop
vertex 2.25 60.5 15.0
vertex 2.1733331091504 59.9176571485193 20.0
vertex 2.25 60.5 20.0
endloop
endfacet
facet normal 0.499999999999995 -0.866025403784442 -9.39358951874968e-016
outer loop
vertex -1.125 72.448557158515 20.0
vertex -1.59099025766974 72.0909902576697 15.0
vertex -1.125 72.448557158515 15.0
endloop
endfacet
facet normal 0.707106781186546 -0.707106781186549 -3.09495553265114e-016
outer loop
vertex -1.59099025766974 72.0909902576697 15.0
vertex -1.125 72.448557158515 20.0
vertex -1.59099025766974 72.0909902576697 20.0
endloop
endfacet
facet normal 5.07933264051873e-015 -1.0 -1.72019539120364e-015
outer loop
vertex 0.0 62.75 20.0
vertex -0.582342851480668 62.6733331091504 15.0
vertex 0.0 62.75 15.0
endloop
endfacet
facet normal 0.258819045102512 -0.965925826289071 -1.84378577766888e-015
outer loop
vertex -0.582342851480668 62.6733331091504 15.0
vertex 0.0 62.75 20.0
vertex -0.582342851480668 62.6733331091504 20.0
endloop
endfacet
facet normal 0.500000000000005 0.866025403784436 -3.92128391791491e-015
outer loop
vertex -1.12499999999999 68.551442841485 20.0
vertex -0.582342851480668 68.3266668908496 15.0
vertex -1.125 68.551442841485 15.0
endloop
endfacet
facet normal 0.258819045102526 0.965925826289067 -1.30422856301052e-015
outer loop
vertex -0.582342851480668 68.3266668908496 15.0
vertex -1.12499999999999 68.551442841485 20.0
vertex -0.582342851480668 68.3266668908496 20.0
endloop
endfacet
facet normal -0.258819045102511 -0.965925826289071 -6.31804741860933e-016
outer loop
vertex 0.582342851480668 62.6733331091504 20.0
vertex 0.0 62.75 15.0
vertex 0.582342851480668 62.6733331091504 15.0
endloop
endfacet
facet normal 5.07933264051873e-015 -1.0 -1.72019539120364e-015
outer loop
vertex 0.0 62.75 15.0
vertex 0.582342851480668 62.6733331091504 20.0
vertex 0.0 62.75 20.0
endloop
endfacet
facet normal -0.49999999999999 -0.866025403784445 6.17694938836035e-016
outer loop
vertex 1.125 62.448557158515 20.0
vertex 0.582342851480668 62.6733331091504 15.0
vertex 1.125 62.448557158515 15.0
endloop
endfacet
facet normal -0.258819045102511 -0.965925826289071 -6.31804741860933e-016
outer loop
vertex 0.582342851480668 62.6733331091504 15.0
vertex 1.125 62.448557158515 20.0
vertex 0.582342851480668 62.6733331091504 20.0
endloop
endfacet
facet normal -0.866025403784442 0.499999999999994 1.8460084607159e-016
outer loop
vertex 1.94855715851499 59.375 20.0
vertex 2.1733331091504 59.9176571485193 15.0
vertex 1.94855715851499 59.375 15.0
endloop
endfacet
facet normal -0.96592582628907 0.258819045102514 -2.64015159720368e-016
outer loop
vertex 2.1733331091504 59.9176571485193 15.0
vertex 1.94855715851499 59.375 20.0
vertex 2.1733331091504 59.9176571485193 20.0
endloop
endfacet
facet normal 0.258819045102518 0.965925826289069 -1.36391029867866e-015
outer loop
vertex -0.582342851480668 58.3266668908496 20.0
vertex 0.0 58.25 15.0
vertex -0.582342851480679 58.3266668908496 15.0
endloop
endfacet
facet normal 3.8941550243977e-015 1.0 -6.06144849653759e-016
outer loop
vertex 0.0 58.25 15.0
vertex -0.582342851480668 58.3266668908496 20.0
vertex 0.0 58.25 20.0
endloop
endfacet
facet normal 0.866025403784434 0.500000000000009 -1.26625679483841e-016
outer loop
vertex -1.94855715851499 69.375 15.0
vertex -1.59099025766972 68.9090097423303 20.0
vertex -1.59099025766974 68.9090097423303 15.0
endloop
endfacet
facet normal 0.707106781186538 0.707106781186557 -3.48536128558448e-015
outer loop
vertex -1.59099025766972 68.9090097423303 20.0
vertex -1.94855715851499 69.375 15.0
vertex -1.94855715851499 69.375 20.0
endloop
endfacet
facet normal 1.0 -2.12975526505961e-015 2.53783917297828e-015
outer loop
vertex -2.25 70.5 15.0
vertex -2.17333310915041 69.9176571485193 20.0
vertex -2.1733331091504 69.9176571485193 15.0
endloop
endfacet
facet normal 0.965925826289069 0.258819045102518 1.86285217760058e-015
outer loop
vertex -2.17333310915041 69.9176571485193 20.0
vertex -2.25 70.5 15.0
vertex -2.25000000000001 70.5 20.0
endloop
endfacet
facet normal -0.707106781186544 -0.707106781186551 1.379044326128e-015
outer loop
vertex 1.59099025766972 62.0909902576698 20.0
vertex 1.125 62.448557158515 15.0
vertex 1.59099025766974 62.0909902576697 15.0
endloop
endfacet
facet normal -0.49999999999999 -0.866025403784445 6.17694938836035e-016
outer loop
vertex 1.125 62.448557158515 15.0
vertex 1.59099025766972 62.0909902576698 20.0
vertex 1.125 62.448557158515 20.0
endloop
endfacet
facet normal 0.965925826289071 0.25881904510251 7.74486586238603e-016
outer loop
vertex -2.1733331091504 59.9176571485193 15.0
vertex -1.948557158515 59.375 20.0
vertex -1.94855715851499 59.375 15.0
endloop
endfacet
facet normal 0.866025403784444 0.499999999999991 1.59282653415034e-015
outer loop
vertex -1.948557158515 59.375 20.0
vertex -2.1733331091504 59.9176571485193 15.0
vertex -2.1733331091504 59.9176571485193 20.0
endloop
endfacet
facet normal 0.707106781186544 0.707106781186551 1.47824863795141e-015
outer loop
vertex -1.59099025766974 58.9090097423303 15.0
vertex -1.948557158515 59.375 20.0
vertex -1.59099025766975 58.9090097423302 20.0
endloop
endfacet
facet normal 0.866025403784444 0.499999999999991 1.59282653415034e-015
outer loop
vertex -1.948557158515 59.375 20.0
vertex -1.59099025766974 58.9090097423303 15.0
vertex -1.94855715851499 59.375 15.0
endloop
endfacet
facet normal 0.866025403784434 0.500000000000009 -1.26625679483841e-016
outer loop
vertex -1.94855715851499 69.375 15.0
vertex -2.17333310915041 69.9176571485193 20.0
vertex -1.94855715851499 69.375 20.0
endloop
endfacet
facet normal 0.965925826289069 0.258819045102518 1.86285217760058e-015
outer loop
vertex -2.17333310915041 69.9176571485193 20.0
vertex -1.94855715851499 69.375 15.0
vertex -2.1733331091504 69.9176571485193 15.0
endloop
endfacet
facet normal 0.965925826289069 -0.258819045102518 2.46706871558439e-015
outer loop
vertex -2.1733331091504 71.0823428514807 15.0
vertex -2.25000000000001 70.5 20.0
vertex -2.25 70.5 15.0
endloop
endfacet
facet normal 1.0 -2.8693773863983e-015 2.53783917297828e-015
outer loop
vertex -2.25000000000001 70.5 20.0
vertex -2.1733331091504 71.0823428514807 15.0
vertex -2.17333310915041 71.0823428514807 20.0
endloop
endfacet
facet normal 3.8941550243977e-015 1.0 -6.06144849653759e-016
outer loop
vertex 0.0 58.25 20.0
vertex 0.582342851480668 58.3266668908496 15.0
vertex 0.0 58.25 15.0
endloop
endfacet
facet normal -0.258819045102516 0.96592582628907 1.10506558778032e-018
outer loop
vertex 0.582342851480668 58.3266668908496 15.0
vertex 0.0 58.25 20.0
vertex 0.582342851480668 58.3266668908496 20.0
endloop
endfacet
facet normal -0.866025403784442 0.499999999999994 1.8460084607159e-016
outer loop
vertex 1.94855715851499 59.375 20.0
vertex 1.59099025766974 58.9090097423303 15.0
vertex 1.59099025766974 58.9090097423302 20.0
endloop
endfacet
facet normal -0.707106781186547 0.707106781186548 5.09766610860058e-016
outer loop
vertex 1.59099025766974 58.9090097423303 15.0
vertex 1.94855715851499 59.375 20.0
vertex 1.94855715851499 59.375 15.0
endloop
endfacet
facet normal 0.258819045102526 0.965925826289067 -1.30422856301052e-015
outer loop
vertex -0.582342851480668 68.3266668908496 20.0
vertex 0.0 68.25 15.0
vertex -0.582342851480668 68.3266668908496 15.0
endloop
endfacet
facet normal 8.9111098956469e-018 1.0 3.09574764041977e-018
outer loop
vertex 0.0 68.25 15.0
vertex -0.582342851480668 68.3266668908496 20.0
vertex 0.0 68.25 20.0
endloop
endfacet
facet normal 1.0 -3.41295509003276e-015 2.78277118804031e-016
outer loop
vertex -2.25 60.5 15.0
vertex -2.1733331091504 59.9176571485193 20.0
vertex -2.1733331091504 59.9176571485193 15.0
endloop
endfacet
facet normal 0.965925826289071 0.25881904510251 7.74486586238602e-016
outer loop
vertex -2.1733331091504 59.9176571485193 20.0
vertex -2.25 60.5 15.0
vertex -2.25 60.5 20.0
endloop
endfacet
facet normal 0.965925826289069 -0.258819045102519 -2.98747836050066e-016
outer loop
vertex -2.1733331091504 61.0823428514807 15.0
vertex -2.25 60.5 20.0
vertex -2.25 60.5 15.0
endloop
endfacet
facet normal 1.0 -3.78722170564993e-015 2.7827711880403e-016
outer loop
vertex -2.25 60.5 20.0
vertex -2.1733331091504 61.0823428514807 15.0
vertex -2.1733331091504 61.0823428514807 20.0
endloop
endfacet
facet normal -0.957582562454662 0.288159046505161 -2.58979397867662e-016
outer loop
vertex -3.86370330515627 61.5352761804101 26.2902405975303
vertex -3.46410161513776 62.5 20.2378209566604
vertex -3.86370330515627 61.5352761804101 20.2378209566604
endloop
endfacet
facet normal -0.866025403784438 0.500000000000001 -1.68055830042047e-016
outer loop
vertex -3.46410161513776 62.5 20.2378209566604
vertex -3.86370330515627 61.5352761804101 26.2902405975303
vertex -3.46410161513776 62.5 26.6710526315789
endloop
endfacet
facet normal -0.879193596146984 -0.476464710649313 4.38572857953154e-016
outer loop
vertex -3.46410161513776 58.5 25.0921052631579
vertex -3.86370330515628 59.4647238195899 20.2378209566604
vertex -3.46410161513776 58.5 20.2378209566604
endloop
endfacet
facet normal -0.965925826289068 -0.258819045102522 7.83319551230358e-016
outer loop
vertex -3.86370330515628 59.4647238195899 20.2378209566604
vertex -3.46410161513776 58.5 25.0921052631579
vertex -3.86370330515628 59.4647238195899 25.4729172972066
endloop
endfacet
facet normal -0.973267196608482 -0.229675780189961 6.63879083028706e-016
outer loop
vertex -3.86370330515628 59.4647238195899 25.4729172972066
vertex -4.0 60.5 20.2378209566604
vertex -3.86370330515628 59.4647238195899 20.2378209566604
endloop
endfacet
facet normal -1.0 3.56444395825876e-015 6.53520249290389e-017
outer loop
vertex -4.0 60.5 20.2378209566604
vertex -3.86370330515628 59.4647238195899 25.4729172972066
vertex -4.0 60.5 25.8815789473684
endloop
endfacet
facet normal -0.513563587661531 -0.858051537745966 -1.04243259575228e-015
outer loop
vertex -2.0 57.0358983848622 24.5141704150772
vertex -2.82842712474619 57.6715728752538 20.2378209566604
vertex -2.0 57.0358983848622 20.2378209566604
endloop
endfacet
facet normal -0.707106781186549 -0.707106781186546 -1.36879666874756e-015
outer loop
vertex -2.82842712474619 57.6715728752538 20.2378209566604
vertex -2.0 57.0358983848622 24.5141704150772
vertex -2.8284271247462 57.6715728752538 24.7650945560212
endloop
endfacet
facet normal -0.690589540838548 0.723246905340357 2.01168764026124e-018
outer loop
vertex -2.82842712474619 63.3284271247462 26.9980633387156
vertex -3.46410161513776 62.5 20.2378209566604
vertex -3.46410161513776 62.5 26.6710526315789
endloop
endfacet
facet normal -0.866025403784438 0.500000000000001 -1.68055830042047e-016
outer loop
vertex -3.46410161513776 62.5 20.2378209566604
vertex -2.82842712474619 63.3284271247462 26.9980633387156
vertex -2.82842712474619 63.3284271247462 20.2378209566604
endloop
endfacet
facet normal -0.266714896252224 -0.963775473913487 6.42823252844721e-016
outer loop
vertex -1.03527618041008 56.6362966948437 24.3564329058594
vertex -2.0 57.0358983848622 20.2378209566604
vertex -1.03527618041008 56.6362966948437 20.2378209566604
endloop
endfacet
facet normal -0.5 -0.866025403784439 -9.31122904477017e-016
outer loop
vertex -2.0 57.0358983848622 20.2378209566604
vertex -1.03527618041008 56.6362966948437 24.3564329058594
vertex -2.0 57.0358983848622 24.5141704150772
endloop
endfacet
facet normal -0.690589540838548 0.723246905340357 2.01168764026124e-018
outer loop
vertex -2.82842712474619 63.3284271247462 26.9980633387156
vertex -2.0 63.9641016151378 20.2378209566604
vertex -2.82842712474619 63.3284271247462 20.2378209566604
endloop
endfacet
facet normal -0.500000000000003 0.866025403784437 -2.00545793510056e-019
outer loop
vertex -2.0 63.9641016151378 20.2378209566604
vertex -2.82842712474619 63.3284271247462 26.9980633387156
vertex -2.0 63.9641016151378 27.2489874796596
endloop
endfacet
facet normal -0.879193596146984 -0.476464710649313 4.38572857953154e-016
outer loop
vertex -3.46410161513776 58.5 25.0921052631579
vertex -2.82842712474619 57.6715728752538 20.2378209566604
vertex -2.8284271247462 57.6715728752538 24.7650945560212
endloop
endfacet
facet normal -0.707106781186549 -0.707106781186546 -1.36879666874756e-015
outer loop
vertex -2.82842712474619 57.6715728752538 20.2378209566604
vertex -3.46410161513776 58.5 25.0921052631579
vertex -3.46410161513776 58.5 20.2378209566604
endloop
endfacet
facet normal -0.485539592353417 0.874214678587175 -3.96772728773587e-019
outer loop
vertex -2.0 63.9641016151378 27.2489874796596
vertex -1.03527618041008 64.3637033051563 20.2378209566604
vertex -2.0 63.9641016151378 20.2378209566604
endloop
endfacet
facet normal -0.258819045102522 0.965925826289068 -7.90825205684752e-019
outer loop
vertex -1.03527618041008 64.3637033051563 20.2378209566604
vertex -2.0 63.9641016151378 27.2489874796596
vertex -1.03527618041008 64.3637033051563 27.4067249888775
endloop
endfacet
facet normal -0.957582562454662 0.288159046505161 -2.58979397867662e-016
outer loop
vertex -3.86370330515627 61.5352761804101 26.2902405975303
vertex -4.0 60.5 20.2378209566604
vertex -4.0 60.5 25.8815789473684
endloop
endfacet
facet normal -1.0 3.56444395825876e-015 6.53520249290389e-017
outer loop
vertex -4.0 60.5 20.2378209566604
vertex -3.86370330515627 61.5352761804101 26.2902405975303
vertex -3.86370330515627 61.5352761804101 20.2378209566604
endloop
endfacet
facet normal -0.250393308476268 0.968144199523144 -7.26962250650522e-019
outer loop
vertex -1.03527618041008 64.3637033051563 27.4067249888775
vertex 0.0 64.5 20.2378209566604
vertex -1.03527618041008 64.3637033051563 20.2378209566604
endloop
endfacet
facet normal -3.38622176034582e-016 1.0 5.12123898420669e-017
outer loop
vertex 0.0 64.5 20.2378209566604
vertex -1.03527618041008 64.3637033051563 27.4067249888775
vertex 0.0 64.5 27.4605263157895
endloop
endfacet
facet normal 0.266714896252226 -0.963775473913486 2.84115153938681e-015
outer loop
vertex 1.03527618041008 56.6362966948437 24.3564329058594
vertex 0.0 56.5 20.2378209566604
vertex 1.03527618041008 56.6362966948437 20.2378209566604
endloop
endfacet
facet normal 2.65551074890278e-015 -1.0 2.06317371666006e-015
outer loop
vertex 0.0 56.5 20.2378209566604
vertex 1.03527618041008 56.6362966948437 24.3564329058594
vertex 0.0 56.5 24.3026315789474
endloop
endfacet
facet normal 2.6489012178266e-015 -1.0 2.06317371666006e-015
outer loop
vertex 0.0 56.5 24.3026315789474
vertex -1.03527618041008 56.6362966948437 20.2378209566604
vertex 0.0 56.5 20.2378209566604
endloop
endfacet
facet normal -0.258819045102519 -0.965925826289069 6.85370167069042e-016
outer loop
vertex -1.03527618041008 56.6362966948437 20.2378209566604
vertex 0.0 56.5 24.3026315789474
vertex -1.03527618041008 56.6362966948437 24.3564329058594
endloop
endfacet
facet normal 0.513563587661533 -0.858051537745965 1.84074338938351e-015
outer loop
vertex 2.0 57.0358983848622 24.5141704150772
vertex 1.51763809020504 56.836097539853 20.2378209566604
vertex 2.0 57.0358983848622 20.2378209566604
endloop
endfacet
facet normal 0.382683432365091 -0.923879532511286 2.89081251578106e-015
outer loop
vertex 1.51763809020504 56.836097539853 20.2378209566604
vertex 2.0 57.0358983848622 24.5141704150772
vertex 1.03527618041008 56.6362966948437 20.2378209566604
endloop
endfacet
facet normal 0.258819045102522 -0.965925826289068 2.83630804712473e-015
outer loop
vertex 1.03527618041008 56.6362966948437 20.2378209566604
vertex 2.0 57.0358983848622 24.5141704150772
vertex 1.03527618041008 56.6362966948437 24.3564329058594
endloop
endfacet
facet normal 0.866025403784438 -0.5 1.77760504681199e-016
outer loop
vertex 3.46410161513776 58.5 20.2378209566604
vertex 2.82842712474619 57.6715728752538 24.7650945560212
vertex 2.82842712474619 57.6715728752538 20.2378209566604
endloop
endfacet
facet normal 0.722574280623637 -0.691293287238661 -2.88816301773702e-017
outer loop
vertex 2.82842712474619 57.6715728752538 24.7650945560212
vertex 3.46410161513776 58.5 20.2378209566604
vertex 3.46410161513776 58.5 25.0921052631579
endloop
endfacet
facet normal 0.722574280623637 -0.691293287238661 -2.88816301773702e-017
outer loop
vertex 2.82842712474619 57.6715728752538 24.7650945560212
vertex 2.0 57.0358983848622 20.2378209566604
vertex 2.82842712474619 57.6715728752538 20.2378209566604
endloop
endfacet
facet normal 0.500000000000001 -0.866025403784438 1.95571666061255e-015
outer loop
vertex 2.0 57.0358983848622 20.2378209566604
vertex 2.82842712474619 57.6715728752538 24.7650945560212
vertex 2.0 57.0358983848622 24.5141704150772
endloop
endfacet
facet normal 0.866025403784438 -0.5 1.77760504681199e-016
outer loop
vertex 3.46410161513776 58.5 20.2378209566604
vertex 3.86370330515627 59.4647238195899 25.4729172972065
vertex 3.46410161513776 58.5 25.0921052631579
endloop
endfacet
facet normal 0.973267196608482 -0.229675780189961 1.29482445535508e-015
outer loop
vertex 3.86370330515627 59.4647238195899 25.4729172972065
vertex 3.46410161513776 58.5 20.2378209566604
vertex 3.86370330515628 59.4647238195899 20.2378209566604
endloop
endfacet
facet normal 1.0 -1.69311088017291e-016 9.49600164948965e-016
outer loop
vertex 4.0 60.5 20.2378209566604
vertex 3.86370330515627 59.4647238195899 25.4729172972065
vertex 3.86370330515628 59.4647238195899 20.2378209566604
endloop
endfacet
facet normal 0.973267196608482 -0.229675780189961 1.29482445535508e-015
outer loop
vertex 3.86370330515627 59.4647238195899 25.4729172972065
vertex 4.0 60.5 20.2378209566604
vertex 4.0 60.5 25.8815789473684
endloop
endfacet
facet normal 0.965925826289067 0.258819045102525 5.69322529054845e-016
outer loop
vertex 3.86370330515628 61.5352761804101 20.2378209566604
vertex 4.0 60.5 25.8815789473684
vertex 4.0 60.5 20.2378209566604
endloop
endfacet
facet normal 0.999511604920724 0.031249826060303 8.40026611247006e-016
outer loop
vertex 4.0 60.5 25.8815789473684
vertex 3.86370330515628 61.5352761804101 20.2378209566604
vertex 3.86370330515627 61.5352761804101 26.2902405975303
endloop
endfacet
facet normal 0.250393308476268 0.968144199523144 1.98954574012821e-016
outer loop
vertex 1.03527618041008 64.3637033051563 27.4067249888775
vertex 2.0 63.9641016151378 20.2378209566604
vertex 1.03527618041009 64.3637033051563 20.2378209566604
endloop
endfacet
facet normal 0.500000000000002 0.866025403784437 -9.23271645840515e-017
outer loop
vertex 2.0 63.9641016151378 20.2378209566604
vertex 1.03527618041008 64.3637033051563 27.4067249888775
vertex 2.0 63.9641016151378 27.2489874796596
endloop
endfacet
facet normal -3.31669391668478e-016 1.0 5.12123898420669e-017
outer loop
vertex 0.0 64.5 27.4605263157895
vertex 1.03527618041009 64.3637033051563 20.2378209566604
vertex 0.0 64.5 20.2378209566604
endloop
endfacet
facet normal 0.258819045102523 0.965925826289068 2.05816361838557e-016
outer loop
vertex 1.03527618041009 64.3637033051563 20.2378209566604
vertex 0.0 64.5 27.4605263157895
vertex 1.03527618041008 64.3637033051563 27.4067249888775
endloop
endfacet
facet normal 0.707106781186548 0.707106781186547 -5.19467790867363e-016
outer loop
vertex 2.82842712474619 63.3284271247462 20.2378209566604
vertex 3.46410161513775 62.5 26.6710526315789
vertex 3.46410161513776 62.5 20.2378209566604
endloop
endfacet
facet normal 0.851806006884953 0.523857353326945 -7.40032915406013e-017
outer loop
vertex 3.46410161513775 62.5 26.6710526315789
vertex 2.82842712474619 63.3284271247462 20.2378209566604
vertex 2.8284271247462 63.3284271247462 26.9980633387156
endloop
endfacet
facet normal 0.485539592353418 0.874214678587175 -4.16090828140727e-017
outer loop
vertex 2.0 63.9641016151378 27.2489874796596
vertex 2.82842712474619 63.3284271247462 20.2378209566604
vertex 2.0 63.9641016151378 20.2378209566604
endloop
endfacet
facet normal 0.707106781186548 0.707106781186547 -5.19467790867363e-016
outer loop
vertex 2.82842712474619 63.3284271247462 20.2378209566604
vertex 2.0 63.9641016151378 27.2489874796596
vertex 2.8284271247462 63.3284271247462 26.9980633387156
endloop
endfacet
facet normal 0.866025403784438 0.500000000000001 5.1907112207859e-017
outer loop
vertex 3.46410161513776 62.5 20.2378209566604
vertex 3.86370330515627 61.5352761804101 26.2902405975303
vertex 3.86370330515628 61.5352761804101 20.2378209566604
endloop
endfacet
facet normal 0.957582562454661 0.288159046505162 5.87450084185232e-016
outer loop
vertex 3.86370330515627 61.5352761804101 26.2902405975303
vertex 3.46410161513776 62.5 20.2378209566604
vertex 3.46410161513775 62.5 26.6710526315789
endloop
endfacet
facet normal -0.258819045102516 0.96592582628907 1.10506558778032e-018
outer loop
vertex 0.582342851480668 58.3266668908496 20.0
vertex 1.125 58.551442841485 15.0
vertex 0.582342851480668 58.3266668908496 15.0
endloop
endfacet
facet normal -0.499999999999991 0.866025403784444 2.83637143407728e-016
outer loop
vertex 1.125 58.551442841485 15.0
vertex 0.582342851480668 58.3266668908496 20.0
vertex 1.125 58.551442841485 20.0
endloop
endfacet
facet normal 0.0 1.0 0.0
outer loop
vertex -41.0 76.0 2.0
vertex -7.5 76.0 15.0
vertex -7.5 76.0 2.0
endloop
endfacet
facet normal 0.0 1.0 0.0
outer loop
vertex -7.5 76.0 15.0
vertex -41.0 76.0 2.0
vertex -41.0 76.0 25.7747318606607
endloop
endfacet
facet normal 0.0 1.0 0.0
outer loop
vertex -7.5 76.0 15.0
vertex -41.0 76.0 25.7747318606607
vertex -6.5 76.0 15.0
endloop
endfacet
facet normal 0.0 1.0 0.0
outer loop
vertex -6.5 76.0 15.0
vertex -41.0 76.0 25.7747318606607
vertex 7.5 76.0 15.0
endloop
endfacet
facet normal 0.0 1.0 0.0
outer loop
vertex -86.0 76.0 28.7747318606607
vertex -41.0 76.0 25.7747318606607
vertex -86.0 76.0 25.7747318606607
endloop
endfacet
facet normal 0.0 1.0 0.0
outer loop
vertex -41.0 76.0 25.7747318606607
vertex -86.0 76.0 28.7747318606607
vertex 41.0 76.0 25.7747318606607
endloop
endfacet
facet normal 0.0 1.0 0.0
outer loop
vertex 41.0 76.0 25.7747318606607
vertex -86.0 76.0 28.7747318606607
vertex 85.9999999999999 76.0 25.7747318606607
endloop
endfacet
facet normal 0.0 1.0 0.0
outer loop
vertex 85.9999999999999 76.0 25.7747318606607
vertex -86.0 76.0 28.7747318606607
vertex 86.0 76.0 28.7747318606607
endloop
endfacet
facet normal 0.0 1.0 0.0
outer loop
vertex 86.0 76.0 28.7747318606607
vertex -86.0 76.0 28.7747318606607
vertex -86.0 76.0 32.0
endloop
endfacet
facet normal 0.0 1.0 0.0
outer loop
vertex 86.0 76.0 28.7747318606607
vertex -86.0 76.0 32.0
vertex 86.0 76.0 32.0
endloop
endfacet
facet normal 0.0 1.0 0.0
outer loop
vertex 7.5 76.0 15.0
vertex 41.0 76.0 2.0
vertex 7.5 76.0 2.0
endloop
endfacet
facet normal 0.0 1.0 0.0
outer loop
vertex 41.0 76.0 2.0
vertex 7.5 76.0 15.0
vertex 41.0 76.0 25.7747318606607
endloop
endfacet
facet normal 0.0 1.0 0.0
outer loop
vertex 41.0 76.0 25.7747318606607
vertex 7.5 76.0 15.0
vertex -41.0 76.0 25.7747318606607
endloop
endfacet
facet normal 2.58390424938461e-018 -5.6426972329064e-018 -1.0
outer loop
vertex 41.0 76.0 2.0
vertex 7.5 55.0 2.0
vertex 7.5 76.0 2.0
endloop
endfacet
facet normal 2.58390424938461e-018 -5.6426972329064e-018 -1.0
outer loop
vertex 7.5 55.0 2.0
vertex 41.0 76.0 2.0
vertex 38.0 55.0 2.0
endloop
endfacet
facet normal 2.58390424938461e-018 -5.6426972329064e-018 -1.0
outer loop
vertex 38.0 55.0 2.0
vertex 41.0 76.0 2.0
vertex 38.0 0.0 2.0
endloop
endfacet
facet normal 2.58390424938461e-018 -5.6426972329064e-018 -1.0
outer loop
vertex 38.0 0.0 2.0
vertex 41.0 76.0 2.0
vertex 41.0 8.17067928632638 2.0
endloop
endfacet
facet normal 2.58390424938461e-018 -5.6426972329064e-018 -1.0
outer loop
vertex 38.0 0.0 2.0
vertex 41.0 8.17067928632638 2.0
vertex 86.0 0.0 2.0
endloop
endfacet
facet normal 2.58390424938461e-018 -5.6426972329064e-018 -1.0
outer loop
vertex 41.0 8.17067928632638 2.0
vertex 41.0 76.0 2.0
vertex 41.0 73.0 2.0
endloop
endfacet
facet normal 2.58390424938461e-018 -5.6426972329064e-018 -1.0
outer loop
vertex 86.0 0.0 2.0
vertex 41.0 8.17067928632638 2.0
vertex 86.0 8.17067928632638 2.0
endloop
endfacet
facet normal 1.0 0.0 0.0
outer loop
vertex -7.5 76.0 2.0
vertex -7.5 55.0 15.0
vertex -7.5 55.0 2.0
endloop
endfacet
facet normal 1.0 0.0 0.0
outer loop
vertex -7.5 55.0 15.0
vertex -7.5 76.0 2.0
vertex -7.5 76.0 15.0
endloop
endfacet
facet normal 2.06212432012938e-018 1.0074160258163e-017 -1.0
outer loop
vertex -41.0 76.0 2.0
vertex -38.0 55.0 2.0
vertex -41.0 8.17067928632618 2.0
endloop
endfacet
facet normal 2.06212432012938e-018 1.0074160258163e-017 -1.0
outer loop
vertex -38.0 55.0 2.0
vertex -41.0 76.0 2.0
vertex -7.5 76.0 2.0
endloop
endfacet
facet normal 2.06212432012938e-018 1.0074160258163e-017 -1.0
outer loop
vertex -38.0 55.0 2.0
vertex -7.5 76.0 2.0
vertex -7.5 55.0 2.0
endloop
endfacet
facet normal 2.06212432012938e-018 1.0074160258163e-017 -1.0
outer loop
vertex -41.0 8.17067928632618 2.0
vertex -86.0 0.0 2.0
vertex -86.0 8.17067928632618 2.0
endloop
endfacet
facet normal 2.06212432012938e-018 1.0074160258163e-017 -1.0
outer loop
vertex -86.0 0.0 2.0
vertex -41.0 8.17067928632618 2.0
vertex -38.0 0.0 2.0
endloop
endfacet
facet normal 2.06212432012938e-018 1.0074160258163e-017 -1.0
outer loop
vertex -38.0 0.0 2.0
vertex -41.0 8.17067928632618 2.0
vertex -38.0 55.0 2.0
endloop
endfacet
facet normal 0.258819045102516 -0.96592582628907 -1.09827104090677e-015
outer loop
vertex -0.582342851480668 72.6733331091504 20.0
vertex -1.125 72.448557158515 15.0
vertex -0.582342851480668 72.6733331091504 15.0
endloop
endfacet
facet normal 0.499999999999995 -0.866025403784442 -9.39358951874968e-016
outer loop
vertex -1.125 72.448557158515 15.0
vertex -0.582342851480668 72.6733331091504 20.0
vertex -1.125 72.448557158515 20.0
endloop
endfacet
endsolid konstruktion
