solid konstruktion
facet normal 1.0 0.0 0.0
outer loop
vertex 83.5 67.4508244371472 28.625325435716
vertex 83.5 2.32538805332831 27.9375
vertex 83.5 2.32538805332831 2.91791633684012
endloop
endfacet
facet normal 0.519665127488628 0.00902296707512653 -0.854322387238792
outer loop
vertex 83.5 2.32538805332831 27.9375
vertex 42.3681454417986 2.32538805332831 2.91791633684012
vertex 83.5 67.4508244371472 28.625325435716
endloop
endfacet
facet normal -1.0 0.0 0.0
outer loop
vertex 86.0 76.0 32.0
vertex 86.0 0.0 2.0
vertex 86.0 0.0 32.0
endloop
endfacet
facet normal 1.71397965934022e-017 -1.0 3.63328820864206e-033
outer loop
vertex 83.5 2.32538805332831 27.9375
vertex 42.3681454417986 2.32538805332831 2.91791633684012
vertex 83.5 2.32538805332831 2.91791633684012
endloop
endfacet
facet normal 2.79971925958326e-016 0.367166534736048 -0.930155221331323
outer loop
vertex 86.0 76.0 32.0
vertex 42.3681454417986 2.32538805332831 2.91791633684012
vertex 38.0 0.0 2.0
endloop
endfacet
facet normal 2.79971925958326e-016 0.367166534736048 -0.930155221331323
outer loop
vertex 42.3681454417986 2.32538805332831 2.91791633684012
vertex 86.0 76.0 32.0
vertex 83.5 67.4508244371472 28.625325435716
endloop
endfacet
facet normal 2.79971925958326e-016 0.367166534736048 -0.930155221331323
outer loop
vertex 83.5 67.4508244371472 28.625325435716
vertex 86.0 76.0 32.0
vertex 83.5 2.32538805332831 2.91791633684012
endloop
endfacet
facet normal 2.79971925958326e-016 0.367166534736048 -0.930155221331323
outer loop
vertex 42.3681454417986 2.32538805332831 2.91791633684012
vertex 86.0 0.0 2.0
vertex 38.0 0.0 2.0
endloop
endfacet
facet normal 2.79971925958326e-016 0.367166534736048 -0.930155221331323
outer loop
vertex 86.0 0.0 2.0
vertex 42.3681454417986 2.32538805332831 2.91791633684012
vertex 83.5 2.32538805332831 2.91791633684012
endloop
endfacet
facet normal 2.79971925958326e-016 0.367166534736048 -0.930155221331323
outer loop
vertex 86.0 0.0 2.0
vertex 83.5 2.32538805332831 2.91791633684012
vertex 86.0 76.0 32.0
endloop
endfacet
facet normal -0.52999894000318 -4.85542137794739e-017 0.847998304005088
outer loop
vertex 86.0 76.0 32.0
vertex 38.0 0.0 2.0
vertex 86.0 0.0 32.0
endloop
endfacet
facet normal 0.0 -1.0 0.0
outer loop
vertex 86.0 0.0 32.0
vertex 38.0 0.0 2.0
vertex 86.0 0.0 2.0
endloop
endfacet
endsolid konstruktion
